<?xml version="1.0" standalone="no"?>
<!DOCTYPE svg PUBLIC "-//W3C//DTD SVG 1.1//EN" "http://www.w3.org/Graphics/SVG/1.1/DTD/svg11.dtd">
<svg xmlns="http://www.w3.org/2000/svg" xmlns:xlink="http://www.w3.org/1999/xlink" width="375" zoomAndPan="magnify" viewBox="0 0 375 374.999991" height="375" preserveAspectRatio="xMidYMid meet" version="1.0"><defs><clipPath id="id1"><path d="M 24.121094 13.910156 L 371.371094 13.910156 L 371.371094 361.160156 L 24.121094 361.160156 Z M 24.121094 13.910156 " clip-rule="nonzero"/></clipPath><clipPath id="id2"><path d="M 65 53.769531 L 312.058594 53.769531 L 312.058594 321.519531 L 65 321.519531 Z M 65 53.769531 " clip-rule="nonzero"/></clipPath><clipPath id="id3"><path d="M 97.375 80.046875 L 197.875 80.046875 L 197.875 180.546875 L 97.375 180.546875 Z M 97.375 80.046875 " clip-rule="nonzero"/></clipPath><clipPath id="id4"><path d="M 128.84375 139.414062 L 210.59375 139.414062 L 210.59375 221.164062 L 128.84375 221.164062 Z M 128.84375 139.414062 " clip-rule="nonzero"/></clipPath><clipPath id="id5"><path d="M 147.542969 75.644531 L 202.292969 75.644531 L 202.292969 130.394531 L 147.542969 130.394531 Z M 147.542969 75.644531 " clip-rule="nonzero"/></clipPath><clipPath id="id6"><path d="M 120 110.777344 L 196.941406 110.777344 L 196.941406 214.265625 L 120 214.265625 Z M 120 110.777344 " clip-rule="nonzero"/></clipPath><clipPath id="id7"><path d="M 160 118 L 196.941406 118 L 196.941406 131 L 160 131 Z M 160 118 " clip-rule="nonzero"/></clipPath><clipPath id="id8"><path d="M 182 185 L 196.941406 185 L 196.941406 195 L 182 195 Z M 182 185 " clip-rule="nonzero"/></clipPath><clipPath id="id9"><path d="M 162 194 L 196.941406 194 L 196.941406 203 L 162 203 Z M 162 194 " clip-rule="nonzero"/></clipPath><clipPath id="id10"><path d="M 191 200 L 300 200 L 300 345 L 191 345 Z M 191 200 " clip-rule="nonzero"/></clipPath><clipPath id="id11"><path d="M 187.5 217.898438 L 269.570312 196.746094 L 303.074219 326.75 L 221.003906 347.902344 Z M 187.5 217.898438 " clip-rule="nonzero"/></clipPath><clipPath id="id12"><path d="M 128 209 L 212 209 L 212 258 L 128 258 Z M 128 209 " clip-rule="nonzero"/></clipPath><clipPath id="id13"><path d="M 124.285156 227.070312 L 206.355469 205.917969 L 215.152344 240.054688 L 133.082031 261.203125 Z M 124.285156 227.070312 " clip-rule="nonzero"/></clipPath><clipPath id="id14"><path d="M 197.710938 80.046875 L 282.460938 80.046875 L 282.460938 221.046875 L 197.710938 221.046875 Z M 197.710938 80.046875 " clip-rule="nonzero"/></clipPath><clipPath id="id15"><path d="M 197.097656 106 L 254 106 L 254 205.617188 L 197.097656 205.617188 Z M 197.097656 106 " clip-rule="nonzero"/></clipPath><clipPath id="id16"><path d="M 168.964844 75.644531 L 210.964844 75.644531 L 210.964844 117.644531 L 168.964844 117.644531 Z M 168.964844 75.644531 " clip-rule="nonzero"/></clipPath></defs><g clip-path="url(#id1)"><path fill="#ffeef1" d="M 371.371094 187.535156 C 371.371094 190.375 371.300781 193.214844 371.160156 196.054688 C 371.019531 198.894531 370.8125 201.726562 370.53125 204.554688 C 370.253906 207.382812 369.90625 210.199219 369.488281 213.011719 C 369.074219 215.820312 368.585938 218.621094 368.03125 221.40625 C 367.480469 224.195312 366.855469 226.964844 366.164062 229.722656 C 365.476562 232.480469 364.71875 235.214844 363.894531 237.9375 C 363.066406 240.65625 362.175781 243.351562 361.21875 246.027344 C 360.261719 248.703125 359.238281 251.351562 358.152344 253.980469 C 357.066406 256.605469 355.914062 259.199219 354.699219 261.769531 C 353.484375 264.339844 352.207031 266.875 350.867188 269.382812 C 349.527344 271.886719 348.128906 274.359375 346.667969 276.796875 C 345.207031 279.234375 343.6875 281.632812 342.109375 283.996094 C 340.53125 286.359375 338.894531 288.679688 337.199219 290.964844 C 335.507812 293.246094 333.761719 295.484375 331.957031 297.683594 C 330.15625 299.878906 328.300781 302.027344 326.390625 304.132812 C 324.484375 306.238281 322.523438 308.296875 320.515625 310.304688 C 318.507812 312.316406 316.449219 314.273438 314.34375 316.183594 C 312.238281 318.089844 310.085938 319.945312 307.890625 321.75 C 305.695312 323.550781 303.453125 325.300781 301.171875 326.992188 C 298.890625 328.683594 296.566406 330.320312 294.203125 331.898438 C 291.84375 333.476562 289.441406 334.996094 287.003906 336.457031 C 284.566406 337.917969 282.097656 339.320312 279.589844 340.660156 C 277.085938 342 274.546875 343.273438 271.976562 344.488281 C 269.410156 345.707031 266.8125 346.855469 264.1875 347.945312 C 261.5625 349.03125 258.910156 350.054688 256.238281 351.011719 C 253.5625 351.96875 250.863281 352.859375 248.144531 353.683594 C 245.425781 354.507812 242.6875 355.265625 239.929688 355.957031 C 237.175781 356.648438 234.402344 357.269531 231.617188 357.824219 C 228.828125 358.378906 226.03125 358.863281 223.21875 359.28125 C 220.410156 359.699219 217.589844 360.046875 214.761719 360.324219 C 211.933594 360.601562 209.101562 360.8125 206.261719 360.949219 C 203.425781 361.089844 200.585938 361.160156 197.746094 361.160156 C 194.902344 361.160156 192.0625 361.089844 189.226562 360.949219 C 186.386719 360.8125 183.554688 360.601562 180.726562 360.324219 C 177.898438 360.046875 175.078125 359.699219 172.269531 359.28125 C 169.457031 358.863281 166.660156 358.378906 163.871094 357.824219 C 161.085938 357.269531 158.3125 356.648438 155.558594 355.957031 C 152.800781 355.265625 150.0625 354.507812 147.34375 353.683594 C 144.625 352.859375 141.925781 351.96875 139.25 351.011719 C 136.578125 350.054688 133.925781 349.03125 131.300781 347.945312 C 128.675781 346.855469 126.078125 345.707031 123.511719 344.488281 C 120.941406 343.273438 118.402344 342 115.898438 340.660156 C 113.390625 339.320312 110.921875 337.917969 108.484375 336.457031 C 106.046875 334.996094 103.644531 333.476562 101.285156 331.898438 C 98.921875 330.320312 96.597656 328.683594 94.316406 326.992188 C 92.035156 325.300781 89.792969 323.550781 87.597656 321.75 C 85.402344 319.945312 83.25 318.089844 81.144531 316.183594 C 79.039062 314.273438 76.980469 312.316406 74.972656 310.304688 C 72.964844 308.296875 71.003906 306.238281 69.097656 304.132812 C 67.1875 302.027344 65.332031 299.878906 63.53125 297.679688 C 61.726562 295.484375 59.980469 293.246094 58.289062 290.964844 C 56.59375 288.679688 54.957031 286.359375 53.378906 283.996094 C 51.800781 281.632812 50.28125 279.234375 48.820312 276.796875 C 47.359375 274.359375 45.960938 271.886719 44.621094 269.382812 C 43.28125 266.875 42.003906 264.339844 40.789062 261.769531 C 39.574219 259.199219 38.421875 256.605469 37.335938 253.976562 C 36.25 251.351562 35.226562 248.703125 34.269531 246.027344 C 33.3125 243.351562 32.421875 240.65625 31.59375 237.9375 C 30.769531 235.214844 30.011719 232.480469 29.324219 229.722656 C 28.632812 226.964844 28.007812 224.195312 27.457031 221.40625 C 26.902344 218.621094 26.414062 215.820312 26 213.011719 C 25.582031 210.199219 25.234375 207.382812 24.957031 204.554688 C 24.675781 201.726562 24.46875 198.894531 24.328125 196.054688 C 24.1875 193.214844 24.121094 190.375 24.121094 187.535156 C 24.121094 184.695312 24.1875 181.855469 24.328125 179.015625 C 24.46875 176.175781 24.675781 173.34375 24.957031 170.515625 C 25.234375 167.6875 25.582031 164.871094 26 162.058594 C 26.414062 159.25 26.902344 156.449219 27.457031 153.664062 C 28.007812 150.875 28.632812 148.105469 29.324219 145.347656 C 30.011719 142.589844 30.769531 139.855469 31.59375 137.132812 C 32.421875 134.414062 33.3125 131.71875 34.269531 129.042969 C 35.226562 126.367188 36.25 123.71875 37.335938 121.089844 C 38.421875 118.464844 39.574219 115.871094 40.789062 113.300781 C 42.003906 110.730469 43.28125 108.195312 44.621094 105.6875 C 45.960938 103.183594 47.359375 100.710938 48.820312 98.273438 C 50.28125 95.835938 51.800781 93.4375 53.378906 91.074219 C 54.957031 88.710938 56.59375 86.390625 58.289062 84.105469 C 59.980469 81.824219 61.726562 79.585938 63.53125 77.386719 C 65.332031 75.191406 67.1875 73.042969 69.097656 70.9375 C 71.003906 68.832031 72.964844 66.773438 74.972656 64.765625 C 76.980469 62.753906 79.039062 60.796875 81.144531 58.886719 C 83.25 56.980469 85.402344 55.125 87.597656 53.320312 C 89.792969 51.519531 92.035156 49.769531 94.316406 48.078125 C 96.597656 46.386719 98.921875 44.75 101.285156 43.171875 C 103.644531 41.59375 106.046875 40.074219 108.484375 38.613281 C 110.921875 37.152344 113.390625 35.75 115.898438 34.410156 C 118.402344 33.070312 120.941406 31.792969 123.511719 30.578125 C 126.078125 29.363281 128.675781 28.214844 131.300781 27.125 C 133.925781 26.039062 136.578125 25.015625 139.25 24.058594 C 141.925781 23.101562 144.625 22.210938 147.34375 21.386719 C 150.0625 20.5625 152.800781 19.804688 155.558594 19.113281 C 158.3125 18.421875 161.085938 17.800781 163.871094 17.246094 C 166.660156 16.691406 169.457031 16.207031 172.269531 15.789062 C 175.078125 15.371094 177.898438 15.023438 180.726562 14.746094 C 183.554688 14.46875 186.386719 14.257812 189.226562 14.121094 C 192.0625 13.980469 194.902344 13.910156 197.746094 13.910156 C 200.585938 13.910156 203.425781 13.980469 206.261719 14.121094 C 209.101562 14.257812 211.933594 14.46875 214.761719 14.746094 C 217.589844 15.023438 220.410156 15.371094 223.21875 15.789062 C 226.03125 16.207031 228.828125 16.691406 231.617188 17.246094 C 234.402344 17.800781 237.175781 18.421875 239.929688 19.113281 C 242.6875 19.804688 245.425781 20.5625 248.144531 21.386719 C 250.863281 22.210938 253.5625 23.101562 256.238281 24.058594 C 258.910156 25.015625 261.5625 26.039062 264.1875 27.125 C 266.8125 28.214844 269.410156 29.363281 271.976562 30.578125 C 274.546875 31.792969 277.085938 33.070312 279.589844 34.410156 C 282.097656 35.75 284.566406 37.152344 287.003906 38.613281 C 289.441406 40.074219 291.84375 41.59375 294.203125 43.171875 C 296.566406 44.75 298.890625 46.386719 301.171875 48.078125 C 303.453125 49.769531 305.695312 51.519531 307.890625 53.320312 C 310.085938 55.125 312.238281 56.980469 314.34375 58.886719 C 316.449219 60.796875 318.507812 62.753906 320.515625 64.765625 C 322.523438 66.773438 324.484375 68.832031 326.390625 70.9375 C 328.300781 73.042969 330.15625 75.191406 331.957031 77.386719 C 333.761719 79.585938 335.507812 81.824219 337.199219 84.105469 C 338.894531 86.390625 340.53125 88.710938 342.109375 91.074219 C 343.6875 93.4375 345.207031 95.835938 346.667969 98.273438 C 348.128906 100.710938 349.527344 103.183594 350.867188 105.6875 C 352.207031 108.195312 353.484375 110.730469 354.699219 113.300781 C 355.914062 115.871094 357.066406 118.464844 358.152344 121.089844 C 359.238281 123.71875 360.261719 126.367188 361.21875 129.042969 C 362.175781 131.71875 363.066406 134.414062 363.894531 137.132812 C 364.71875 139.855469 365.476562 142.589844 366.164062 145.347656 C 366.855469 148.105469 367.480469 150.875 368.03125 153.664062 C 368.585938 156.449219 369.074219 159.25 369.488281 162.058594 C 369.90625 164.871094 370.253906 167.6875 370.53125 170.515625 C 370.8125 173.34375 371.019531 176.175781 371.160156 179.015625 C 371.300781 181.855469 371.371094 184.695312 371.371094 187.535156 Z M 371.371094 187.535156 " fill-opacity="1" fill-rule="nonzero"/></g><g clip-path="url(#id2)"><path fill="#231f20" d="M 313.941406 385.445312 C 305.847656 369.914062 297.992188 354.257812 290.203125 338.566406 C 280.929688 319.882812 269.835938 299.414062 269.058594 278.003906 C 268.984375 276.054688 268.84375 272.039062 268.703125 271.917969 C 268.710938 264.042969 268.597656 255.953125 265.800781 248.351562 C 262.804688 240.214844 255.84375 234.46875 249.550781 229.71875 C 242.125 224.113281 233.871094 219.332031 225.675781 215.894531 C 221.507812 214.148438 217.117188 212.800781 212.871094 211.492188 L 211 210.917969 C 208.4375 210.121094 206.308594 209.441406 204.300781 208.773438 C 202.113281 208.046875 199.621094 207.164062 199.351562 206.988281 L 199.164062 206.851562 C 199.113281 206.808594 199.050781 206.765625 198.964844 206.722656 L 198.855469 206.667969 C 178.148438 199.140625 161.109375 188.441406 148.214844 174.871094 C 136.078125 162.097656 124.570312 141.539062 128.664062 122.132812 C 131.78125 107.382812 144.050781 94.195312 159.214844 89.320312 C 162.464844 88.277344 165.792969 87.746094 169.105469 87.746094 C 173.238281 87.746094 177.175781 88.5625 180.804688 90.175781 C 188.222656 93.472656 194.027344 100.5 198.0625 111.058594 C 198.265625 111.585938 198.746094 111.914062 199.320312 111.914062 L 199.429688 111.914062 C 200.003906 111.914062 200.484375 111.585938 200.6875 111.058594 C 204.722656 100.5 210.53125 93.472656 217.945312 90.175781 C 221.574219 88.5625 225.511719 87.746094 229.644531 87.746094 C 232.957031 87.746094 236.285156 88.277344 239.535156 89.320312 C 254.695312 94.195312 266.96875 107.382812 270.085938 122.132812 C 274.175781 141.539062 262.667969 162.097656 250.535156 174.871094 C 247.058594 178.527344 234.792969 187.582031 228.898438 191.925781 C 227.820312 192.722656 226.964844 193.351562 226.429688 193.753906 C 223.890625 195.660156 221.207031 197.453125 218.605469 199.183594 C 216.34375 200.695312 189.582031 215.527344 187.347656 217.160156 C 186.867188 217.511719 186.675781 218.109375 186.863281 218.683594 C 187.046875 219.230469 187.507812 219.597656 188.023438 219.601562 C 188.269531 219.601562 188.515625 219.511719 188.738281 219.351562 C 191.234375 217.535156 218.261719 202.507812 220.785156 200.8125 C 222.332031 199.773438 223.882812 198.734375 225.417969 197.671875 C 225.789062 197.417969 226.386719 197.035156 227.1875 196.527344 C 250.015625 181.980469 264.140625 166.535156 269.167969 150.617188 C 275.378906 130.972656 274.300781 117.921875 265.449219 105.578125 C 256.707031 93.390625 243.472656 85.570312 230.90625 85.160156 C 230.539062 85.148438 230.171875 85.140625 229.808594 85.140625 C 216.5625 85.140625 205.789062 93.0625 199.375 107.46875 C 192.964844 93.0625 182.1875 85.140625 168.941406 85.140625 C 168.578125 85.140625 168.210938 85.148438 167.84375 85.160156 C 155.28125 85.570312 142.046875 93.390625 133.300781 105.578125 C 124.398438 118 123.109375 133.582031 129.589844 150.640625 C 135.640625 166.574219 147.832031 180.835938 165.839844 193.03125 C 174.828125 199.125 185.320312 204.410156 197.023438 208.75 C 197.535156 209.273438 199.847656 210.171875 209.738281 213.246094 L 210.28125 213.414062 C 221.808594 216.996094 230.410156 220.648438 238.164062 225.242188 C 246.484375 230.167969 255.722656 236.351562 261.195312 244.84375 C 266.203125 252.632812 266.15625 262.765625 266.113281 271.707031 L 266.109375 272.765625 C 265.988281 274.507812 265.9375 276.25 265.984375 278.003906 C 266.488281 297.3125 275.789062 316.277344 284.121094 333.195312 C 292.746094 350.691406 301.5 368.132812 310.488281 385.445312 L 141.28125 385.445312 C 147.9375 377.113281 151.714844 365.902344 153.984375 355.8125 C 156.230469 345.832031 157.96875 333.320312 155.882812 323.226562 C 154.882812 318.382812 150.832031 314.691406 146.535156 312.679688 C 137.953125 308.664062 127.164062 311.03125 117.957031 310.023438 C 108.988281 309.046875 94.027344 306.105469 92.714844 295.070312 C 92.015625 289.246094 92.320312 283.195312 92.960938 277.378906 C 93.25 274.75 94.101562 271.804688 93.433594 269.171875 C 92.257812 264.554688 85.824219 265.097656 86.757812 258.839844 C 87.125 256.40625 91.511719 255.011719 88.335938 252.550781 C 85.378906 250.265625 80.3125 248.667969 84.164062 243.585938 C 85.515625 241.808594 86.265625 239.488281 86.890625 237.375 C 87.640625 234.824219 88.363281 229.980469 85.308594 228.511719 C 80.351562 226.121094 74.53125 227.617188 70.085938 223.617188 C 65.324219 219.332031 70.3125 212.542969 72.855469 208.539062 C 77.921875 200.566406 82.769531 192.417969 87.191406 184.066406 C 88.832031 180.957031 90.410156 177.785156 91.621094 174.46875 C 93.183594 170.195312 91.800781 165.453125 90.847656 161.191406 C 88.820312 152.117188 92.117188 141.890625 94.226562 133.03125 C 94.84375 130.4375 95.421875 127.828125 96.128906 125.253906 C 99.59375 112.652344 105.738281 100.820312 114.15625 90.824219 C 128.042969 74.34375 147.789062 64.886719 168.65625 60.820312 C 177.078125 59.179688 187.769531 57.996094 196.742188 57.410156 L 211.929688 57.105469 C 222.097656 57.441406 232.191406 58.710938 241.980469 61.1875 C 261.480469 66.121094 279.035156 76.960938 290.738281 93.496094 C 304.53125 112.972656 310.125 139.839844 308.511719 163.347656 C 307 185.394531 295.863281 204.429688 285.238281 223.207031 C 283.15625 226.890625 281.019531 230.679688 278.964844 234.554688 C 279.097656 234.628906 279.230469 234.710938 279.363281 234.785156 C 280.1875 234.28125 281.179688 234.4375 282.167969 234.917969 C 284.898438 229.878906 287.765625 224.984375 290.453125 220.242188 C 300.636719 202.292969 309.839844 184.257812 311.585938 163.347656 C 313.480469 140.664062 307.738281 115.261719 295.910156 95.773438 C 286.320312 79.980469 271.402344 68.636719 254.359375 61.921875 C 240.863281 56.601562 226.339844 54.417969 211.800781 54.082031 L 211.800781 54.074219 C 211.800781 54.074219 209.929688 53.960938 208.871094 53.972656 L 208.875 53.96875 L 208.855469 53.972656 C 208.632812 53.972656 208.445312 53.980469 208.316406 53.992188 L 200.460938 54.324219 C 200.460938 54.289062 199.902344 54.324219 199.269531 54.324219 L 199.175781 54.324219 L 199.117188 54.335938 C 196.335938 54.484375 191.453125 54.6875 188.773438 54.929688 C 166.144531 56.996094 143.738281 62.148438 125.300781 76.066406 C 106.152344 90.523438 96 111.429688 90.792969 134.25 C 88.878906 142.613281 86.101562 151.832031 87.558594 160.433594 C 88.414062 165.503906 90.09375 170.046875 88.140625 175.015625 C 86.425781 179.398438 84.015625 183.566406 81.730469 187.671875 C 77.523438 195.25 73.039062 202.714844 68.289062 209.960938 C 63.011719 218 64.964844 226.289062 74.375 229.324219 C 76.996094 230.167969 79.792969 230.234375 82.488281 230.703125 C 86.402344 231.386719 83.640625 237.800781 82.746094 239.851562 C 81.179688 243.464844 77.246094 246.621094 80.65625 250.640625 C 81.511719 251.640625 85.140625 255.660156 86.535156 254 C 85.683594 255.011719 84.640625 255.691406 84.164062 257.007812 C 82.609375 261.296875 84.4375 264.792969 87.75 267.570312 C 90.726562 270.0625 90.714844 270.910156 90.230469 274.65625 C 89.511719 280.195312 89.210938 285.683594 89.398438 291.269531 C 89.707031 300.265625 93.742188 305.992188 102.210938 309.375 C 111.210938 312.964844 121.199219 313.859375 130.8125 313.691406 C 138.839844 313.550781 149.375 314.007812 152.621094 322.992188 C 153.867188 326.457031 153.28125 330.894531 153.265625 334.507812 C 153.234375 341.398438 152.4375 348.261719 151.019531 354.996094 C 149.230469 363.5 146.117188 371.769531 141.667969 379.242188 C 140.382812 381.394531 138.96875 383.589844 137.257812 385.445312 C 136.625 386.132812 137.257812 388.921875 137.257812 388.921875 L 314.296875 388.921875 L 314.296875 385.445312 L 313.941406 385.445312 " fill-opacity="1" fill-rule="nonzero"/></g><g clip-path="url(#id3)"><path fill="#ffeef1" d="M 197.875 130.296875 C 197.875 131.941406 197.792969 133.585938 197.632812 135.222656 C 197.472656 136.859375 197.230469 138.484375 196.910156 140.101562 C 196.589844 141.714844 196.1875 143.308594 195.710938 144.882812 C 195.234375 146.457031 194.679688 148.007812 194.050781 149.527344 C 193.421875 151.046875 192.71875 152.53125 191.941406 153.984375 C 191.164062 155.4375 190.320312 156.84375 189.40625 158.214844 C 188.492188 159.582031 187.511719 160.902344 186.46875 162.175781 C 185.425781 163.445312 184.320312 164.664062 183.15625 165.828125 C 181.992188 166.992188 180.777344 168.097656 179.503906 169.140625 C 178.230469 170.183594 176.910156 171.164062 175.542969 172.078125 C 174.175781 172.992188 172.765625 173.835938 171.3125 174.613281 C 169.863281 175.390625 168.375 176.089844 166.855469 176.722656 C 165.335938 177.351562 163.785156 177.90625 162.210938 178.382812 C 160.636719 178.859375 159.042969 179.261719 157.429688 179.582031 C 155.8125 179.902344 154.1875 180.144531 152.550781 180.304688 C 150.914062 180.464844 149.269531 180.546875 147.625 180.546875 C 145.980469 180.546875 144.335938 180.464844 142.699219 180.304688 C 141.0625 180.144531 139.4375 179.902344 137.820312 179.582031 C 136.207031 179.261719 134.613281 178.859375 133.039062 178.382812 C 131.464844 177.90625 129.914062 177.351562 128.394531 176.722656 C 126.875 176.089844 125.390625 175.390625 123.9375 174.613281 C 122.484375 173.835938 121.078125 172.992188 119.707031 172.078125 C 118.339844 171.164062 117.019531 170.183594 115.746094 169.140625 C 114.476562 168.097656 113.257812 166.992188 112.09375 165.828125 C 110.929688 164.664062 109.824219 163.445312 108.78125 162.175781 C 107.738281 160.902344 106.757812 159.582031 105.84375 158.214844 C 104.929688 156.84375 104.085938 155.4375 103.308594 153.984375 C 102.53125 152.53125 101.828125 151.046875 101.199219 149.527344 C 100.570312 148.007812 100.015625 146.457031 99.539062 144.882812 C 99.0625 143.308594 98.660156 141.714844 98.339844 140.101562 C 98.019531 138.484375 97.777344 136.859375 97.617188 135.222656 C 97.457031 133.585938 97.375 131.941406 97.375 130.296875 C 97.375 128.652344 97.457031 127.007812 97.617188 125.371094 C 97.777344 123.734375 98.019531 122.105469 98.339844 120.492188 C 98.660156 118.878906 99.0625 117.285156 99.539062 115.710938 C 100.015625 114.136719 100.570312 112.585938 101.199219 111.066406 C 101.828125 109.546875 102.53125 108.058594 103.308594 106.609375 C 104.085938 105.15625 104.929688 103.746094 105.84375 102.378906 C 106.757812 101.011719 107.738281 99.691406 108.78125 98.417969 C 109.824219 97.144531 110.929688 95.929688 112.09375 94.765625 C 113.257812 93.601562 114.476562 92.496094 115.746094 91.453125 C 117.019531 90.410156 118.339844 89.429688 119.707031 88.515625 C 121.078125 87.601562 122.484375 86.753906 123.9375 85.980469 C 125.390625 85.203125 126.875 84.5 128.394531 83.871094 C 129.914062 83.242188 131.464844 82.6875 133.039062 82.210938 C 134.613281 81.734375 136.207031 81.332031 137.820312 81.011719 C 139.4375 80.691406 141.0625 80.449219 142.699219 80.289062 C 144.335938 80.128906 145.980469 80.046875 147.625 80.046875 C 149.269531 80.046875 150.914062 80.128906 152.550781 80.289062 C 154.1875 80.449219 155.8125 80.691406 157.429688 81.011719 C 159.042969 81.332031 160.636719 81.734375 162.210938 82.210938 C 163.785156 82.6875 165.335938 83.242188 166.855469 83.871094 C 168.375 84.5 169.863281 85.203125 171.3125 85.980469 C 172.765625 86.753906 174.175781 87.601562 175.542969 88.515625 C 176.910156 89.429688 178.230469 90.410156 179.503906 91.453125 C 180.777344 92.496094 181.992188 93.601562 183.15625 94.765625 C 184.320312 95.929688 185.425781 97.144531 186.46875 98.417969 C 187.511719 99.691406 188.492188 101.011719 189.40625 102.378906 C 190.320312 103.746094 191.164062 105.15625 191.941406 106.609375 C 192.71875 108.058594 193.421875 109.546875 194.050781 111.066406 C 194.679688 112.585938 195.234375 114.136719 195.710938 115.710938 C 196.1875 117.285156 196.589844 118.878906 196.910156 120.492188 C 197.230469 122.105469 197.472656 123.734375 197.632812 125.371094 C 197.792969 127.007812 197.875 128.652344 197.875 130.296875 Z M 197.875 130.296875 " fill-opacity="1" fill-rule="nonzero"/></g><g clip-path="url(#id4)"><path fill="#ffeef1" d="M 210.59375 180.289062 C 210.59375 181.625 210.527344 182.960938 210.394531 184.292969 C 210.265625 185.625 210.070312 186.949219 209.808594 188.261719 C 209.546875 189.574219 209.222656 190.871094 208.832031 192.152344 C 208.445312 193.433594 207.992188 194.691406 207.480469 195.929688 C 206.96875 197.167969 206.398438 198.375 205.765625 199.554688 C 205.136719 200.738281 204.449219 201.882812 203.703125 202.996094 C 202.960938 204.109375 202.164062 205.183594 201.316406 206.21875 C 200.464844 207.253906 199.566406 208.242188 198.621094 209.191406 C 197.675781 210.136719 196.683594 211.035156 195.648438 211.882812 C 194.613281 212.734375 193.539062 213.53125 192.425781 214.273438 C 191.3125 215.019531 190.167969 215.707031 188.988281 216.335938 C 187.804688 216.96875 186.597656 217.539062 185.359375 218.050781 C 184.125 218.5625 182.863281 219.015625 181.582031 219.402344 C 180.300781 219.792969 179.003906 220.117188 177.691406 220.378906 C 176.378906 220.636719 175.058594 220.835938 173.722656 220.964844 C 172.390625 221.097656 171.058594 221.164062 169.71875 221.164062 C 168.378906 221.164062 167.042969 221.097656 165.710938 220.964844 C 164.378906 220.835938 163.058594 220.636719 161.742188 220.378906 C 160.429688 220.117188 159.132812 219.792969 157.851562 219.402344 C 156.570312 219.015625 155.3125 218.5625 154.074219 218.050781 C 152.839844 217.539062 151.628906 216.96875 150.449219 216.335938 C 149.269531 215.707031 148.121094 215.019531 147.007812 214.273438 C 145.894531 213.53125 144.820312 212.734375 143.789062 211.882812 C 142.753906 211.035156 141.761719 210.136719 140.816406 209.191406 C 139.867188 208.242188 138.96875 207.253906 138.121094 206.21875 C 137.273438 205.183594 136.476562 204.109375 135.730469 202.996094 C 134.988281 201.882812 134.300781 200.738281 133.667969 199.554688 C 133.039062 198.375 132.46875 197.167969 131.953125 195.929688 C 131.441406 194.691406 130.992188 193.433594 130.601562 192.152344 C 130.214844 190.871094 129.890625 189.574219 129.628906 188.261719 C 129.367188 186.949219 129.171875 185.625 129.039062 184.292969 C 128.910156 182.960938 128.84375 181.625 128.84375 180.289062 C 128.84375 178.949219 128.910156 177.613281 129.039062 176.28125 C 129.171875 174.949219 129.367188 173.625 129.628906 172.3125 C 129.890625 171 130.214844 169.703125 130.601562 168.421875 C 130.992188 167.140625 131.441406 165.882812 131.953125 164.644531 C 132.46875 163.410156 133.039062 162.199219 133.667969 161.019531 C 134.300781 159.839844 134.988281 158.691406 135.730469 157.578125 C 136.476562 156.464844 137.273438 155.390625 138.121094 154.355469 C 138.96875 153.320312 139.867188 152.332031 140.816406 151.382812 C 141.761719 150.4375 142.753906 149.539062 143.789062 148.691406 C 144.820312 147.839844 145.894531 147.046875 147.007812 146.300781 C 148.121094 145.558594 149.269531 144.871094 150.449219 144.238281 C 151.628906 143.609375 152.839844 143.035156 154.074219 142.523438 C 155.3125 142.011719 156.570312 141.5625 157.851562 141.171875 C 159.132812 140.785156 160.429688 140.460938 161.742188 140.199219 C 163.058594 139.9375 164.378906 139.742188 165.710938 139.609375 C 167.042969 139.476562 168.378906 139.414062 169.71875 139.414062 C 171.058594 139.414062 172.390625 139.476562 173.722656 139.609375 C 175.058594 139.742188 176.378906 139.9375 177.691406 140.199219 C 179.003906 140.460938 180.300781 140.785156 181.582031 141.171875 C 182.863281 141.5625 184.125 142.011719 185.359375 142.523438 C 186.597656 143.035156 187.804688 143.609375 188.988281 144.238281 C 190.167969 144.871094 191.3125 145.558594 192.425781 146.300781 C 193.539062 147.046875 194.613281 147.839844 195.648438 148.691406 C 196.683594 149.539062 197.675781 150.4375 198.621094 151.382812 C 199.566406 152.332031 200.464844 153.320312 201.316406 154.355469 C 202.164062 155.390625 202.960938 156.464844 203.703125 157.578125 C 204.449219 158.691406 205.136719 159.839844 205.765625 161.019531 C 206.398438 162.199219 206.96875 163.410156 207.480469 164.644531 C 207.992188 165.882812 208.445312 167.140625 208.832031 168.421875 C 209.222656 169.703125 209.546875 171 209.808594 172.3125 C 210.070312 173.625 210.265625 174.949219 210.394531 176.28125 C 210.527344 177.613281 210.59375 178.949219 210.59375 180.289062 Z M 210.59375 180.289062 " fill-opacity="1" fill-rule="nonzero"/></g><g clip-path="url(#id5)"><path fill="#ffeef1" d="M 202.292969 103.019531 C 202.292969 103.914062 202.25 104.808594 202.160156 105.699219 C 202.074219 106.59375 201.941406 107.480469 201.765625 108.359375 C 201.589844 109.238281 201.375 110.105469 201.113281 110.964844 C 200.851562 111.820312 200.550781 112.664062 200.207031 113.492188 C 199.863281 114.320312 199.480469 115.132812 199.058594 115.921875 C 198.636719 116.710938 198.175781 117.480469 197.679688 118.226562 C 197.179688 118.972656 196.648438 119.691406 196.078125 120.382812 C 195.507812 121.078125 194.90625 121.742188 194.273438 122.375 C 193.640625 123.007812 192.976562 123.609375 192.285156 124.179688 C 191.589844 124.746094 190.871094 125.28125 190.125 125.777344 C 189.378906 126.277344 188.613281 126.738281 187.820312 127.160156 C 187.03125 127.582031 186.222656 127.964844 185.394531 128.308594 C 184.566406 128.652344 183.722656 128.953125 182.863281 129.214844 C 182.003906 129.472656 181.136719 129.691406 180.257812 129.867188 C 179.378906 130.042969 178.492188 130.171875 177.601562 130.261719 C 176.707031 130.347656 175.8125 130.394531 174.917969 130.394531 C 174.019531 130.394531 173.125 130.347656 172.234375 130.261719 C 171.339844 130.171875 170.457031 130.042969 169.578125 129.867188 C 168.695312 129.691406 167.828125 129.472656 166.96875 129.214844 C 166.113281 128.953125 165.269531 128.652344 164.441406 128.308594 C 163.613281 127.964844 162.804688 127.582031 162.011719 127.160156 C 161.222656 126.738281 160.453125 126.277344 159.707031 125.777344 C 158.964844 125.28125 158.242188 124.746094 157.550781 124.179688 C 156.859375 123.609375 156.195312 123.007812 155.558594 122.375 C 154.925781 121.742188 154.324219 121.078125 153.757812 120.382812 C 153.1875 119.691406 152.652344 118.972656 152.15625 118.226562 C 151.65625 117.480469 151.195312 116.710938 150.773438 115.921875 C 150.351562 115.132812 149.96875 114.320312 149.625 113.492188 C 149.28125 112.664062 148.980469 111.820312 148.722656 110.964844 C 148.460938 110.105469 148.242188 109.238281 148.066406 108.359375 C 147.894531 107.480469 147.761719 106.59375 147.675781 105.699219 C 147.585938 104.808594 147.542969 103.914062 147.542969 103.019531 C 147.542969 102.121094 147.585938 101.226562 147.675781 100.335938 C 147.761719 99.441406 147.894531 98.554688 148.066406 97.675781 C 148.242188 96.796875 148.460938 95.929688 148.722656 95.070312 C 148.980469 94.214844 149.28125 93.371094 149.625 92.542969 C 149.96875 91.714844 150.351562 90.902344 150.773438 90.113281 C 151.195312 89.324219 151.65625 88.554688 152.15625 87.808594 C 152.652344 87.0625 153.1875 86.34375 153.757812 85.652344 C 154.324219 84.957031 154.925781 84.292969 155.558594 83.660156 C 156.195312 83.027344 156.859375 82.425781 157.550781 81.855469 C 158.242188 81.289062 158.964844 80.753906 159.707031 80.257812 C 160.453125 79.757812 161.222656 79.296875 162.011719 78.875 C 162.804688 78.453125 163.613281 78.070312 164.441406 77.726562 C 165.269531 77.382812 166.113281 77.082031 166.96875 76.820312 C 167.828125 76.5625 168.695312 76.34375 169.578125 76.167969 C 170.457031 75.992188 171.339844 75.863281 172.234375 75.773438 C 173.125 75.6875 174.019531 75.644531 174.917969 75.644531 C 175.8125 75.644531 176.707031 75.6875 177.601562 75.773438 C 178.492188 75.863281 179.378906 75.992188 180.257812 76.167969 C 181.136719 76.34375 182.003906 76.5625 182.863281 76.820312 C 183.722656 77.082031 184.566406 77.382812 185.394531 77.726562 C 186.222656 78.070312 187.03125 78.453125 187.820312 78.875 C 188.613281 79.296875 189.378906 79.757812 190.125 80.257812 C 190.871094 80.753906 191.589844 81.289062 192.285156 81.855469 C 192.976562 82.425781 193.640625 83.027344 194.273438 83.660156 C 194.90625 84.292969 195.507812 84.957031 196.078125 85.652344 C 196.648438 86.34375 197.179688 87.0625 197.679688 87.808594 C 198.175781 88.554688 198.636719 89.324219 199.058594 90.113281 C 199.480469 90.902344 199.863281 91.714844 200.207031 92.542969 C 200.550781 93.371094 200.851562 94.214844 201.113281 95.070312 C 201.375 95.929688 201.589844 96.796875 201.765625 97.675781 C 201.941406 98.554688 202.074219 99.441406 202.160156 100.335938 C 202.25 101.226562 202.292969 102.121094 202.292969 103.019531 Z M 202.292969 103.019531 " fill-opacity="1" fill-rule="nonzero"/></g><g clip-path="url(#id6)"><path fill="#000000" d="M 186.601562 111.089844 C 190.558594 110.050781 195.683594 111.511719 197.917969 111.910156 C 201.09375 112.84375 208.808594 112.316406 209.957031 112.5 C 209.496094 112.496094 203.589844 112.421875 203.078125 112.621094 C 203.988281 112.949219 204.492188 112.8125 205.382812 112.839844 C 213.679688 112.761719 207.671875 112.535156 225.390625 116.261719 C 226.148438 116.425781 226.933594 116.484375 227.675781 116.730469 C 227.675781 116.730469 233.128906 120.609375 233.128906 120.609375 C 235.460938 121.382812 241.988281 123.1875 242.101562 123.203125 C 242.296875 123.539062 242.070312 123.277344 244.546875 125.757812 C 244.886719 126.105469 245.011719 126.695312 245.519531 126.84375 C 250.527344 128.980469 247.128906 126.957031 253.265625 131.105469 C 253.320312 131.140625 255.8125 132.789062 255.878906 132.804688 C 255.898438 132.863281 259.242188 137.003906 260.09375 138 C 260.113281 138.0625 261.917969 142.546875 262.265625 143 C 265.640625 145.417969 265.246094 143.800781 268.894531 148.816406 C 270.097656 153.960938 269.429688 152.917969 271.375 156.089844 C 271.617188 156.417969 271.695312 156.828125 271.800781 157.214844 C 273.535156 162.640625 273.074219 161.128906 273.148438 162.335938 C 276.898438 167.828125 276.796875 179.414062 277.09375 180.183594 C 277.199219 181.285156 275.992188 189.335938 275.976562 189.398438 C 274.417969 194.71875 274.195312 194.230469 275.097656 198.269531 C 275.195312 198.5625 274.625 200.933594 274.496094 201.742188 C 273.363281 204.492188 271.539062 206.496094 267.5625 211.914062 C 267.5625 211.914062 263.890625 213.59375 263.890625 213.59375 C 263.890625 213.59375 259.082031 214.230469 259.082031 214.230469 C 258.78125 214.046875 257.183594 213.386719 256.546875 212.960938 C 255.242188 212.707031 253.925781 212.488281 252.617188 212.25 C 250.011719 212.015625 247.300781 209.761719 245.867188 209.59375 C 243.480469 209.234375 241.089844 208.988281 238.699219 208.667969 C 238.511719 208.582031 234.773438 206.644531 234.765625 206.636719 C 233.957031 205.414062 233.132812 204.199219 232.335938 202.96875 C 231.464844 203.320312 229.582031 202.792969 228.960938 202.796875 C 228.503906 202.464844 228.054688 202.117188 227.589844 201.796875 C 220.605469 204.910156 216.824219 204.082031 215.070312 204.402344 C 210.96875 206.445312 213.222656 206.0625 206.511719 206.011719 C 206.207031 205.910156 205.886719 205.9375 205.574219 205.914062 C 205.28125 205.804688 203.988281 205.761719 203.671875 205.761719 C 203.3125 205.945312 201.421875 207.328125 201.382812 207.371094 C 201.242188 207.421875 198.855469 207.925781 198.726562 207.949219 C 198.070312 207.851562 195.027344 208.015625 192.328125 206.734375 C 192.15625 206.640625 192 206.820312 191.851562 206.882812 C 191.242188 207.308594 190.488281 207.496094 189.914062 207.972656 C 189.902344 207.976562 186.984375 209.003906 186.921875 209.035156 C 185.808594 209.054688 184.695312 209.027344 183.582031 209.046875 C 182.421875 209.675781 176.929688 211.023438 172.039062 209.976562 C 164.421875 207.996094 167.3125 208.363281 163.085938 206.675781 C 162.875 206.515625 160.167969 204.042969 160.097656 203.960938 C 158.679688 202.339844 160.332031 205.121094 156.976562 199.53125 C 156.484375 199.53125 155.992188 199.53125 155.5 199.53125 C 155.5 199.53125 153.855469 197.769531 153.855469 197.769531 C 153.617188 197.0625 153.476562 196.328125 153.234375 195.621094 C 153.210938 194.476562 153.234375 193.328125 153.226562 192.179688 C 152.945312 192.175781 150.785156 192.03125 150.558594 191.914062 C 135.648438 184.980469 134.480469 187.945312 127.1875 184.398438 C 126.304688 183.90625 125.84375 184.023438 125.316406 183.359375 C 123.308594 180.433594 123.835938 183.207031 122.710938 178.339844 C 122.679688 174.9375 122.753906 174.917969 122.652344 174.773438 C 121.351562 172.707031 121.414062 172.320312 120.753906 171.390625 C 120.59375 170.804688 119.695312 166.925781 120.273438 165.355469 C 120.304688 164.027344 120.425781 164.152344 123.625 157.910156 C 123.761719 157.496094 123.5 157.105469 123.410156 156.710938 C 122.769531 153.269531 122.980469 153.488281 123.6875 150.546875 C 123.6875 150.546875 125.882812 147.035156 125.882812 147.035156 C 126.167969 146.855469 128.882812 144.277344 128.945312 144.226562 C 129.277344 144.09375 129.613281 143.976562 129.949219 143.851562 C 129.96875 141.789062 129.761719 142.429688 130.578125 139.039062 C 132.0625 137.449219 131.113281 137.445312 138.496094 132.449219 C 138.796875 131.964844 139.683594 131.40625 140.144531 130.902344 C 140.207031 130.867188 143.820312 127.644531 144.660156 127.363281 C 145.726562 127.203125 149.59375 125.964844 150.214844 125.867188 C 150.5625 125.84375 150.921875 125.910156 151.261719 125.796875 C 151.804688 125.796875 152.320312 125.597656 152.859375 125.597656 C 153.453125 124.828125 154.191406 124.195312 155.164062 122.960938 C 160.183594 120.164062 156.5625 121.066406 162.140625 120.109375 C 162.640625 119.984375 163.171875 119.910156 163.675781 120.054688 C 163.675781 120.054688 165.273438 120.175781 165.273438 120.175781 C 165.808594 120.34375 166.367188 120.183594 166.910156 120.15625 C 167.230469 119.550781 168.667969 118.539062 169.289062 117.9375 C 174.910156 115.160156 173.816406 115.613281 180.710938 115.667969 C 180.953125 115.769531 181.195312 115.875 181.453125 115.945312 C 181.652344 115.480469 184.292969 111.726562 184.578125 111.65625 C 185.25 111.460938 185.945312 111.34375 186.601562 111.089844 M 188.648438 111.933594 C 188.191406 112.039062 187.730469 112.140625 187.28125 112.273438 C 187 112.253906 186.730469 112.332031 186.480469 112.457031 C 185.851562 112.582031 183.40625 116.144531 183.351562 116.46875 C 183.285156 116.371094 183.046875 116.347656 183.019531 116.484375 C 183.078125 116.570312 183.242188 116.652344 183.332031 116.574219 C 183.761719 116.765625 184.222656 116.890625 184.65625 117.085938 C 184.933594 117.191406 185.253906 117.375 185.550781 117.214844 C 185.550781 117.214844 189.484375 115.777344 190.316406 115.421875 C 190.378906 115.394531 194.570312 114.59375 199.539062 115.632812 C 200.496094 115.695312 203.460938 115.578125 204.714844 115.707031 C 204.539062 115.777344 204.355469 115.835938 204.179688 115.898438 C 203.871094 115.894531 203.570312 115.964844 203.273438 116.042969 C 197.699219 117.59375 197.636719 116.929688 195.160156 116.875 C 194.640625 116.601562 194.039062 116.832031 193.488281 116.847656 C 190.261719 116.808594 189.726562 116.980469 185.640625 119.105469 C 185.636719 119.105469 180.507812 117.226562 180.414062 117.203125 C 180.011719 117.011719 174.820312 117.058594 174.578125 117.214844 C 173.878906 117.390625 173.265625 117.78125 172.621094 118.082031 C 171.269531 118.707031 171.546875 118.085938 170.273438 119.445312 C 170.273438 119.445312 168.289062 121.351562 168.289062 121.351562 C 168.289062 121.351562 162.664062 121.640625 161.371094 121.761719 C 157.4375 124.199219 158.570312 123.316406 156.222656 125.410156 C 155.726562 125.984375 154.984375 126.320312 154.636719 127.015625 C 152.957031 130.308594 153.484375 129.386719 152.535156 129.738281 C 152.292969 129.722656 152.03125 129.695312 151.8125 129.828125 C 151.75 129.832031 149.050781 130.195312 148.957031 130.234375 C 144.414062 133.316406 141.484375 135.050781 139.59375 139.328125 C 139.777344 139.433594 139.960938 139.535156 140.144531 139.636719 C 135.75 146.46875 131.085938 145.863281 130.449219 150.734375 C 130.292969 150.996094 130.285156 151.3125 130.449219 151.570312 C 130.535156 151.976562 130.648438 152.378906 130.789062 152.769531 C 130.789062 152.769531 134.933594 153.308594 134.933594 153.308594 C 135.097656 152.214844 135.179688 152.449219 135.21875 151.886719 C 135.328125 151.574219 135.363281 151.226562 135.574219 150.960938 C 135.890625 150.589844 137.5 147.898438 137.792969 147.566406 C 137.8125 147.542969 140.539062 145.355469 140.625 145.304688 C 140.984375 145.148438 141.386719 145.113281 141.761719 144.996094 C 141.964844 144.996094 142.167969 144.996094 142.367188 144.992188 C 142.589844 144.191406 142.425781 142.320312 142.980469 141.167969 C 143.457031 140.71875 143.96875 139.765625 145.117188 138.3125 C 146.566406 137.175781 148.414062 135.320312 149.378906 134.722656 C 149.441406 134.691406 154.414062 132.328125 154.972656 132.140625 C 151.03125 135.386719 145.460938 137.695312 144.527344 142.695312 L 144.535156 142.625 C 144.464844 143.140625 144.507812 143.667969 144.40625 144.183594 L 144.488281 144.1875 C 144.855469 144.378906 144.710938 144.234375 148.28125 144.789062 L 148.210938 144.789062 C 148.667969 144.835938 149.128906 144.875 149.585938 144.875 C 150.53125 143.691406 151.1875 143.132812 151.273438 139.601562 C 151.496094 140.59375 151.457031 140.886719 151.664062 141.457031 C 151.742188 143.085938 152.15625 140.914062 151.601562 145.636719 C 156.019531 148.75 149.957031 146.203125 160.640625 146.289062 C 160.640625 146.289062 162.117188 146.550781 165.367188 146.921875 C 166.933594 143.722656 166.492188 143.789062 166.996094 142.605469 C 167.011719 142.664062 167 145.691406 167 145.75 C 166.992188 146.976562 168.796875 150.351562 168.988281 151.109375 C 169.054688 151.640625 169.058594 152.191406 169.25 152.699219 C 169.550781 157.523438 172.457031 160.789062 172.734375 161.214844 C 167.597656 158.324219 169.015625 150.4375 165.195312 148.964844 C 162.855469 148.171875 165.503906 148.265625 156.503906 148.28125 C 155.8125 148.265625 155.308594 148.894531 153.742188 149.820312 C 153.3125 150.050781 151.53125 154.800781 151.519531 154.9375 C 150.957031 159.445312 150.878906 158.503906 151.210938 159.269531 C 151.480469 159.765625 151.566406 160.359375 151.933594 160.800781 C 151.789062 160.941406 152.042969 161.199219 152.183594 161.054688 C 153.296875 162.214844 158.519531 163.535156 161.074219 166.6875 C 157.304688 165.742188 152.15625 163.304688 152.085938 163.234375 C 149.535156 160.824219 150.667969 162.492188 149.527344 160.457031 C 149.472656 160.105469 148.878906 158.550781 148.6875 158.179688 C 148.679688 158.070312 148.671875 157.960938 148.667969 157.851562 C 146.933594 157.824219 144.578125 157.839844 144.578125 157.839844 C 144.980469 157.621094 147.796875 156.597656 148.59375 156.402344 C 148.59375 156.402344 150.199219 151.390625 150.199219 151.390625 C 150.335938 151.207031 150.390625 150.984375 150.402344 150.761719 C 150.429688 150.699219 151.292969 149.148438 151.507812 148.859375 C 150.492188 147.667969 150.4375 147.347656 150.097656 147.253906 C 146.867188 146.289062 146.6875 145.613281 143.824219 146.332031 C 143.460938 146.324219 142.199219 146.476562 141.746094 146.691406 C 140.238281 148.082031 138.167969 149.820312 138.0625 150.167969 C 137.542969 151.816406 136.347656 154.597656 135.984375 156.011719 C 135.777344 156.359375 135.828125 160.367188 135.972656 160.660156 C 136.152344 161.675781 136.496094 162.65625 136.757812 163.652344 C 136.851562 164.136719 137.320312 164.367188 137.6875 164.617188 C 138.285156 164.988281 138.804688 165.460938 139.386719 165.851562 C 141.179688 166.066406 141.925781 165.742188 143.703125 165.214844 C 146.632812 174.132812 145.753906 171.039062 148.277344 175.097656 C 152.15625 177.523438 159.773438 178.902344 161.65625 174.699219 C 161.703125 174.339844 161.773438 173.878906 161.476562 173.613281 C 159.886719 171.996094 160.136719 171.558594 154.808594 170.367188 C 154.417969 170.238281 154.445312 170.308594 152.101562 170.285156 C 151.746094 170.269531 151.636719 170.375 150.46875 170.652344 C 149.957031 170.773438 149.433594 170.8125 148.917969 170.902344 C 149.445312 170.621094 149.816406 170.109375 150.363281 169.863281 C 154.238281 168.8125 155.148438 169.441406 157.367188 169.433594 C 159.785156 169.488281 164.816406 174.050781 165.609375 174.121094 C 166.054688 174.308594 167.5625 174.394531 167.625 174.394531 C 167.761719 174.445312 167.914062 174.460938 168.050781 174.386719 C 169.914062 174.222656 169.558594 174.136719 170.105469 173.054688 C 170.25 172.816406 170.121094 172.535156 170.058594 172.292969 C 170.113281 171.449219 169.128906 170.863281 168.703125 170.257812 C 162.785156 163.519531 164.601562 165.734375 163.800781 164.195312 C 158.097656 152.867188 161.210938 158.246094 160 155.296875 C 159.941406 155.171875 159.875 155.082031 157.789062 154.140625 C 158.679688 154.171875 159.480469 154.636719 160.355469 154.726562 C 161.007812 153.921875 161.46875 152.144531 162.128906 151.460938 C 161.820312 154.332031 161.285156 155.820312 163.125 159.839844 C 163.175781 160.183594 163.296875 160.515625 163.480469 160.816406 C 163.828125 162.796875 164.6875 163.3125 166.589844 166.15625 C 166.769531 166.40625 170.609375 169.5 170.660156 169.527344 C 175.789062 170.074219 172.570312 169.894531 175.273438 169.339844 C 175.492188 169.273438 175.75 169.285156 175.914062 169.109375 C 176.917969 168.144531 176.78125 168.195312 176.777344 167.195312 C 176.5625 165.121094 177.210938 166.675781 175.839844 161.738281 C 175.773438 161.28125 176.296875 159.339844 176.445312 158.035156 C 176.816406 157.480469 179.449219 153.371094 179.71875 152.878906 C 180.902344 148.957031 181.847656 145.265625 178.3125 143.242188 C 175.675781 142.003906 176.726562 142.050781 172.558594 142.105469 C 171.371094 140.046875 168.992188 137.226562 168.933594 137.164062 C 168.664062 137.09375 165.703125 136.582031 165.089844 136.984375 C 162.308594 138.90625 162.945312 137.730469 162.136719 140.335938 C 161.988281 140.789062 161.832031 141.238281 161.722656 141.699219 C 161.59375 140.953125 161.988281 138.75 161.945312 138.136719 C 162.015625 137.9375 162.035156 137.699219 162.210938 137.554688 C 162.90625 136.953125 164.347656 135.976562 164.769531 135.445312 C 165.5 135.257812 167.109375 135.8125 168.226562 135.832031 C 168.628906 135.960938 169.0625 135.929688 169.472656 136.03125 C 170.019531 136.355469 170.457031 136.824219 170.9375 137.234375 C 173.832031 139.382812 170.785156 138.984375 180.566406 141.9375 C 181.160156 142.132812 181.140625 142.527344 182.074219 143.222656 C 183.433594 141.578125 185.523438 138.589844 189.289062 138.554688 C 189.097656 138.183594 189.363281 137.777344 189.367188 137.390625 C 189.539062 136.90625 189.636719 136.398438 189.710938 135.890625 C 189.859375 135.550781 189.96875 135.195312 190.128906 134.859375 C 193.019531 129.65625 190.878906 132.394531 193.117188 129.902344 C 194.046875 128.996094 194.925781 128.027344 195.902344 127.167969 C 192.257812 132.515625 192.347656 133.660156 191.097656 138.460938 C 191.496094 138.410156 191.894531 138.433594 192.292969 138.421875 C 191.867188 138.546875 191.445312 138.683594 191.015625 138.78125 C 191 138.875 190.980469 138.96875 190.96875 139.0625 C 190.84375 139.046875 190.722656 139.023438 190.601562 139.015625 C 190.605469 138.835938 190.183594 138.820312 190.160156 138.984375 C 189.996094 138.976562 189.835938 139.007812 189.6875 139.066406 C 189.148438 139.109375 187.382812 139.578125 186.921875 139.777344 C 184.476562 141.777344 184.464844 142.796875 182.835938 145.261719 C 182.742188 145.398438 182.769531 145.269531 182.773438 148.605469 C 182.789062 149.039062 181.851562 151.574219 181.738281 151.863281 C 180.898438 153.925781 182.445312 151.261719 179.015625 156.140625 C 178.769531 156.5 178.414062 156.789062 178.269531 157.210938 C 178.023438 157.84375 177.597656 158.410156 177.484375 159.085938 C 177.480469 159.148438 177.386719 162.042969 177.597656 162.441406 C 177.988281 164.960938 178.289062 165.070312 178.679688 165.617188 C 178.949219 165.917969 179.125 166.316406 179.46875 166.550781 C 181.414062 166.691406 181.453125 166.488281 181.671875 166.242188 C 181.949219 165.914062 182.285156 165.640625 182.539062 165.292969 C 183.046875 164.640625 183.789062 163.238281 184.082031 162.953125 C 184.144531 162.894531 186.261719 161.296875 186.644531 161.109375 C 190.414062 159.222656 189.578125 158.152344 191.789062 153.476562 C 193.621094 150.039062 193.636719 148.214844 198.449219 143.21875 C 198.160156 143.949219 197.613281 144.53125 197.277344 145.238281 C 196.894531 145.65625 194.601562 149.660156 194.210938 150.113281 C 193.167969 152.511719 191.839844 158.769531 188.949219 161.699219 C 187.875 162.191406 186.804688 162.691406 185.765625 163.253906 C 185.765625 163.253906 184.8125 164.808594 184.8125 164.808594 L 184.8125 164.730469 C 184.761719 165.304688 184.773438 165.886719 184.804688 166.460938 L 184.804688 166.386719 C 184.96875 166.578125 185.152344 166.746094 185.324219 166.929688 C 188.570312 166.710938 184.210938 167.542969 192.246094 165.085938 C 193.257812 164.792969 196.734375 162.679688 197.726562 162.28125 C 197.738281 162.269531 199.761719 160.03125 199.84375 159.90625 C 199.929688 159.785156 201.828125 156.265625 202.128906 156 C 201.742188 157.257812 199.917969 162.289062 199.917969 162.289062 L 199.890625 162.210938 C 199.902344 162.816406 199.203125 162.542969 203.472656 163.136719 C 203.542969 163.097656 203.613281 163.050781 203.679688 163 C 204.707031 161.679688 206.691406 160.832031 207.339844 159.296875 C 209.796875 155.394531 211.53125 150.074219 212.296875 145.574219 C 212.355469 145.40625 214.125 143.304688 214.53125 142.902344 C 215.949219 142.148438 223.328125 138.171875 224.367188 136.949219 C 226.355469 133.707031 225.625 131.558594 225.984375 130.550781 C 225.96875 130.519531 225.9375 130.457031 225.921875 130.429688 C 225.738281 129.253906 225.773438 128.222656 225.625 127.746094 C 225.636719 127.671875 225.65625 127.53125 225.664062 127.457031 C 225.902344 127.996094 226.925781 133.46875 226.941406 133.53125 C 227.074219 133.492188 233.128906 132.894531 234.371094 133.191406 C 234.371094 133.191406 239.539062 133.632812 239.539062 133.632812 C 239.535156 133.808594 239.867188 133.773438 239.988281 133.722656 C 240.132812 133.804688 243.710938 134.703125 243.769531 134.710938 L 243.761719 134.777344 C 243.800781 134.777344 243.878906 134.769531 243.917969 134.769531 C 243.953125 130.496094 242.714844 129.246094 242.566406 127.804688 C 242.578125 127.824219 244.25 130.433594 245.023438 131.511719 C 245.078125 132.382812 245.601562 134.519531 245.714844 134.785156 C 247.546875 136.628906 249.15625 137.894531 249.371094 138.273438 C 249.316406 138.363281 249.402344 138.480469 249.464844 138.542969 C 249.554688 138.546875 249.613281 138.394531 249.578125 138.320312 L 249.640625 138.335938 C 249.890625 137.765625 250.328125 137.265625 250.460938 136.65625 C 250.648438 136.632812 250.578125 136.269531 250.550781 136.121094 C 250.691406 135.722656 250.738281 135.28125 250.808594 134.859375 L 250.90625 134.859375 C 250.898438 134.164062 250.917969 133.472656 250.898438 132.78125 L 250.917969 132.722656 C 250.941406 132.839844 252.042969 135.699219 252.171875 136.003906 C 252.234375 136.035156 254.621094 136.792969 254.882812 136.746094 C 254.859375 136.90625 255.15625 136.910156 255.25 136.828125 C 255.25 136.828125 255.683594 136.953125 257.519531 137.914062 C 257.707031 138.007812 257.890625 138.144531 258.113281 138.125 C 254.339844 132.917969 253.847656 132.648438 245.941406 127.980469 C 243.742188 127.601562 244.914062 126.890625 238.011719 126.640625 C 238.140625 126.582031 238.277344 126.539062 238.410156 126.488281 C 238.804688 126.464844 241.417969 126.199219 242.402344 125.925781 C 242.550781 125.972656 242.914062 126.042969 242.957031 125.859375 C 243.632812 126.042969 243.886719 126.320312 244.75 126.554688 C 244.75 126.554688 243.414062 125.453125 242.636719 124.730469 C 241.886719 124.207031 241.675781 123.449219 239.785156 123.441406 L 239.78125 123.371094 C 239.261719 123.351562 238.761719 123.195312 238.246094 123.160156 C 238.074219 123.070312 237.878906 123.09375 237.695312 123.105469 C 237.6875 122.9375 237.367188 122.972656 237.25 123.023438 C 237.222656 123 237.164062 122.953125 237.136719 122.925781 C 236.980469 122.929688 236.828125 122.933594 236.679688 122.929688 L 236.679688 122.851562 C 235.464844 122.773438 234.285156 122.332031 233.0625 122.414062 C 232.460938 122.5625 229.007812 123.15625 228.226562 123.191406 L 228.226562 123.273438 C 228.046875 123.277344 227.859375 123.253906 227.695312 123.335938 C 227.039062 123.375 225.140625 123.714844 225.125 123.714844 L 225.125 123.800781 C 225.0625 123.800781 220.25 125.757812 215.886719 128.875 C 215.824219 128.929688 214.414062 132.09375 214.191406 132.710938 C 214.058594 133.148438 213.527344 133.261719 213.335938 133.648438 C 212.96875 133.835938 211.253906 135.199219 210.988281 135.574219 C 210.308594 135.945312 206.5625 138.375 206.5625 138.375 C 206.5 138.402344 201.722656 140.910156 201.515625 141.089844 C 201.332031 141.140625 201.148438 141.199219 200.964844 141.25 C 201.628906 140.664062 206.929688 136.75 207.683594 136.214844 C 210.289062 134.195312 207.761719 136.542969 213.167969 131.164062 C 213.3125 131.015625 213.453125 130.859375 213.515625 130.65625 C 214.648438 127.621094 214.71875 129.316406 215.09375 125.148438 C 215.273438 125.894531 215.375 126.660156 215.507812 127.414062 C 216.324219 127 218.898438 124.851562 221.003906 123.222656 C 221.390625 123.164062 222.890625 122.714844 222.96875 122.683594 C 223.214844 122.664062 223.460938 122.609375 223.6875 122.496094 C 223.910156 122.464844 224.136719 122.421875 224.351562 122.339844 C 224.59375 122.316406 224.839844 122.261719 225.066406 122.15625 C 225.261719 122.125 225.457031 122.078125 225.640625 121.996094 C 225.886719 121.972656 226.132812 121.917969 226.359375 121.808594 C 227.457031 121.605469 228.523438 121.261719 229.59375 120.945312 C 229.84375 121.109375 229.703125 120.609375 229.539062 120.820312 C 229.421875 120.558594 229.1875 120.375 228.980469 120.183594 C 223.101562 115.386719 231.136719 119.933594 212.230469 115.023438 C 211.242188 114.835938 210.285156 114.503906 209.289062 114.355469 C 208.992188 114.222656 207.527344 113.867188 207.023438 113.820312 C 206.828125 113.742188 202.738281 113.949219 202.4375 113.988281 C 196.925781 114.691406 197.316406 113.289062 194.4375 112.632812 C 193.929688 112.359375 189.671875 111.925781 189.609375 111.921875 C 189.300781 111.785156 188.960938 111.875 188.648438 111.933594 M 182.46875 116.277344 C 182.492188 116.554688 182.738281 116.144531 182.46875 116.277344 M 182.707031 116.363281 C 182.71875 116.648438 182.960938 116.230469 182.707031 116.363281 M 244.800781 126.574219 C 244.851562 126.628906 244.851562 126.628906 244.800781 126.574219 M 147.335938 128.519531 C 145.765625 129.273438 144.242188 130.125 142.644531 130.8125 C 142.507812 130.867188 134.3125 138.054688 134.25 138.113281 C 134.070312 138.195312 133.929688 138.328125 133.8125 138.484375 C 132.480469 139.378906 132.644531 139.378906 132.261719 140.207031 C 131.746094 141.535156 131.410156 141.164062 131.625 143.25 C 138.046875 141.238281 136.984375 141.859375 138.246094 139.203125 C 139.402344 136.328125 142.640625 132.484375 142.703125 132.433594 C 146.480469 129.863281 147.363281 129.671875 150.226562 128.320312 C 147.917969 128.203125 147.730469 128.355469 147.335938 128.519531 M 233.382812 134.230469 C 232.445312 134.316406 231.519531 134.476562 230.578125 134.535156 C 230.25 134.644531 229.875 134.515625 229.566406 134.679688 C 228.0625 134.679688 228.179688 134.773438 226.027344 137.40625 C 221.78125 140.496094 224.929688 138.84375 219.488281 141.21875 C 217.796875 141.871094 219.160156 141.238281 215.84375 143.789062 C 214.351562 145.226562 215.378906 143.640625 213.429688 147.421875 C 213.230469 147.78125 213.148438 148.195312 212.945312 148.554688 L 212.960938 148.480469 C 212.128906 150.597656 212.085938 154.878906 207.785156 163.046875 C 208.167969 163.082031 212.339844 162.371094 214.175781 161.3125 C 214.300781 161.25 217.667969 159.566406 217.773438 159.476562 C 218.257812 159.089844 219.625 158.152344 219.804688 158.070312 C 219.71875 158.289062 217.316406 160.886719 217.148438 161.101562 C 216.738281 161.398438 214.898438 162.054688 214.417969 162.457031 C 214.3125 162.382812 214.183594 162.519531 214.132812 162.597656 C 214.054688 162.722656 214.269531 162.75 214.328125 162.675781 L 214.304688 162.734375 C 216.367188 163.210938 215.953125 163.550781 217.21875 163.453125 C 217.246094 163.617188 217.570312 163.613281 217.6875 163.523438 C 218.441406 163.820312 229.355469 165.074219 231.859375 164.191406 C 232.734375 164.078125 235.5 163.308594 235.773438 163.265625 C 236.574219 162.78125 237.265625 162.140625 238.074219 161.675781 C 238.398438 161.382812 239.09375 160.257812 239.425781 160.050781 C 239.398438 160.230469 239.355469 160.40625 239.339844 160.589844 C 239.242188 160.847656 239.203125 161.125 239.160156 161.394531 C 239.066406 161.574219 238.996094 161.769531 238.992188 161.976562 C 238.878906 162.195312 238.816406 162.429688 238.824219 162.675781 C 238.703125 162.75 235.246094 165.980469 233.285156 166.976562 C 243.289062 171 245.394531 174.433594 247.664062 176.78125 C 247.5625 176.75 247.464844 176.722656 247.367188 176.695312 C 247.3125 176.554688 241.996094 172.117188 241.71875 172.125 C 234.421875 168.003906 225.613281 165.867188 224.398438 165.332031 C 223.460938 165.21875 218.957031 164.222656 217.808594 164.066406 C 217.699219 164.042969 209.15625 163.65625 209.082031 163.691406 C 208.964844 163.589844 208.882812 163.609375 208.835938 163.75 C 208.351562 163.695312 206.824219 163.945312 206.753906 163.972656 C 206.511719 163.976562 204.820312 164.164062 204.652344 164.246094 C 204.371094 164.242188 200.082031 164.714844 199.996094 164.773438 C 198.03125 164.828125 188.992188 166.957031 186.292969 167.589844 C 169.925781 172.929688 168.058594 175.703125 160.875 181.261719 C 159.234375 182.40625 159.589844 182.066406 156.117188 187.648438 C 155.691406 188.261719 155.035156 191.246094 154.984375 191.523438 C 154.835938 192.632812 155.195312 193.71875 155.242188 194.820312 C 155.246094 194.824219 156.308594 196.515625 156.3125 196.519531 C 158.238281 197.839844 158.191406 197.167969 160.511719 197.398438 C 160.089844 197.714844 159.179688 199.257812 158.640625 199.613281 C 158.875 199.929688 159 200.320312 159.257812 200.621094 C 160.554688 203.257812 164.023438 205.667969 166.621094 207.015625 C 177.730469 209.8125 175.640625 209.539062 180.402344 208.3125 C 176.199219 204.890625 175.847656 204.808594 175.445312 204.273438 C 178.089844 205.691406 178.042969 206.628906 184.328125 207.253906 C 184.8125 207.382812 188.808594 206.519531 188.867188 206.484375 C 193.894531 204.808594 192.355469 205.4375 193.496094 205.660156 C 194.320312 206.003906 195.226562 206.125 196.117188 206.097656 C 196.375 206.277344 196.710938 206.167969 197.007812 206.207031 C 197.234375 206.308594 197.496094 206.308594 197.722656 206.210938 C 197.960938 206.1875 198.222656 206.242188 198.4375 206.105469 C 200.539062 206.183594 200.523438 205.800781 204.378906 203.277344 C 205.320312 203.550781 206.78125 204.179688 207.066406 204.199219 C 207.257812 204.332031 211.09375 204.570312 211.230469 204.566406 C 212.128906 204.238281 212.640625 204.21875 216.242188 202.8125 C 216.597656 202.652344 217.820312 202.695312 218.152344 202.578125 C 221.574219 202.40625 221.023438 202.398438 224.332031 201.414062 C 227.988281 200.257812 225.730469 201.859375 229.914062 197.046875 C 229.917969 197.09375 229.929688 197.1875 229.9375 197.234375 C 229.917969 197.277344 229.691406 198.925781 229.613281 200.726562 C 230.125 200.722656 230.617188 200.882812 231.121094 200.933594 C 232.171875 201.222656 232.933594 200.800781 234.332031 200.71875 C 238.351562 199.28125 239.117188 198.367188 240.105469 197.261719 C 242.21875 194.8125 240.710938 197.742188 244.324219 191.980469 C 249.363281 183.957031 247.355469 186.355469 249.199219 182.355469 C 249.132812 182.347656 243.199219 181.550781 242.554688 181.445312 C 242.195312 181.363281 228.386719 180.324219 227.152344 181.207031 C 225.46875 181.203125 219.851562 182.257812 218.730469 182.355469 C 218.429688 182.328125 218.140625 182.21875 217.839844 182.234375 C 217.625 182.09375 217.355469 182.152344 217.117188 182.128906 C 213.808594 181.40625 216.289062 182.46875 211.675781 180.164062 C 211.4375 179.996094 202.703125 180.898438 202.496094 181.027344 C 202.304688 181.027344 202.105469 181.019531 201.921875 181.089844 C 201.570312 181.144531 201.175781 181.011719 200.855469 181.203125 C 199.933594 181.136719 194.460938 181.617188 191.726562 182.480469 C 182.992188 182.5625 176.117188 184.308594 169.089844 187.683594 C 166.308594 189.257812 169.589844 186.492188 164.382812 192.21875 C 164.070312 193.460938 163.769531 194.710938 163.421875 195.945312 C 163.359375 194.734375 163.414062 193.523438 163.378906 192.316406 C 163.140625 192.671875 161.359375 195.097656 160.960938 195.246094 C 161.488281 194.5625 163.257812 191.773438 163.347656 191.59375 C 161.808594 191.457031 163.171875 192 160.015625 190.300781 C 159.882812 189.851562 159.777344 189.359375 159.78125 188.878906 C 160.664062 189.101562 161.554688 189.304688 162.433594 189.523438 C 163.007812 189.480469 163.589844 189.394531 164.140625 189.238281 C 164.28125 189.285156 164.65625 189.335938 164.664062 189.140625 C 164.9375 189.089844 165.125 188.839844 165.355469 188.695312 C 170.828125 184.792969 165.753906 187.578125 175.542969 183.613281 C 175.960938 183.519531 184.054688 181.386719 185.230469 180.996094 C 184.496094 179.53125 184.304688 179.519531 183.675781 176.195312 C 183.863281 175.605469 184.828125 173.722656 185.007812 173.464844 C 185.101562 174.59375 185.011719 175.730469 185.058594 176.859375 C 185.339844 177.429688 185.386719 178.085938 185.683594 178.652344 C 185.707031 178.675781 187.921875 180.15625 188.203125 180.273438 C 188.761719 180.472656 191.613281 180.699219 191.871094 180.621094 C 193.542969 180.238281 195.214844 179.863281 196.867188 179.40625 C 197.546875 179.277344 203.542969 179.980469 204.472656 179.292969 C 205.019531 179.308594 210.746094 178.722656 211.140625 178.671875 C 211.367188 178.179688 212.121094 175.226562 212.136719 175.164062 C 213.0625 174.84375 213.9375 174.378906 214.871094 174.085938 C 214.414062 174.90625 213.789062 175.621094 213.261719 176.398438 C 213.195312 177.164062 213.089844 177.929688 212.882812 178.675781 C 216.113281 181.453125 217.40625 180.84375 223.230469 180.160156 C 235.328125 178.894531 242.265625 179.988281 242.84375 179.984375 C 242.914062 180.03125 247.164062 180.539062 247.878906 180.492188 L 247.875 180.601562 C 248.164062 180.601562 248.449219 180.597656 248.738281 180.613281 C 248.871094 180.671875 249.015625 180.671875 249.160156 180.683594 C 249.140625 180.621094 248.542969 178.917969 248.5 178.65625 C 249.15625 179.210938 249.5 179.410156 250.21875 180.011719 C 252.417969 177.828125 257.949219 176.234375 259.042969 175.363281 C 259.042969 175.363281 261.277344 170.34375 261.34375 170.214844 C 261.679688 170.210938 262.015625 170.207031 262.355469 170.214844 C 262.355469 170.214844 260.742188 175.75 260.695312 175.878906 C 259.714844 176.433594 258.648438 176.808594 257.65625 177.339844 C 251.65625 180.285156 253.054688 179.519531 252.382812 180.523438 C 248.011719 187.488281 249.367188 185.042969 247.761719 191.019531 C 247.5625 191.96875 247.597656 191.246094 248.101562 192.917969 C 248.328125 193.320312 247.6875 193.230469 251.921875 193.226562 C 251.960938 193.269531 257.953125 198.609375 258.105469 198.703125 C 262.734375 199.507812 260.628906 199.714844 262.234375 198.96875 C 263.234375 198.480469 268.15625 192.800781 268.066406 185.640625 C 268.578125 184.527344 267.464844 181.898438 267.246094 181.105469 C 265.726562 181.953125 264.265625 182.90625 262.6875 183.636719 C 267.574219 179.601562 265.699219 181.894531 267.816406 178.875 C 268.042969 178.414062 267.980469 177.894531 267.984375 177.402344 C 268.03125 177.242188 268.070312 177.078125 268.078125 176.910156 C 268.207031 176.539062 268.148438 176.136719 268.148438 175.75 L 268.03125 175.757812 C 267.554688 172.828125 267.75 175.890625 267.277344 171 C 267.230469 170.375 267.414062 169.757812 267.367188 169.132812 C 267.53125 168.824219 267.453125 168.46875 267.457031 168.136719 C 267.609375 167.515625 267.632812 167.6875 266.941406 166.984375 C 266.730469 166.625 266.082031 166.058594 265.789062 166.074219 C 265.898438 165.851562 265.398438 165.84375 265.507812 166.0625 L 265.445312 166.058594 C 265.222656 166.402344 264.972656 166.730469 264.675781 167.015625 C 263.015625 167.023438 261.351562 167.015625 259.691406 167.019531 L 259.707031 167.113281 L 259.632812 167.113281 C 259.191406 168.265625 257.65625 171.132812 257.472656 171.53125 C 257.410156 171.578125 253.289062 174.128906 253.117188 174.210938 C 253.203125 174.046875 255.898438 171.113281 255.960938 171.054688 C 256.199219 170.660156 256.660156 170.425781 256.789062 169.964844 C 257.15625 168.992188 258.085938 167.128906 258.046875 166.746094 C 258.21875 166.746094 258.1875 166.417969 258.136719 166.296875 C 258.28125 166.097656 258.136719 166.273438 258.398438 164.773438 C 258.109375 164.265625 256.441406 162.339844 256.042969 162.054688 L 256.117188 162.070312 C 256.003906 162.035156 254.941406 161.742188 254.640625 161.726562 C 254.160156 161.558594 253.648438 161.507812 253.15625 161.386719 C 253.164062 160.882812 253.453125 160.425781 253.40625 159.761719 C 253.449219 159.738281 253.53125 159.6875 253.574219 159.660156 C 257.378906 161.859375 257.382812 160.566406 260.167969 164.667969 C 260.5625 164.738281 260.949219 164.832031 261.335938 164.917969 C 261.660156 164.851562 264.082031 164.027344 264.378906 163.5 C 264.613281 163.140625 265.171875 163.019531 265.242188 162.554688 C 265.34375 162.277344 265.398438 160.097656 265.40625 160.035156 C 265.519531 159.75 265.464844 159.433594 265.476562 159.132812 C 265.628906 159.121094 265.628906 158.671875 265.480469 158.652344 C 265.476562 158.613281 265.46875 158.535156 265.46875 158.496094 C 263.539062 153.273438 263.503906 153.710938 262.972656 153.359375 C 261.921875 152.6875 260.996094 151.839844 259.945312 151.171875 C 258.414062 152.679688 253.984375 158.261719 253.851562 158.476562 C 253.421875 158.648438 252.964844 158.777344 252.535156 158.957031 C 252.316406 158.976562 252.105469 159.039062 251.910156 159.136719 C 251.535156 159.210938 251.199219 159.394531 250.84375 159.515625 C 250.726562 160.042969 250.484375 160.523438 250.246094 161.003906 C 250.179688 161.324219 250.203125 161.664062 250.230469 161.988281 C 250.371094 162.339844 250.492188 162.703125 250.570312 163.074219 C 250.558594 163.070312 248.269531 162.0625 248.242188 162.054688 C 248.203125 161.386719 248.238281 160.714844 248.226562 160.046875 C 248.289062 159.992188 249.695312 158.710938 249.886719 158.390625 C 250.027344 158.371094 250.175781 158.378906 250.308594 158.3125 C 253.128906 157.96875 252.984375 157.578125 254.847656 155.761719 C 255.394531 155.226562 255.640625 154.480469 256.046875 153.851562 C 257.492188 151.527344 257.34375 150.980469 258.054688 149.214844 C 257.9375 148.957031 257.871094 148.683594 257.867188 148.398438 L 257.828125 148.339844 C 257.292969 145.730469 257.8125 146.761719 254.402344 143.96875 C 249.738281 142.222656 252.742188 141.484375 248.101562 142.847656 C 243.265625 146.242188 247.636719 143.394531 243.128906 148.589844 C 239.523438 153.894531 242.222656 149.363281 239.777344 155.261719 C 239.640625 155.589844 240.167969 156.851562 240.195312 156.914062 C 240.207031 157.191406 240.269531 157.464844 240.375 157.71875 C 240.375 157.765625 240.378906 157.847656 240.378906 157.894531 C 240.105469 157.652344 238.765625 155.878906 238.683594 155.667969 C 238.636719 154.875 238.339844 154.101562 238.410156 153.304688 C 238.578125 153.070312 240.957031 148.515625 243.246094 146.285156 C 243.300781 146.15625 243.8125 144.5 243.855469 144.203125 C 244.042969 143.835938 244.082031 143.417969 244.234375 143.042969 C 244.292969 142.769531 246.8125 141.648438 247.808594 140.980469 C 247.683594 140.773438 245.0625 137.097656 244.671875 136.957031 C 244.609375 136.929688 241.269531 135.429688 241.074219 135.292969 C 240.996094 135.238281 240.914062 135.210938 240.820312 135.21875 L 240.816406 135.113281 C 240.535156 135.113281 240.25 135.121094 239.96875 135.097656 C 239.921875 135.078125 237.089844 134.636719 236.421875 134.597656 L 236.421875 134.519531 C 235.644531 134.484375 234.882812 134.292969 234.109375 134.230469 C 233.878906 134.128906 233.609375 134.132812 233.382812 134.230469 M 251.183594 138.425781 C 250.804688 138.828125 250.375 139.1875 250.023438 139.617188 C 250.195312 140.035156 250.386719 140.453125 250.652344 140.820312 C 251.417969 140.792969 252.175781 140.910156 252.929688 141.027344 C 254.488281 142.074219 257.761719 143.976562 257.761719 143.976562 C 258.027344 144.308594 259.449219 146.726562 259.675781 147.144531 C 259.851562 148.015625 259.9375 148.90625 260.0625 149.789062 C 260.101562 149.800781 260.175781 149.824219 260.210938 149.835938 L 260.222656 149.882812 C 261.046875 150.203125 261.761719 150.746094 262.589844 151.066406 C 263.179688 151.542969 263.800781 151.980469 264.398438 152.449219 C 264.574219 151.917969 264.613281 151.34375 264.871094 150.84375 C 260.15625 141.355469 262.496094 145.503906 260.976562 143.515625 C 260.722656 143.148438 260.359375 142.875 260.132812 142.488281 C 260.015625 142.394531 259.890625 142.308594 259.757812 142.246094 C 260.011719 143.074219 260.582031 144.828125 260.703125 145.710938 C 260.378906 145.316406 257.796875 140.484375 257.769531 140.421875 C 255.15625 138.042969 254.335938 138.304688 252.199219 137.4375 C 251.828125 137.730469 251.527344 138.101562 251.183594 138.425781 M 258.078125 138.160156 C 258.128906 138.214844 258.128906 138.214844 258.078125 138.160156 M 133.863281 143.832031 C 133.574219 143.816406 131.554688 144.402344 131.363281 144.488281 C 128.230469 145.902344 129.199219 145.382812 127.03125 147.929688 C 126.660156 148.367188 126.546875 148.1875 125.550781 150.074219 C 124.722656 151.621094 124.808594 151.074219 124.789062 151.972656 C 124.808594 152.710938 124.53125 154.734375 125.410156 156.011719 C 129.671875 155.863281 127.855469 154.390625 129.304688 153.554688 C 128.65625 152.238281 128.941406 152.203125 128.644531 150.945312 C 128.609375 150.75 128.523438 150.523438 128.671875 150.351562 C 130.285156 147.84375 129.667969 147.785156 131.796875 146.136719 C 131.921875 146.042969 133.824219 144.269531 134.121094 143.90625 C 134.4375 143.824219 133.886719 143.585938 133.863281 143.832031 M 263.46875 145.363281 C 265.941406 150.585938 267.613281 150.710938 265.738281 154.214844 C 267.230469 158.179688 266.679688 158.585938 267.269531 160.289062 C 267.28125 160.535156 267.265625 160.789062 267.339844 161.027344 L 267.359375 160.941406 C 267.332031 161.117188 267.382812 160.820312 266.964844 162.875 C 267.035156 163.234375 267.820312 164.960938 268.261719 166.25 L 268.308594 166.238281 C 268.367188 166.457031 268.445312 166.675781 268.542969 166.886719 C 268.585938 166.632812 268.628906 166.378906 268.65625 166.121094 C 268.78125 165.980469 269.425781 163.425781 269.527344 162.003906 L 269.433594 162.003906 C 269.472656 160.898438 268.902344 156.914062 268.726562 154.808594 L 268.6875 154.730469 C 268.46875 151.339844 267.855469 150.253906 266.265625 147.289062 C 265.609375 146.742188 264.03125 145.675781 263.738281 145.558594 C 263.757812 145.421875 263.546875 145.429688 263.46875 145.363281 M 130.875 154.636719 C 129.109375 155.324219 129.828125 155.109375 129.398438 157.050781 C 129.382812 157.113281 129.183594 161.882812 128.359375 163.179688 C 127.4375 164.671875 126.601562 166.914062 126.851562 168.730469 C 127.21875 171.015625 126.757812 169.75 128.058594 171.507812 C 128.296875 171.855469 130.777344 173.78125 131.324219 173.941406 C 133.480469 174.703125 134.023438 175.0625 135.003906 175.351562 C 143.003906 177.6875 139.289062 177.378906 144.421875 177.378906 C 142.917969 176.175781 143.300781 175.8125 141.554688 175.183594 C 136.5625 173.675781 136.820312 174.042969 132.921875 171.214844 C 132.496094 170.8125 132.28125 170.25 131.921875 169.796875 C 131.0625 168.46875 131.835938 170.296875 129.96875 166.0625 C 129.902344 165.136719 130.183594 164.238281 130.242188 163.324219 C 130.597656 162.964844 130.933594 162.589844 131.316406 162.261719 C 131.0625 164.75 130.214844 166.429688 133.707031 170.597656 C 134.96875 172.285156 144.351562 174.589844 145.359375 175.6875 C 148.859375 179.378906 153.523438 180.652344 158.558594 180.894531 C 159.625 180.953125 158.964844 180.84375 160.457031 179.636719 C 160.457031 179.636719 162.566406 178.117188 162.566406 178.117188 C 163.378906 177.078125 163.589844 175.066406 163.636719 174.816406 C 163.332031 174.632812 163.035156 174.445312 162.730469 174.265625 C 162.484375 175.070312 162.300781 176.683594 161.824219 177.023438 C 159.804688 178.558594 160.425781 178.339844 159.566406 178.480469 C 159.191406 178.519531 156.292969 178.796875 155.640625 178.691406 C 150.625 178.496094 151.78125 178.5625 149.878906 177.382812 C 147.101562 175.707031 147.875 175.925781 146.75 174.722656 C 146.503906 174.375 146.144531 174.117188 145.90625 173.761719 C 145.660156 173.234375 145.457031 172.6875 145.199219 172.167969 C 145.121094 172.175781 145.042969 172.183594 144.964844 172.191406 C 144.957031 172.164062 143.035156 167.378906 143.035156 167.378906 C 140.105469 167.042969 135.609375 167.589844 134.191406 158.886719 C 134.292969 157.484375 134.363281 156.078125 134.503906 154.679688 C 133.582031 155.011719 132.042969 154.214844 130.875 154.636719 M 127.171875 157.214844 C 126.46875 157.613281 125.660156 157.789062 124.996094 158.25 C 124.996094 158.25 123.480469 160.96875 123.480469 160.96875 C 122.167969 163.644531 122.707031 163.128906 121.917969 165.007812 C 121.773438 165.347656 121.78125 168.699219 121.898438 169.125 C 122.230469 171.347656 121.847656 170.839844 123.222656 173.21875 C 123.167969 173.304688 123.265625 173.46875 123.371094 173.449219 C 123.445312 173.40625 123.523438 173.300781 123.476562 173.21875 C 123.835938 172.664062 123.875 172.042969 125.054688 170.933594 C 125.074219 165.730469 124.933594 168.058594 125.742188 165.402344 C 125.957031 164.546875 127.28125 162.207031 127.363281 162.09375 C 127.875 161.34375 127.453125 162.050781 127.824219 157.144531 C 127.605469 157.140625 127.382812 157.144531 127.171875 157.214844 M 270.742188 159.523438 C 270.707031 159.753906 270.714844 160 270.863281 160.191406 C 270.765625 160.820312 270.839844 161.460938 270.816406 162.09375 L 270.90625 162.097656 C 270.957031 163.0625 270.542969 165.355469 269.875 166.765625 C 269.308594 168.136719 268.808594 168.738281 268.855469 169.082031 C 269.921875 178.644531 269.792969 172.703125 269.039062 180.1875 C 268.988281 180.875 268.667969 180.871094 269.59375 183.367188 C 269.683594 186.273438 269.441406 187.742188 269.441406 187.742188 C 270.691406 185.800781 271.332031 180.769531 271.089844 180.15625 C 271.042969 179.601562 271.1875 179.019531 270.996094 178.488281 C 270.972656 178.066406 271.035156 177.628906 270.914062 177.21875 C 270.90625 176.917969 270.96875 176.597656 270.8125 176.324219 C 270.859375 174.234375 271.480469 166.664062 271.394531 165.203125 C 271.460938 165.097656 271.464844 164.9375 271.410156 164.824219 C 271.433594 164.800781 271.476562 164.75 271.496094 164.722656 C 271.457031 164.605469 271.15625 161.023438 271.105469 160.953125 C 271.050781 160.722656 271.03125 160.46875 270.910156 160.261719 C 270.90625 160.007812 270.828125 159.761719 270.742188 159.523438 M 273.078125 165.785156 C 271.847656 170.554688 273.191406 180.277344 272.613281 182.132812 C 271.921875 185.847656 272.933594 185.820312 264.53125 199.191406 C 263.972656 200.070312 264.210938 200.0625 262.726562 200.769531 C 262.703125 201.332031 262.757812 201.894531 262.6875 202.453125 C 262.105469 205.167969 262.3125 205.722656 262 206.074219 C 259.675781 208.582031 261.761719 207.621094 256.960938 208.632812 C 256.625 208.710938 256.28125 208.699219 255.9375 208.703125 C 255.277344 208.355469 252.847656 208.847656 251.566406 207.945312 C 251.277344 207.734375 248.789062 205.9375 247.925781 205.460938 C 247.332031 205.332031 246.71875 205.25 246.109375 205.234375 C 245.804688 205.085938 245.457031 205.148438 245.132812 205.136719 C 238.769531 202.65625 244.269531 205.542969 238.15625 201.082031 C 237.125 201.695312 236.015625 202.167969 234.960938 202.734375 C 235.957031 204.582031 234.308594 203.046875 237.789062 205.851562 C 238.292969 206.171875 238.851562 206.398438 239.378906 206.675781 C 240.820312 207.328125 240.484375 207.652344 242.25 207.667969 C 242.667969 207.816406 244.734375 207.777344 245.167969 207.875 C 245.507812 207.925781 249.460938 209.105469 251.910156 210.710938 C 252.125 210.863281 255.511719 211.476562 255.785156 211.472656 C 256.105469 211.601562 256.476562 211.609375 256.796875 211.46875 C 263.101562 209.761719 260.335938 211.1875 264.679688 208.074219 C 265.242188 207.683594 265.757812 207.214844 266.363281 206.886719 C 265.9375 207.625 265.3125 208.214844 264.800781 208.886719 C 263.976562 209.859375 264.304688 210.355469 259.324219 212.476562 C 260.53125 212.5 261.746094 212.507812 262.953125 212.476562 C 267.117188 210.351562 267.984375 208.476562 268.984375 207.550781 C 269.039062 207.5 271.976562 203.425781 272.105469 203.1875 C 272.28125 203.007812 272.519531 202.78125 272.433594 202.5 C 272.664062 201.078125 272.753906 199.632812 273.0625 198.226562 C 270.902344 201.066406 268.847656 203.367188 268.847656 203.367188 C 269.289062 202.511719 271.804688 198.101562 272.605469 196.234375 L 272.714844 196.25 C 272.714844 196.210938 272.71875 189.867188 272.726562 189.828125 C 273.296875 190.59375 273.515625 191.570312 274.128906 192.304688 C 274.3125 191.535156 275.464844 186.09375 275.480469 185.351562 C 275.460938 178.589844 275.527344 178.914062 275.398438 178.574219 C 275.375 177.15625 275 174.589844 274.953125 174.507812 C 274.804688 170 273.816406 167.878906 273.078125 165.785156 M 126.425781 172.992188 C 126.140625 173.6875 126.035156 174.441406 125.816406 175.160156 C 125.679688 175.464844 126.496094 177.625 126.730469 178.027344 C 132.367188 181.644531 129.726562 177.867188 144.175781 181.984375 C 146.433594 182.824219 150.527344 186.191406 150.527344 186.191406 C 150.707031 186.398438 151.003906 186.316406 151.242188 186.324219 C 151.429688 186.367188 151.621094 186.382812 151.8125 186.394531 C 152.851562 186.800781 154.019531 186.4375 155.023438 185.953125 C 154.945312 185.824219 152.714844 182.214844 152.25 182.007812 C 152.214844 181.988281 145.855469 178.84375 145.816406 178.851562 C 140.3125 179.636719 141.285156 179.375 140.0625 179.207031 C 139.816406 179.074219 139.535156 179.023438 139.257812 179.019531 C 138.75 178.828125 138.210938 178.765625 137.691406 178.625 C 133.121094 177.628906 133.230469 177.078125 130.636719 176.1875 C 128.539062 175.507812 128.449219 174.941406 128.074219 174.605469 C 127.523438 174.070312 127.003906 173.5 126.425781 172.992188 M 124.121094 176.511719 C 124.105469 176.742188 124.039062 179 124.175781 179.296875 C 125.324219 181.960938 124.660156 181.320312 125.808594 182.238281 C 127.578125 183.644531 127.691406 183.664062 127.875 183.707031 C 130.058594 184.234375 130.789062 184.996094 133.550781 185.203125 C 144.226562 186.65625 142.5625 187.445312 151.871094 190.832031 C 152.425781 190.859375 152.972656 190.714844 153.523438 190.667969 C 153.660156 189.964844 153.910156 189.28125 153.996094 188.566406 C 152.09375 188.542969 153.054688 189.621094 148.285156 186.066406 C 143.960938 182.78125 145.042969 183.578125 141.117188 182.453125 C 139.3125 181.984375 135.125 181.246094 134.515625 181.265625 C 134.394531 181.222656 134.265625 181.203125 134.136719 181.191406 L 134.058594 181.128906 C 133.421875 181 129.808594 181.21875 129.378906 181.003906 C 129.316406 180.972656 126.609375 179.679688 126.484375 179.570312 C 124.941406 178.199219 124.722656 178.253906 124.605469 177.917969 C 124.429688 177.453125 124.332031 176.960938 124.121094 176.511719 M 269.363281 187.792969 C 269.222656 188.050781 269.648438 187.8125 269.363281 187.792969 M 239.464844 200.113281 C 242.414062 203.238281 241.957031 202.675781 244.351562 203.417969 C 246.269531 203.847656 244.023438 203.65625 248.566406 203.019531 C 249.148438 203.882812 249.910156 204.609375 250.503906 205.464844 C 250.925781 206.113281 251.722656 206.296875 252.382812 206.605469 C 253.691406 207.101562 253.738281 207.59375 255.304688 207.574219 L 255.304688 207.476562 C 255.695312 207.5 258.183594 207.265625 258.308594 207.214844 C 259.078125 206.878906 259.859375 206.574219 260.625 206.234375 C 260.945312 205.089844 261.003906 203.890625 261.308594 202.742188 C 261.066406 201.984375 260.621094 201.308594 260.417969 200.535156 C 256.351562 199.375 257.519531 200.613281 256.003906 198.996094 C 255.847656 198.84375 252.945312 195.632812 252.757812 195.515625 C 251.59375 195.320312 250.976562 194.917969 247.441406 194.449219 C 247.023438 194.394531 246.613281 194.308594 246.207031 194.210938 C 246.050781 193.683594 245.929688 193.144531 245.792969 192.609375 C 245.023438 194.089844 239.511719 200.050781 239.464844 200.113281 Z M 239.464844 200.113281 " fill-opacity="1" fill-rule="nonzero"/></g><g clip-path="url(#id7)"><path fill="#000000" d="M 216.542969 120.984375 C 215.949219 121.078125 215.371094 120.882812 214.785156 120.839844 C 209.476562 120.125 212.167969 120.359375 207.714844 121.285156 C 207.273438 121.394531 207.460938 121.09375 205.367188 123.699219 C 205.3125 125.175781 205.453125 126.402344 205.261719 126.867188 C 204.46875 128.816406 204.824219 128.828125 204.074219 129.480469 C 203.609375 129.867188 203.195312 130.324219 202.65625 130.613281 C 202.820312 129.660156 204.203125 127.683594 203.597656 125.835938 C 202.480469 123.492188 203.289062 124.019531 200.453125 122.335938 C 197.992188 120.816406 198.539062 121.507812 194.898438 121.0625 C 194.117188 120.910156 193.542969 121.554688 188.921875 123.691406 C 188.511719 123.355469 188.101562 123.007812 187.652344 122.730469 C 181.710938 121.695312 178.722656 123.984375 175.933594 125.8125 C 174.714844 126.703125 172.261719 127.328125 169.683594 128.511719 C 169.441406 128.574219 164.660156 129.292969 164.125 129.199219 C 161.78125 128.527344 161.503906 128.585938 160.371094 128.234375 C 172.390625 127.945312 171.34375 126.296875 176.042969 124.019531 C 177.675781 123.128906 180.332031 121.589844 180.90625 121.496094 C 185.5625 120.644531 182.289062 119.9375 188.449219 120.730469 C 189.074219 120.816406 189.714844 121.105469 190.332031 120.8125 C 191.253906 120.496094 192.199219 120.21875 193.058594 119.75 C 194.796875 119.238281 200.800781 120.050781 202.605469 120.535156 C 205.15625 121.203125 204.65625 115.839844 216.542969 120.984375 Z M 216.542969 120.984375 " fill-opacity="1" fill-rule="nonzero"/></g><path fill="#000000" d="M 186.671875 126.539062 C 185.054688 134.257812 185.785156 134.097656 186.328125 136.496094 C 184.265625 134.769531 184.628906 134.769531 184.34375 132.003906 C 184.328125 131.90625 184.109375 128.898438 186.671875 126.539062 Z M 186.671875 126.539062 " fill-opacity="1" fill-rule="nonzero"/><g clip-path="url(#id8)"><path fill="#000000" d="M 197.695312 185.65625 C 197.695312 185.65625 202.40625 189.199219 202.40625 189.199219 C 208.957031 191.910156 207.253906 191.007812 209.816406 191.367188 C 211.507812 191.644531 212.105469 191.664062 215.207031 190.648438 C 215.789062 190.628906 214.6875 188.988281 214.410156 187.496094 C 215.03125 187.882812 214.941406 187.964844 218.09375 190.503906 C 218.851562 190.804688 221.425781 191.003906 223.191406 191.4375 C 224.445312 191.671875 224.859375 191.3125 229.503906 191.121094 C 242.253906 187.53125 236.992188 188.605469 242.664062 186.632812 C 242.601562 186.695312 238.148438 190.320312 237.664062 190.578125 C 237.605469 190.613281 234.914062 192.179688 234.765625 192.335938 C 234.425781 193.140625 233.496094 194.886719 233.496094 194.886719 C 233.425781 194.101562 233.148438 192.363281 233.140625 192.304688 C 233.078125 192.308594 225.644531 193.71875 221.167969 192.691406 C 221.105469 192.679688 216.609375 191.660156 216.089844 191.625 C 214.980469 192.128906 213.480469 192.988281 213.234375 192.964844 C 208.171875 192.976562 208.394531 192.980469 208.128906 192.886719 C 207.550781 192.699219 203.761719 191.839844 201.417969 190.625 C 195.566406 193.828125 191.753906 193.3125 188.484375 193.308594 C 187.410156 193.082031 186.390625 192.652344 185.355469 192.292969 C 184.53125 191.726562 183.707031 191.15625 182.929688 190.53125 C 188.421875 192.066406 188.84375 193.023438 196.089844 191.417969 C 196.53125 191.296875 197 191.246094 197.394531 191 C 198.335938 190.367188 199.394531 189.929688 200.296875 189.230469 C 199.464844 188.015625 198.527344 186.871094 197.695312 185.65625 Z M 197.695312 185.65625 " fill-opacity="1" fill-rule="nonzero"/></g><g clip-path="url(#id9)"><path fill="#000000" d="M 184.804688 194.785156 C 181.566406 197.066406 181.15625 196.898438 181.257812 197.171875 C 181.714844 197.5 183.730469 198.527344 184.050781 198.707031 C 185.851562 199.117188 186.730469 199.992188 191.246094 200.042969 C 200.800781 200.011719 203.027344 198.347656 209.558594 196.457031 C 209.941406 196.378906 210.269531 196.105469 210.675781 196.15625 C 208.097656 197.402344 201.691406 200.167969 196.832031 201.414062 C 192.101562 201.804688 185.273438 202.1875 181.070312 199.964844 C 179.464844 199.15625 178.394531 197.714844 177.890625 197.8125 C 175.488281 198.253906 172.707031 198.367188 167.726562 201.96875 C 166.332031 202.832031 167.238281 202.304688 164.699219 202.796875 C 163.964844 202.648438 163.269531 202.355469 162.582031 202.0625 C 167.128906 201.78125 164.589844 202.507812 166.871094 201.285156 C 169.195312 199.941406 168.246094 200.042969 171.550781 197.851562 C 171.613281 197.8125 173.863281 196.445312 174.140625 196.386719 C 180.496094 194.976562 177.828125 195.207031 181.996094 194.917969 C 182.136719 194.886719 183.929688 194.738281 184.804688 194.785156 Z M 184.804688 194.785156 " fill-opacity="1" fill-rule="nonzero"/></g><g clip-path="url(#id10)"><g clip-path="url(#id11)"><path fill="#ffeef1" d="M 204.152344 213.613281 L 252.917969 201.042969 C 257.332031 199.90625 262.023438 200.574219 265.953125 202.902344 C 269.882812 205.230469 272.734375 209.027344 273.875 213.460938 L 298.765625 310.039062 C 299.910156 314.46875 299.25 319.171875 296.933594 323.109375 C 294.617188 327.046875 290.835938 329.898438 286.421875 331.035156 L 237.65625 343.605469 C 233.242188 344.742188 228.550781 344.074219 224.621094 341.746094 C 220.691406 339.417969 217.839844 335.621094 216.699219 331.191406 L 191.808594 234.609375 C 190.664062 230.179688 191.324219 225.476562 193.640625 221.539062 C 195.957031 217.601562 199.738281 214.75 204.152344 213.613281 " fill-opacity="1" fill-rule="nonzero"/></g></g><g clip-path="url(#id12)"><g clip-path="url(#id13)"><path fill="#ffeef1" d="M 140.9375 222.78125 L 189.703125 210.210938 C 194.117188 209.074219 198.8125 209.757812 202.75 212.109375 C 206.683594 214.464844 209.542969 218.296875 210.695312 222.761719 L 210.808594 223.210938 C 211.960938 227.675781 211.3125 232.414062 209.003906 236.375 C 206.695312 240.339844 202.914062 243.207031 198.5 244.34375 L 149.734375 256.910156 C 145.320312 258.050781 140.625 257.367188 136.6875 255.011719 C 132.75 252.660156 129.894531 248.828125 128.742188 244.359375 L 128.625 243.914062 C 127.476562 239.445312 128.125 234.710938 130.433594 230.746094 C 132.742188 226.785156 136.523438 223.917969 140.9375 222.78125 " fill-opacity="1" fill-rule="nonzero"/></g></g><g clip-path="url(#id14)"><path fill="#ffeef1" d="M 214.90625 80.046875 L 265.261719 80.046875 C 269.824219 80.046875 274.199219 81.863281 277.421875 85.089844 C 280.648438 88.316406 282.460938 92.695312 282.460938 97.261719 L 282.460938 203.832031 C 282.460938 208.398438 280.648438 212.773438 277.421875 216.003906 C 274.199219 219.230469 269.824219 221.042969 265.261719 221.042969 L 214.90625 221.042969 C 210.34375 221.042969 205.96875 219.230469 202.746094 216.003906 C 199.519531 212.773438 197.710938 208.398438 197.710938 203.832031 L 197.710938 97.261719 C 197.710938 92.695312 199.519531 88.316406 202.746094 85.089844 C 205.96875 81.863281 210.34375 80.046875 214.90625 80.046875 " fill-opacity="1" fill-rule="nonzero"/></g><g clip-path="url(#id15)"><path stroke-linecap="butt" transform="matrix(0.229051, 0, 0, 0.229304, 114.136631, 48.641726)" fill="none" stroke-linejoin="round" d="M 254.617188 253.633173 C 117.161631 251.16306 -10.027394 466.113959 360.55688 688.986254 C 360.949123 688.253738 362.518095 688.253738 362.927392 688.986254 C 745.449494 458.92508 597.590973 237.347465 455.547879 254.587147 C 400.173414 261.316075 374.046626 292.047682 361.733609 318.486404 C 349.420593 292.047682 323.293805 261.316075 267.919339 254.587147 C 263.485289 254.059054 259.051238 253.718349 254.617188 253.633173 Z M 254.617188 253.633173 " stroke="#000000" stroke-width="3.8" stroke-opacity="1" stroke-miterlimit="4"/></g><g clip-path="url(#id16)"><path fill="#ffeef1" d="M 210.964844 96.644531 C 210.964844 97.332031 210.929688 98.015625 210.863281 98.699219 C 210.792969 99.386719 210.695312 100.066406 210.558594 100.738281 C 210.425781 101.414062 210.257812 102.082031 210.058594 102.738281 C 209.859375 103.398438 209.628906 104.042969 209.363281 104.679688 C 209.101562 105.3125 208.808594 105.933594 208.484375 106.542969 C 208.160156 107.148438 207.804688 107.738281 207.425781 108.308594 C 207.042969 108.882812 206.632812 109.433594 206.195312 109.964844 C 205.761719 110.496094 205.300781 111.003906 204.8125 111.492188 C 204.328125 111.976562 203.816406 112.441406 203.285156 112.875 C 202.753906 113.3125 202.203125 113.722656 201.628906 114.101562 C 201.058594 114.484375 200.46875 114.839844 199.863281 115.164062 C 199.257812 115.488281 198.636719 115.78125 198 116.042969 C 197.363281 116.308594 196.71875 116.539062 196.058594 116.738281 C 195.402344 116.9375 194.734375 117.105469 194.058594 117.238281 C 193.386719 117.375 192.707031 117.472656 192.023438 117.542969 C 191.335938 117.609375 190.652344 117.644531 189.964844 117.644531 C 189.277344 117.644531 188.589844 117.609375 187.90625 117.542969 C 187.21875 117.472656 186.542969 117.375 185.867188 117.238281 C 185.191406 117.105469 184.527344 116.9375 183.867188 116.738281 C 183.210938 116.539062 182.5625 116.308594 181.925781 116.042969 C 181.292969 115.78125 180.671875 115.488281 180.0625 115.164062 C 179.457031 114.839844 178.867188 114.484375 178.296875 114.101562 C 177.722656 113.722656 177.171875 113.3125 176.640625 112.875 C 176.109375 112.441406 175.601562 111.976562 175.113281 111.492188 C 174.628906 111.003906 174.167969 110.496094 173.730469 109.964844 C 173.292969 109.433594 172.882812 108.882812 172.503906 108.308594 C 172.121094 107.738281 171.765625 107.148438 171.441406 106.542969 C 171.117188 105.933594 170.824219 105.3125 170.5625 104.679688 C 170.296875 104.042969 170.066406 103.398438 169.867188 102.738281 C 169.667969 102.082031 169.5 101.414062 169.367188 100.738281 C 169.234375 100.066406 169.132812 99.386719 169.066406 98.699219 C 168.996094 98.015625 168.964844 97.332031 168.964844 96.644531 C 168.964844 95.953125 168.996094 95.269531 169.066406 94.585938 C 169.132812 93.898438 169.234375 93.21875 169.367188 92.546875 C 169.5 91.871094 169.667969 91.203125 169.867188 90.546875 C 170.066406 89.886719 170.296875 89.242188 170.5625 88.605469 C 170.824219 87.972656 171.117188 87.351562 171.441406 86.742188 C 171.765625 86.136719 172.121094 85.546875 172.503906 84.976562 C 172.882812 84.402344 173.292969 83.851562 173.730469 83.320312 C 174.167969 82.789062 174.628906 82.28125 175.113281 81.792969 C 175.601562 81.308594 176.109375 80.847656 176.640625 80.410156 C 177.171875 79.972656 177.722656 79.5625 178.296875 79.183594 C 178.867188 78.800781 179.457031 78.445312 180.0625 78.121094 C 180.671875 77.796875 181.292969 77.503906 181.925781 77.242188 C 182.5625 76.976562 183.210938 76.746094 183.867188 76.546875 C 184.527344 76.347656 185.191406 76.179688 185.867188 76.046875 C 186.542969 75.910156 187.21875 75.8125 187.90625 75.742188 C 188.589844 75.675781 189.277344 75.644531 189.964844 75.644531 C 190.652344 75.644531 191.335938 75.675781 192.023438 75.742188 C 192.707031 75.8125 193.386719 75.910156 194.058594 76.046875 C 194.734375 76.179688 195.402344 76.347656 196.058594 76.546875 C 196.71875 76.746094 197.363281 76.976562 198 77.242188 C 198.636719 77.503906 199.257812 77.796875 199.863281 78.121094 C 200.46875 78.445312 201.058594 78.800781 201.628906 79.183594 C 202.203125 79.5625 202.753906 79.972656 203.285156 80.410156 C 203.816406 80.847656 204.328125 81.308594 204.8125 81.792969 C 205.300781 82.28125 205.761719 82.789062 206.195312 83.320312 C 206.632812 83.851562 207.042969 84.402344 207.425781 84.976562 C 207.804688 85.546875 208.160156 86.136719 208.484375 86.742188 C 208.808594 87.351562 209.101562 87.972656 209.363281 88.605469 C 209.628906 89.242188 209.859375 89.886719 210.058594 90.546875 C 210.257812 91.203125 210.425781 91.871094 210.558594 92.546875 C 210.695312 93.21875 210.792969 93.898438 210.863281 94.585938 C 210.929688 95.269531 210.964844 95.953125 210.964844 96.644531 Z M 210.964844 96.644531 " fill-opacity="1" fill-rule="nonzero"/></g></svg>