<svg xmlns="http://www.w3.org/2000/svg" xmlns:xlink="http://www.w3.org/1999/xlink" width="500" zoomAndPan="magnify" viewBox="0 0 375 374.999991" height="500" preserveAspectRatio="xMidYMid meet" version="1.0"><defs><clipPath id="id1"><path d="M 31.78125 22.0625 L 362.363281 22.0625 L 362.363281 352.644531 L 31.78125 352.644531 Z M 31.78125 22.0625 " clip-rule="nonzero"/></clipPath><clipPath id="id2"><path d="M 71 60.007812 L 305.898438 60.007812 L 305.898438 314.90625 L 71 314.90625 Z M 71 60.007812 " clip-rule="nonzero"/></clipPath><clipPath id="id3"><path d="M 101.519531 85.023438 L 197.195312 85.023438 L 197.195312 180.699219 L 101.519531 180.699219 Z M 101.519531 85.023438 " clip-rule="nonzero"/></clipPath><clipPath id="id4"><path d="M 131.476562 141.542969 L 209.304688 141.542969 L 209.304688 219.367188 L 131.476562 219.367188 Z M 131.476562 141.542969 " clip-rule="nonzero"/></clipPath><clipPath id="id5"><path d="M 149.28125 80.832031 L 201.402344 80.832031 L 201.402344 132.953125 L 149.28125 132.953125 Z M 149.28125 80.832031 " clip-rule="nonzero"/></clipPath><clipPath id="id6"><path d="M 123.058594 114.277344 L 196.308594 114.277344 L 196.308594 212.800781 L 123.058594 212.800781 Z M 123.058594 114.277344 " clip-rule="nonzero"/></clipPath><clipPath id="id7"><path d="M 161.140625 121.15625 L 196.308594 121.15625 L 196.308594 133.53125 L 161.140625 133.53125 Z M 161.140625 121.15625 " clip-rule="nonzero"/></clipPath><clipPath id="id8"><path d="M 182.082031 185 L 196.308594 185 L 196.308594 194.457031 L 182.082031 194.457031 Z M 182.082031 185 " clip-rule="nonzero"/></clipPath><clipPath id="id9"><path d="M 163.042969 194 L 196.308594 194 L 196.308594 202 L 163.042969 202 Z M 163.042969 194 " clip-rule="nonzero"/></clipPath><clipPath id="id10"><path d="M 190.652344 199.21875 L 294 199.21875 L 294 337 L 190.652344 337 Z M 190.652344 199.21875 " clip-rule="nonzero"/></clipPath><clipPath id="id11"><path d="M 187.320312 216.257812 L 265.449219 196.121094 L 297.34375 319.886719 L 219.214844 340.023438 Z M 187.320312 216.257812 " clip-rule="nonzero"/></clipPath><clipPath id="id12"><path d="M 130.675781 208 L 210.644531 208 L 210.644531 254 L 130.675781 254 Z M 130.675781 208 " clip-rule="nonzero"/></clipPath><clipPath id="id13"><path d="M 127.136719 224.988281 L 205.269531 204.851562 L 213.644531 237.351562 L 135.511719 257.484375 Z M 127.136719 224.988281 " clip-rule="nonzero"/></clipPath><clipPath id="id14"><path d="M 197.039062 85.023438 L 277.722656 85.023438 L 277.722656 219.253906 L 197.039062 219.253906 Z M 197.039062 85.023438 " clip-rule="nonzero"/></clipPath><clipPath id="id15"><path d="M 196.457031 110 L 250.628906 110 L 250.628906 204.566406 L 196.457031 204.566406 Z M 196.457031 110 " clip-rule="nonzero"/></clipPath><clipPath id="id16"><path d="M 169.671875 80.832031 L 209.65625 80.832031 L 209.65625 120.816406 L 169.671875 120.816406 Z M 169.671875 80.832031 " clip-rule="nonzero"/></clipPath></defs><g clip-path="url(#id1)"><path fill="#ffec83" d="M 362.363281 187.351562 C 362.363281 190.054688 362.296875 192.757812 362.164062 195.464844 C 362.03125 198.167969 361.832031 200.863281 361.566406 203.554688 C 361.300781 206.246094 360.96875 208.929688 360.570312 211.605469 C 360.175781 214.28125 359.710938 216.945312 359.183594 219.597656 C 358.660156 222.253906 358.066406 224.890625 357.40625 227.515625 C 356.753906 230.140625 356.03125 232.742188 355.246094 235.335938 C 354.457031 237.921875 353.609375 240.488281 352.699219 243.035156 C 351.789062 245.585938 350.8125 248.105469 349.78125 250.609375 C 348.746094 253.105469 347.648438 255.578125 346.492188 258.023438 C 345.335938 260.46875 344.121094 262.882812 342.84375 265.269531 C 341.570312 267.65625 340.238281 270.007812 338.847656 272.328125 C 337.457031 274.648438 336.007812 276.933594 334.507812 279.183594 C 333.003906 281.433594 331.445312 283.640625 329.832031 285.816406 C 328.222656 287.988281 326.558594 290.121094 324.84375 292.214844 C 323.128906 294.304688 321.359375 296.347656 319.542969 298.351562 C 317.726562 300.359375 315.859375 302.316406 313.949219 304.230469 C 312.039062 306.144531 310.078125 308.007812 308.074219 309.824219 C 306.070312 311.640625 304.019531 313.40625 301.929688 315.125 C 299.839844 316.839844 297.707031 318.503906 295.535156 320.117188 C 293.363281 321.726562 291.148438 323.285156 288.898438 324.785156 C 286.652344 326.289062 284.367188 327.734375 282.046875 329.125 C 279.726562 330.515625 277.375 331.851562 274.988281 333.128906 C 272.605469 334.402344 270.1875 335.617188 267.742188 336.773438 C 265.296875 337.933594 262.824219 339.023438 260.324219 340.0625 C 257.828125 341.097656 255.300781 342.070312 252.757812 342.980469 C 250.210938 343.894531 247.640625 344.742188 245.050781 345.527344 C 242.464844 346.308594 239.859375 347.03125 237.230469 347.691406 C 234.609375 348.347656 231.96875 348.941406 229.320312 349.46875 C 226.664062 349.996094 224 350.457031 221.324219 350.855469 C 218.648438 351.253906 215.964844 351.582031 213.273438 351.847656 C 210.578125 352.113281 207.882812 352.3125 205.179688 352.441406 C 202.480469 352.578125 199.777344 352.644531 197.074219 352.644531 C 194.367188 352.644531 191.664062 352.578125 188.960938 352.441406 C 186.257812 352.3125 183.5625 352.113281 180.871094 351.847656 C 178.179688 351.582031 175.492188 351.253906 172.820312 350.855469 C 170.140625 350.457031 167.480469 349.996094 164.824219 349.46875 C 162.171875 348.941406 159.53125 348.347656 156.910156 347.691406 C 154.285156 347.03125 151.679688 346.308594 149.089844 345.527344 C 146.503906 344.742188 143.933594 343.894531 141.386719 342.980469 C 138.839844 342.070312 136.316406 341.097656 133.816406 340.0625 C 131.316406 339.023438 128.84375 337.933594 126.402344 336.773438 C 123.957031 335.617188 121.539062 334.402344 119.152344 333.128906 C 116.765625 331.851562 114.417969 330.515625 112.097656 329.125 C 109.777344 327.734375 107.488281 326.289062 105.242188 324.785156 C 102.992188 323.285156 100.78125 321.726562 98.609375 320.117188 C 96.4375 318.503906 94.300781 316.839844 92.210938 315.125 C 90.121094 313.40625 88.074219 311.640625 86.070312 309.824219 C 84.0625 308.007812 82.105469 306.144531 80.191406 304.230469 C 78.28125 302.316406 76.414062 300.359375 74.601562 298.351562 C 72.78125 296.347656 71.015625 294.304688 69.300781 292.210938 C 67.582031 290.121094 65.921875 287.988281 64.308594 285.816406 C 62.695312 283.640625 61.136719 281.433594 59.636719 279.183594 C 58.132812 276.933594 56.6875 274.648438 55.296875 272.328125 C 53.90625 270.007812 52.574219 267.65625 51.296875 265.269531 C 50.023438 262.882812 48.808594 260.46875 47.648438 258.023438 C 46.492188 255.578125 45.398438 253.105469 44.363281 250.605469 C 43.328125 248.105469 42.355469 245.585938 41.445312 243.035156 C 40.53125 240.488281 39.683594 237.921875 38.894531 235.335938 C 38.113281 232.742188 37.390625 230.140625 36.734375 227.515625 C 36.078125 224.890625 35.480469 222.253906 34.957031 219.597656 C 34.429688 216.945312 33.964844 214.28125 33.570312 211.605469 C 33.171875 208.929688 32.84375 206.246094 32.578125 203.554688 C 32.308594 200.863281 32.113281 198.167969 31.980469 195.464844 C 31.84375 192.757812 31.78125 190.054688 31.78125 187.351562 C 31.78125 184.648438 31.84375 181.945312 31.980469 179.242188 C 32.113281 176.539062 32.308594 173.84375 32.578125 171.148438 C 32.84375 168.457031 33.171875 165.777344 33.570312 163.097656 C 33.964844 160.425781 34.429688 157.757812 34.957031 155.105469 C 35.480469 152.453125 36.078125 149.816406 36.734375 147.191406 C 37.390625 144.566406 38.113281 141.960938 38.894531 139.371094 C 39.683594 136.78125 40.53125 134.214844 41.445312 131.667969 C 42.355469 129.121094 43.328125 126.597656 44.363281 124.097656 C 45.398438 121.597656 46.492188 119.128906 47.648438 116.679688 C 48.808594 114.234375 50.023438 111.820312 51.296875 109.433594 C 52.574219 107.050781 53.90625 104.695312 55.296875 102.375 C 56.6875 100.054688 58.132812 97.769531 59.636719 95.523438 C 61.136719 93.273438 62.695312 91.0625 64.308594 88.886719 C 65.921875 86.714844 67.582031 84.585938 69.300781 82.492188 C 71.015625 80.402344 72.78125 78.355469 74.601562 76.351562 C 76.414062 74.347656 78.28125 72.386719 80.191406 70.476562 C 82.105469 68.5625 84.0625 66.699219 86.070312 64.878906 C 88.074219 63.0625 90.121094 61.296875 92.210938 59.578125 C 94.300781 57.867188 96.4375 56.199219 98.609375 54.589844 C 100.78125 52.980469 102.992188 51.421875 105.242188 49.917969 C 107.488281 48.417969 109.777344 46.96875 112.097656 45.578125 C 114.417969 44.1875 116.765625 42.851562 119.152344 41.578125 C 121.539062 40.300781 123.957031 39.085938 126.402344 37.929688 C 128.84375 36.773438 131.316406 35.679688 133.816406 34.640625 C 136.316406 33.609375 138.839844 32.632812 141.386719 31.722656 C 143.933594 30.8125 146.503906 29.964844 149.089844 29.179688 C 151.679688 28.394531 154.285156 27.671875 156.910156 27.015625 C 159.53125 26.355469 162.171875 25.765625 164.824219 25.238281 C 167.480469 24.710938 170.140625 24.25 172.820312 23.851562 C 175.492188 23.453125 178.179688 23.121094 180.871094 22.855469 C 183.5625 22.59375 186.257812 22.390625 188.960938 22.261719 C 191.664062 22.128906 194.367188 22.0625 197.074219 22.0625 C 199.777344 22.0625 202.480469 22.128906 205.179688 22.261719 C 207.882812 22.390625 210.578125 22.59375 213.273438 22.855469 C 215.964844 23.121094 218.648438 23.453125 221.324219 23.851562 C 224 24.25 226.664062 24.710938 229.320312 25.238281 C 231.96875 25.765625 234.609375 26.355469 237.230469 27.015625 C 239.859375 27.671875 242.464844 28.394531 245.050781 29.179688 C 247.640625 29.964844 250.210938 30.8125 252.757812 31.722656 C 255.300781 32.632812 257.828125 33.609375 260.324219 34.640625 C 262.824219 35.679688 265.296875 36.773438 267.742188 37.929688 C 270.1875 39.085938 272.605469 40.300781 274.988281 41.578125 C 277.375 42.851562 279.726562 44.1875 282.046875 45.578125 C 284.367188 46.96875 286.652344 48.417969 288.898438 49.917969 C 291.148438 51.421875 293.363281 52.980469 295.535156 54.589844 C 297.707031 56.199219 299.839844 57.867188 301.929688 59.578125 C 304.019531 61.296875 306.070312 63.0625 308.074219 64.878906 C 310.078125 66.699219 312.039062 68.5625 313.949219 70.476562 C 315.859375 72.386719 317.726562 74.347656 319.542969 76.351562 C 321.359375 78.355469 323.128906 80.402344 324.84375 82.492188 C 326.558594 84.585938 328.222656 86.714844 329.832031 88.886719 C 331.445312 91.0625 333.003906 93.273438 334.507812 95.523438 C 336.007812 97.769531 337.457031 100.054688 338.847656 102.375 C 340.238281 104.695312 341.570312 107.050781 342.84375 109.433594 C 344.121094 111.820312 345.335938 114.234375 346.492188 116.679688 C 347.648438 119.128906 348.746094 121.597656 349.78125 124.097656 C 350.8125 126.597656 351.789062 129.121094 352.699219 131.667969 C 353.609375 134.214844 354.457031 136.78125 355.246094 139.371094 C 356.03125 141.960938 356.753906 144.566406 357.40625 147.191406 C 358.066406 149.816406 358.660156 152.453125 359.183594 155.105469 C 359.710938 157.757812 360.175781 160.425781 360.570312 163.097656 C 360.96875 165.777344 361.300781 168.457031 361.566406 171.148438 C 361.832031 173.84375 362.03125 176.539062 362.164062 179.242188 C 362.296875 181.945312 362.363281 184.648438 362.363281 187.351562 Z M 362.363281 187.351562 " fill-opacity="1" fill-rule="nonzero"/></g><g clip-path="url(#id2)"><path fill="#231f20" d="M 307.691406 375.761719 C 299.984375 360.976562 292.507812 346.074219 285.09375 331.132812 C 276.265625 313.347656 265.703125 293.859375 264.960938 273.480469 C 264.890625 271.621094 264.757812 267.800781 264.625 267.683594 C 264.632812 260.1875 264.523438 252.488281 261.859375 245.25 C 259.007812 237.503906 252.382812 232.035156 246.390625 227.511719 C 239.320312 222.175781 231.464844 217.625 223.664062 214.351562 C 219.695312 212.6875 215.515625 211.40625 211.472656 210.160156 L 209.691406 209.613281 C 207.25 208.855469 205.226562 208.207031 203.3125 207.570312 C 201.230469 206.878906 198.859375 206.039062 198.601562 205.871094 L 198.421875 205.742188 C 198.375 205.699219 198.316406 205.660156 198.234375 205.617188 L 198.128906 205.566406 C 178.417969 198.402344 162.195312 188.214844 149.917969 175.296875 C 138.367188 163.136719 127.410156 143.5625 131.308594 125.089844 C 134.273438 111.046875 145.957031 98.492188 160.390625 93.851562 C 163.484375 92.859375 166.652344 92.351562 169.808594 92.351562 C 173.742188 92.351562 177.492188 93.128906 180.945312 94.667969 C 188.007812 97.804688 193.53125 104.496094 197.375 114.546875 C 197.566406 115.046875 198.023438 115.359375 198.570312 115.359375 L 198.675781 115.359375 C 199.222656 115.359375 199.679688 115.046875 199.875 114.546875 C 203.714844 104.496094 209.246094 97.804688 216.304688 94.667969 C 219.757812 93.128906 223.507812 92.351562 227.441406 92.351562 C 230.59375 92.351562 233.761719 92.859375 236.855469 93.851562 C 251.289062 98.492188 262.972656 111.046875 265.941406 125.089844 C 269.835938 143.5625 258.878906 163.136719 247.328125 175.296875 C 244.019531 178.777344 232.34375 187.398438 226.730469 191.53125 C 225.703125 192.289062 224.890625 192.890625 224.378906 193.273438 C 221.960938 195.085938 219.40625 196.792969 216.929688 198.441406 C 214.777344 199.882812 189.300781 214 187.175781 215.554688 C 186.714844 215.890625 186.535156 216.460938 186.710938 217.003906 C 186.886719 217.527344 187.328125 217.875 187.816406 217.878906 C 188.050781 217.878906 188.285156 217.792969 188.496094 217.640625 C 190.875 215.914062 216.605469 201.605469 219.007812 199.992188 C 220.480469 199.003906 221.957031 198.015625 223.417969 197.003906 C 223.769531 196.761719 224.339844 196.394531 225.101562 195.914062 C 246.832031 182.0625 260.28125 167.359375 265.066406 152.207031 C 270.980469 133.503906 269.953125 121.082031 261.527344 109.328125 C 253.203125 97.726562 240.605469 90.28125 228.640625 89.890625 C 228.292969 89.878906 227.941406 89.871094 227.597656 89.871094 C 214.988281 89.871094 204.730469 97.414062 198.625 111.128906 C 192.523438 97.414062 182.261719 89.871094 169.652344 89.871094 C 169.304688 89.871094 168.957031 89.878906 168.605469 89.890625 C 156.648438 90.28125 144.046875 97.726562 135.722656 109.328125 C 127.246094 121.15625 126.019531 135.988281 132.1875 152.230469 C 137.949219 167.398438 149.554688 180.976562 166.699219 192.585938 C 175.253906 198.386719 185.242188 203.417969 196.386719 207.550781 C 196.871094 208.046875 199.074219 208.902344 208.488281 211.828125 L 209.007812 211.988281 C 219.980469 215.398438 228.167969 218.875 235.550781 223.25 C 243.472656 227.9375 252.265625 233.824219 257.476562 241.910156 C 262.246094 249.324219 262.199219 258.972656 262.160156 267.484375 L 262.15625 268.492188 C 262.039062 270.148438 261.992188 271.808594 262.035156 273.480469 C 262.515625 291.859375 271.371094 309.914062 279.300781 326.019531 C 287.511719 342.675781 295.847656 359.28125 304.402344 375.761719 L 143.320312 375.761719 C 149.65625 367.832031 153.25 357.15625 155.410156 347.550781 C 157.550781 338.050781 159.207031 326.140625 157.21875 316.53125 C 156.265625 311.917969 152.410156 308.40625 148.320312 306.488281 C 140.148438 302.667969 129.878906 304.921875 121.113281 303.960938 C 112.574219 303.03125 98.332031 300.230469 97.082031 289.726562 C 96.417969 284.179688 96.707031 278.421875 97.316406 272.882812 C 97.59375 270.382812 98.402344 267.578125 97.769531 265.070312 C 96.648438 260.675781 90.523438 261.191406 91.414062 255.234375 C 91.761719 252.917969 95.9375 251.589844 92.914062 249.246094 C 90.101562 247.070312 85.277344 245.550781 88.941406 240.710938 C 90.230469 239.019531 90.945312 236.8125 91.539062 234.800781 C 92.253906 232.371094 92.941406 227.761719 90.03125 226.363281 C 85.3125 224.085938 79.773438 225.511719 75.539062 221.703125 C 71.007812 217.625 75.757812 211.160156 78.175781 207.347656 C 83 199.757812 87.617188 192 91.824219 184.050781 C 93.386719 181.089844 94.890625 178.070312 96.042969 174.914062 C 97.53125 170.84375 96.214844 166.332031 95.304688 162.273438 C 93.375 153.632812 96.515625 143.898438 98.523438 135.464844 C 99.109375 132.996094 99.660156 130.511719 100.332031 128.0625 C 103.632812 116.0625 109.480469 104.800781 117.496094 95.285156 C 130.714844 79.59375 149.515625 70.589844 169.378906 66.71875 C 177.398438 65.15625 187.574219 64.03125 196.117188 63.472656 L 210.574219 63.183594 C 220.257812 63.503906 229.863281 64.710938 239.183594 67.070312 C 257.75 71.765625 274.460938 82.085938 285.601562 97.828125 C 298.734375 116.367188 304.058594 141.945312 302.523438 164.324219 C 301.082031 185.316406 290.480469 203.4375 280.367188 221.3125 C 278.382812 224.820312 276.347656 228.425781 274.394531 232.113281 C 274.519531 232.1875 274.644531 232.265625 274.773438 232.335938 C 275.558594 231.855469 276.503906 232.003906 277.441406 232.460938 C 280.042969 227.664062 282.773438 223.003906 285.332031 218.488281 C 295.023438 201.402344 303.785156 184.230469 305.449219 164.324219 C 307.253906 142.730469 301.785156 118.546875 290.527344 99.996094 C 281.394531 84.960938 267.195312 74.160156 250.96875 67.769531 C 238.121094 62.703125 224.292969 60.625 210.453125 60.304688 L 210.453125 60.296875 C 210.453125 60.296875 208.671875 60.191406 207.664062 60.199219 L 207.667969 60.195312 L 207.648438 60.199219 C 207.4375 60.199219 207.257812 60.207031 207.136719 60.21875 L 199.65625 60.535156 C 199.65625 60.503906 199.125 60.535156 198.523438 60.535156 L 198.433594 60.535156 L 198.378906 60.546875 C 195.730469 60.6875 191.082031 60.882812 188.53125 61.113281 C 166.988281 63.078125 145.65625 67.984375 128.105469 81.234375 C 109.875 94.996094 100.210938 114.898438 95.253906 136.625 C 93.433594 144.585938 90.789062 153.363281 92.175781 161.550781 C 92.988281 166.378906 94.589844 170.703125 92.730469 175.433594 C 91.097656 179.605469 88.800781 183.574219 86.625 187.484375 C 82.621094 194.695312 78.351562 201.804688 73.832031 208.703125 C 68.804688 216.355469 70.664062 224.246094 79.625 227.136719 C 82.121094 227.9375 84.78125 228.003906 87.347656 228.449219 C 91.074219 229.097656 88.445312 235.207031 87.59375 237.15625 C 86.101562 240.597656 82.355469 243.601562 85.605469 247.429688 C 86.417969 248.378906 89.871094 252.207031 91.199219 250.625 C 90.390625 251.589844 89.398438 252.238281 88.941406 253.492188 C 87.464844 257.574219 89.203125 260.902344 92.355469 263.546875 C 95.191406 265.917969 95.179688 266.726562 94.71875 270.292969 C 94.035156 275.566406 93.746094 280.789062 93.925781 286.109375 C 94.21875 294.671875 98.0625 300.125 106.125 303.34375 C 114.691406 306.761719 124.199219 307.613281 133.351562 307.453125 C 140.996094 307.320312 151.023438 307.753906 154.113281 316.308594 C 155.300781 319.605469 154.742188 323.832031 154.726562 327.269531 C 154.699219 333.832031 153.941406 340.363281 152.589844 346.773438 C 150.886719 354.871094 147.921875 362.742188 143.6875 369.859375 C 142.464844 371.90625 141.117188 373.996094 139.488281 375.761719 C 138.886719 376.417969 139.488281 379.074219 139.488281 379.074219 L 308.03125 379.074219 L 308.03125 375.761719 L 307.691406 375.761719 " fill-opacity="1" fill-rule="nonzero"/></g><g clip-path="url(#id3)"><path fill="#ffec83" d="M 197.195312 132.863281 C 197.195312 134.425781 197.117188 135.992188 196.964844 137.550781 C 196.8125 139.109375 196.582031 140.65625 196.277344 142.195312 C 195.972656 143.730469 195.589844 145.25 195.136719 146.746094 C 194.683594 148.246094 194.152344 149.722656 193.554688 151.167969 C 192.957031 152.617188 192.289062 154.027344 191.546875 155.410156 C 190.808594 156.796875 190.003906 158.132812 189.132812 159.441406 C 188.261719 160.742188 187.332031 161.996094 186.335938 163.210938 C 185.34375 164.417969 184.292969 165.578125 183.183594 166.6875 C 182.074219 167.796875 180.917969 168.847656 179.707031 169.839844 C 178.496094 170.832031 177.238281 171.765625 175.9375 172.636719 C 174.632812 173.507812 173.292969 174.3125 171.910156 175.050781 C 170.527344 175.789062 169.113281 176.457031 167.664062 177.058594 C 166.21875 177.65625 164.742188 178.1875 163.242188 178.640625 C 161.746094 179.09375 160.226562 179.476562 158.691406 179.78125 C 157.152344 180.085938 155.605469 180.316406 154.046875 180.46875 C 152.488281 180.621094 150.921875 180.699219 149.359375 180.699219 C 147.792969 180.699219 146.226562 180.621094 144.667969 180.46875 C 143.109375 180.316406 141.5625 180.085938 140.023438 179.78125 C 138.488281 179.476562 136.972656 179.09375 135.472656 178.640625 C 133.972656 178.1875 132.496094 177.65625 131.050781 177.058594 C 129.605469 176.457031 128.191406 175.789062 126.808594 175.050781 C 125.425781 174.3125 124.085938 173.507812 122.78125 172.636719 C 121.476562 171.765625 120.222656 170.832031 119.007812 169.839844 C 117.800781 168.847656 116.640625 167.796875 115.53125 166.6875 C 114.425781 165.578125 113.371094 164.417969 112.378906 163.210938 C 111.386719 161.996094 110.453125 160.742188 109.582031 159.441406 C 108.710938 158.132812 107.910156 156.796875 107.167969 155.410156 C 106.429688 154.027344 105.757812 152.617188 105.160156 151.167969 C 104.5625 149.722656 104.035156 148.246094 103.582031 146.746094 C 103.125 145.25 102.742188 143.730469 102.4375 142.195312 C 102.132812 140.65625 101.902344 139.109375 101.75 137.550781 C 101.597656 135.992188 101.519531 134.425781 101.519531 132.863281 C 101.519531 131.296875 101.597656 129.730469 101.75 128.171875 C 101.902344 126.613281 102.132812 125.0625 102.4375 123.527344 C 102.742188 121.992188 103.125 120.472656 103.582031 118.976562 C 104.035156 117.476562 104.5625 116 105.160156 114.554688 C 105.757812 113.109375 106.429688 111.691406 107.167969 110.3125 C 107.910156 108.925781 108.710938 107.585938 109.582031 106.285156 C 110.453125 104.980469 111.386719 103.726562 112.378906 102.511719 C 113.371094 101.300781 114.425781 100.144531 115.53125 99.035156 C 116.640625 97.925781 117.800781 96.875 119.007812 95.882812 C 120.222656 94.890625 121.476562 93.957031 122.78125 93.085938 C 124.085938 92.214844 125.425781 91.410156 126.808594 90.671875 C 128.191406 89.933594 129.605469 89.261719 131.050781 88.664062 C 132.496094 88.066406 133.972656 87.539062 135.472656 87.082031 C 136.972656 86.628906 138.488281 86.246094 140.023438 85.941406 C 141.5625 85.636719 143.109375 85.40625 144.667969 85.253906 C 146.226562 85.101562 147.792969 85.023438 149.359375 85.023438 C 150.921875 85.023438 152.488281 85.101562 154.046875 85.253906 C 155.605469 85.40625 157.152344 85.636719 158.691406 85.941406 C 160.226562 86.246094 161.746094 86.628906 163.242188 87.082031 C 164.742188 87.539062 166.21875 88.066406 167.664062 88.664062 C 169.113281 89.261719 170.527344 89.933594 171.910156 90.671875 C 173.292969 91.410156 174.632812 92.214844 175.9375 93.085938 C 177.238281 93.957031 178.496094 94.890625 179.707031 95.882812 C 180.917969 96.875 182.074219 97.925781 183.183594 99.035156 C 184.292969 100.144531 185.34375 101.300781 186.335938 102.511719 C 187.332031 103.726562 188.261719 104.980469 189.132812 106.285156 C 190.003906 107.585938 190.808594 108.925781 191.546875 110.3125 C 192.289062 111.691406 192.957031 113.109375 193.554688 114.554688 C 194.152344 116 194.683594 117.476562 195.136719 118.976562 C 195.589844 120.472656 195.972656 121.992188 196.277344 123.527344 C 196.582031 125.0625 196.8125 126.613281 196.964844 128.171875 C 197.117188 129.730469 197.195312 131.296875 197.195312 132.863281 Z M 197.195312 132.863281 " fill-opacity="1" fill-rule="nonzero"/></g><g clip-path="url(#id4)"><path fill="#ffec83" d="M 209.304688 180.453125 C 209.304688 181.726562 209.242188 182.996094 209.113281 184.265625 C 208.992188 185.535156 208.804688 186.792969 208.558594 188.042969 C 208.308594 189.292969 208 190.527344 207.628906 191.746094 C 207.257812 192.96875 206.828125 194.164062 206.339844 195.34375 C 205.851562 196.523438 205.308594 197.671875 204.707031 198.796875 C 204.109375 199.921875 203.453125 201.011719 202.746094 202.070312 C 202.039062 203.132812 201.277344 204.152344 200.472656 205.140625 C 199.660156 206.125 198.804688 207.066406 197.90625 207.96875 C 197.007812 208.867188 196.0625 209.722656 195.078125 210.53125 C 194.089844 211.34375 193.066406 212.101562 192.007812 212.808594 C 190.949219 213.515625 189.859375 214.171875 188.734375 214.769531 C 187.609375 215.375 186.460938 215.917969 185.28125 216.402344 C 184.105469 216.890625 182.90625 217.320312 181.683594 217.691406 C 180.464844 218.0625 179.230469 218.371094 177.980469 218.621094 C 176.730469 218.863281 175.476562 219.054688 174.203125 219.175781 C 172.933594 219.304688 171.667969 219.367188 170.390625 219.367188 C 169.117188 219.367188 167.84375 219.304688 166.574219 219.175781 C 165.308594 219.054688 164.050781 218.863281 162.796875 218.621094 C 161.546875 218.371094 160.3125 218.0625 159.09375 217.691406 C 157.875 217.320312 156.675781 216.890625 155.496094 216.402344 C 154.324219 215.917969 153.167969 215.375 152.046875 214.769531 C 150.921875 214.171875 149.832031 213.515625 148.769531 212.808594 C 147.710938 212.101562 146.6875 211.34375 145.707031 210.53125 C 144.71875 209.722656 143.777344 208.867188 142.875 207.96875 C 141.972656 207.066406 141.117188 206.125 140.308594 205.140625 C 139.503906 204.152344 138.746094 203.132812 138.035156 202.070312 C 137.328125 201.011719 136.671875 199.921875 136.070312 198.796875 C 135.472656 197.671875 134.929688 196.523438 134.4375 195.34375 C 133.953125 194.164062 133.523438 192.96875 133.152344 191.746094 C 132.785156 190.527344 132.476562 189.292969 132.226562 188.042969 C 131.976562 186.792969 131.789062 185.535156 131.664062 184.265625 C 131.542969 182.996094 131.476562 181.726562 131.476562 180.453125 C 131.476562 179.179688 131.542969 177.90625 131.664062 176.640625 C 131.789062 175.371094 131.976562 174.109375 132.226562 172.859375 C 132.476562 171.609375 132.785156 170.375 133.152344 169.15625 C 133.523438 167.9375 133.953125 166.738281 134.4375 165.5625 C 134.929688 164.386719 135.472656 163.234375 136.070312 162.109375 C 136.671875 160.988281 137.328125 159.894531 138.035156 158.832031 C 138.746094 157.773438 139.503906 156.75 140.308594 155.765625 C 141.117188 154.78125 141.972656 153.839844 142.875 152.933594 C 143.777344 152.035156 144.71875 151.179688 145.707031 150.375 C 146.6875 149.5625 147.710938 148.808594 148.769531 148.097656 C 149.832031 147.390625 150.921875 146.734375 152.046875 146.132812 C 153.167969 145.535156 154.324219 144.988281 155.496094 144.5 C 156.675781 144.015625 157.875 143.585938 159.09375 143.214844 C 160.3125 142.847656 161.546875 142.539062 162.796875 142.289062 C 164.050781 142.039062 165.308594 141.855469 166.574219 141.726562 C 167.84375 141.601562 169.117188 141.542969 170.390625 141.542969 C 171.667969 141.542969 172.933594 141.601562 174.203125 141.726562 C 175.476562 141.855469 176.730469 142.039062 177.980469 142.289062 C 179.230469 142.539062 180.464844 142.847656 181.683594 143.214844 C 182.90625 143.585938 184.105469 144.015625 185.28125 144.5 C 186.460938 144.988281 187.609375 145.535156 188.734375 146.132812 C 189.859375 146.734375 190.949219 147.390625 192.007812 148.097656 C 193.066406 148.808594 194.089844 149.5625 195.078125 150.375 C 196.0625 151.179688 197.007812 152.035156 197.90625 152.933594 C 198.804688 153.839844 199.660156 154.78125 200.472656 155.765625 C 201.277344 156.75 202.039062 157.773438 202.746094 158.832031 C 203.453125 159.894531 204.109375 160.988281 204.707031 162.109375 C 205.308594 163.234375 205.851562 164.386719 206.339844 165.5625 C 206.828125 166.738281 207.257812 167.9375 207.628906 169.15625 C 208 170.375 208.308594 171.609375 208.558594 172.859375 C 208.804688 174.109375 208.992188 175.371094 209.113281 176.640625 C 209.242188 177.90625 209.304688 179.179688 209.304688 180.453125 Z M 209.304688 180.453125 " fill-opacity="1" fill-rule="nonzero"/></g><g clip-path="url(#id5)"><path fill="#ffec83" d="M 201.402344 106.894531 C 201.402344 107.746094 201.359375 108.597656 201.277344 109.445312 C 201.195312 110.296875 201.066406 111.140625 200.898438 111.976562 C 200.734375 112.8125 200.527344 113.640625 200.277344 114.457031 C 200.03125 115.273438 199.742188 116.074219 199.417969 116.863281 C 199.089844 117.652344 198.722656 118.425781 198.324219 119.175781 C 197.921875 119.929688 197.480469 120.660156 197.011719 121.371094 C 196.535156 122.082031 196.027344 122.765625 195.484375 123.421875 C 194.941406 124.085938 194.371094 124.71875 193.765625 125.320312 C 193.164062 125.921875 192.53125 126.496094 191.875 127.039062 C 191.210938 127.578125 190.527344 128.085938 189.816406 128.558594 C 189.109375 129.035156 188.378906 129.472656 187.625 129.875 C 186.871094 130.277344 186.101562 130.640625 185.316406 130.96875 C 184.527344 131.296875 183.722656 131.582031 182.90625 131.832031 C 182.085938 132.078125 181.261719 132.285156 180.425781 132.453125 C 179.585938 132.621094 178.742188 132.742188 177.894531 132.828125 C 177.042969 132.910156 176.191406 132.953125 175.339844 132.953125 C 174.484375 132.953125 173.632812 132.910156 172.785156 132.828125 C 171.933594 132.742188 171.09375 132.621094 170.257812 132.453125 C 169.417969 132.285156 168.589844 132.078125 167.773438 131.832031 C 166.957031 131.582031 166.15625 131.296875 165.367188 130.96875 C 164.578125 130.640625 163.808594 130.277344 163.054688 129.875 C 162.304688 129.472656 161.570312 129.035156 160.859375 128.558594 C 160.152344 128.085938 159.464844 127.578125 158.808594 127.039062 C 158.148438 126.496094 157.515625 125.921875 156.910156 125.320312 C 156.308594 124.71875 155.734375 124.085938 155.195312 123.421875 C 154.652344 122.765625 154.144531 122.082031 153.671875 121.371094 C 153.195312 120.660156 152.757812 119.929688 152.355469 119.175781 C 151.953125 118.425781 151.589844 117.652344 151.261719 116.863281 C 150.933594 116.074219 150.648438 115.273438 150.402344 114.457031 C 150.152344 113.640625 149.945312 112.8125 149.777344 111.976562 C 149.613281 111.140625 149.488281 110.296875 149.40625 109.445312 C 149.320312 108.597656 149.28125 107.746094 149.28125 106.894531 C 149.28125 106.039062 149.320312 105.1875 149.40625 104.339844 C 149.488281 103.488281 149.613281 102.644531 149.777344 101.804688 C 149.945312 100.96875 150.152344 100.144531 150.402344 99.324219 C 150.648438 98.511719 150.933594 97.707031 151.261719 96.917969 C 151.589844 96.132812 151.953125 95.359375 152.355469 94.605469 C 152.757812 93.855469 153.195312 93.121094 153.671875 92.414062 C 154.144531 91.703125 154.652344 91.019531 155.195312 90.359375 C 155.734375 89.699219 156.308594 89.066406 156.910156 88.464844 C 157.515625 87.859375 158.148438 87.289062 158.808594 86.746094 C 159.464844 86.207031 160.152344 85.695312 160.859375 85.222656 C 161.570312 84.75 162.304688 84.308594 163.054688 83.90625 C 163.808594 83.507812 164.578125 83.140625 165.367188 82.816406 C 166.15625 82.488281 166.957031 82.199219 167.773438 81.953125 C 168.589844 81.707031 169.417969 81.5 170.257812 81.332031 C 171.09375 81.164062 171.933594 81.039062 172.785156 80.957031 C 173.632812 80.875 174.484375 80.832031 175.339844 80.832031 C 176.191406 80.832031 177.042969 80.875 177.894531 80.957031 C 178.742188 81.039062 179.585938 81.164062 180.425781 81.332031 C 181.261719 81.5 182.085938 81.707031 182.90625 81.953125 C 183.722656 82.199219 184.527344 82.488281 185.316406 82.816406 C 186.101562 83.140625 186.871094 83.507812 187.625 83.90625 C 188.378906 84.308594 189.109375 84.75 189.816406 85.222656 C 190.527344 85.695312 191.210938 86.207031 191.875 86.746094 C 192.53125 87.289062 193.164062 87.859375 193.765625 88.464844 C 194.371094 89.066406 194.941406 89.699219 195.484375 90.359375 C 196.027344 91.019531 196.535156 91.703125 197.011719 92.414062 C 197.480469 93.121094 197.921875 93.855469 198.324219 94.605469 C 198.722656 95.359375 199.089844 96.132812 199.417969 96.917969 C 199.742188 97.707031 200.03125 98.511719 200.277344 99.324219 C 200.527344 100.144531 200.734375 100.96875 200.898438 101.804688 C 201.066406 102.644531 201.195312 103.488281 201.277344 104.339844 C 201.359375 105.1875 201.402344 106.039062 201.402344 106.894531 Z M 201.402344 106.894531 " fill-opacity="1" fill-rule="nonzero"/></g><g clip-path="url(#id6)"><path fill="#000000" d="M 186.464844 114.578125 C 190.230469 113.585938 195.109375 114.976562 197.238281 115.359375 C 200.261719 116.246094 207.605469 115.746094 208.699219 115.917969 C 208.257812 115.914062 202.636719 115.84375 202.148438 116.035156 C 203.015625 116.347656 203.496094 116.214844 204.34375 116.242188 C 212.242188 116.167969 206.523438 115.953125 223.390625 119.5 C 224.113281 119.65625 224.859375 119.710938 225.566406 119.945312 C 225.566406 119.945312 230.757812 123.640625 230.757812 123.640625 C 232.976562 124.375 239.191406 126.09375 239.300781 126.109375 C 239.484375 126.429688 239.269531 126.179688 241.628906 128.539062 C 241.949219 128.871094 242.070312 129.433594 242.554688 129.574219 C 247.320312 131.609375 244.085938 129.683594 249.929688 133.632812 C 249.980469 133.664062 252.351562 135.234375 252.414062 135.25 C 252.433594 135.304688 255.617188 139.246094 256.429688 140.195312 C 256.445312 140.253906 258.164062 144.523438 258.496094 144.953125 C 261.707031 147.257812 261.332031 145.71875 264.804688 150.492188 C 265.953125 155.390625 265.316406 154.398438 267.167969 157.417969 C 267.398438 157.730469 267.472656 158.121094 267.574219 158.488281 C 269.222656 163.652344 268.785156 162.214844 268.855469 163.363281 C 272.425781 168.589844 272.328125 179.621094 272.613281 180.355469 C 272.710938 181.402344 271.5625 189.066406 271.546875 189.125 C 270.066406 194.191406 269.851562 193.726562 270.710938 197.570312 C 270.804688 197.851562 270.261719 200.109375 270.140625 200.878906 C 269.0625 203.496094 267.324219 205.402344 263.539062 210.5625 C 263.539062 210.5625 260.042969 212.160156 260.042969 212.160156 C 260.042969 212.160156 255.464844 212.765625 255.464844 212.765625 C 255.179688 212.589844 253.65625 211.964844 253.050781 211.558594 C 251.808594 211.316406 250.554688 211.109375 249.308594 210.882812 C 246.832031 210.65625 244.25 208.511719 242.882812 208.351562 C 240.613281 208.011719 238.335938 207.777344 236.0625 207.472656 C 235.882812 207.390625 232.324219 205.542969 232.316406 205.539062 C 231.546875 204.375 230.761719 203.214844 230.003906 202.046875 C 229.171875 202.378906 227.382812 201.878906 226.789062 201.882812 C 226.355469 201.566406 225.925781 201.234375 225.484375 200.929688 C 218.835938 203.894531 215.234375 203.105469 213.566406 203.410156 C 209.660156 205.355469 211.808594 204.992188 205.417969 204.941406 C 205.128906 204.84375 204.824219 204.871094 204.527344 204.847656 C 204.246094 204.746094 203.015625 204.703125 202.714844 204.703125 C 202.371094 204.878906 200.574219 206.195312 200.535156 206.234375 C 200.402344 206.285156 198.128906 206.765625 198.007812 206.785156 C 197.382812 206.695312 194.484375 206.851562 191.914062 205.628906 C 191.75 205.539062 191.601562 205.710938 191.460938 205.769531 C 190.882812 206.175781 190.164062 206.355469 189.617188 206.808594 C 189.605469 206.8125 186.828125 207.789062 186.769531 207.820312 C 185.707031 207.839844 184.648438 207.8125 183.589844 207.832031 C 182.484375 208.429688 177.257812 209.714844 172.601562 208.714844 C 165.347656 206.832031 168.101562 207.179688 164.078125 205.574219 C 163.875 205.421875 161.300781 203.066406 161.230469 202.988281 C 159.882812 201.445312 161.453125 204.09375 158.261719 198.773438 C 157.792969 198.773438 157.324219 198.773438 156.855469 198.773438 C 156.855469 198.773438 155.289062 197.09375 155.289062 197.09375 C 155.0625 196.421875 154.929688 195.722656 154.699219 195.050781 C 154.675781 193.960938 154.699219 192.867188 154.691406 191.773438 C 154.421875 191.769531 152.367188 191.632812 152.152344 191.519531 C 137.957031 184.921875 136.84375 187.742188 129.902344 184.367188 C 129.0625 183.898438 128.621094 184.007812 128.121094 183.378906 C 126.207031 180.589844 126.710938 183.230469 125.640625 178.597656 C 125.609375 175.359375 125.679688 175.339844 125.585938 175.203125 C 124.34375 173.234375 124.40625 172.867188 123.777344 171.984375 C 123.625 171.425781 122.769531 167.730469 123.320312 166.238281 C 123.347656 164.972656 123.464844 165.09375 126.511719 159.148438 C 126.640625 158.753906 126.390625 158.382812 126.304688 158.007812 C 125.695312 154.730469 125.894531 154.941406 126.570312 152.140625 C 126.570312 152.140625 128.660156 148.796875 128.660156 148.796875 C 128.929688 148.625 131.515625 146.171875 131.574219 146.121094 C 131.890625 145.996094 132.210938 145.882812 132.53125 145.765625 C 132.550781 143.800781 132.351562 144.410156 133.128906 141.183594 C 134.542969 139.671875 133.640625 139.667969 140.667969 134.910156 C 140.953125 134.449219 141.796875 133.917969 142.238281 133.4375 C 142.296875 133.40625 145.734375 130.335938 146.535156 130.070312 C 147.550781 129.917969 151.230469 128.738281 151.824219 128.644531 C 152.15625 128.621094 152.496094 128.683594 152.820312 128.578125 C 153.335938 128.578125 153.828125 128.386719 154.339844 128.386719 C 154.90625 127.65625 155.609375 127.054688 156.535156 125.878906 C 161.3125 123.214844 157.867188 124.074219 163.175781 123.164062 C 163.652344 123.042969 164.160156 122.972656 164.636719 123.109375 C 164.636719 123.109375 166.160156 123.226562 166.160156 123.226562 C 166.667969 123.386719 167.199219 123.234375 167.71875 123.207031 C 168.023438 122.632812 169.390625 121.667969 169.980469 121.09375 C 175.332031 118.453125 174.292969 118.882812 180.855469 118.933594 C 181.085938 119.03125 181.316406 119.132812 181.5625 119.199219 C 181.753906 118.757812 184.265625 115.183594 184.539062 115.117188 C 185.175781 114.929688 185.839844 114.816406 186.464844 114.578125 M 188.414062 115.378906 C 187.976562 115.480469 187.539062 115.578125 187.109375 115.703125 C 186.84375 115.683594 186.585938 115.757812 186.347656 115.878906 C 185.75 115.996094 183.421875 119.386719 183.371094 119.695312 C 183.304688 119.605469 183.078125 119.582031 183.054688 119.710938 C 183.109375 119.792969 183.265625 119.871094 183.351562 119.796875 C 183.761719 119.980469 184.199219 120.097656 184.613281 120.285156 C 184.875 120.386719 185.179688 120.558594 185.464844 120.40625 C 185.464844 120.40625 189.207031 119.039062 190 118.699219 C 190.058594 118.675781 194.050781 117.914062 198.78125 118.902344 C 199.691406 118.960938 202.515625 118.847656 203.707031 118.972656 C 203.539062 119.039062 203.367188 119.09375 203.199219 119.152344 C 202.902344 119.152344 202.617188 119.21875 202.335938 119.292969 C 197.027344 120.769531 196.96875 120.136719 194.613281 120.082031 C 194.117188 119.824219 193.542969 120.042969 193.019531 120.058594 C 189.949219 120.019531 189.4375 120.183594 185.550781 122.207031 C 185.546875 122.207031 180.664062 120.417969 180.574219 120.394531 C 180.191406 120.214844 175.246094 120.257812 175.015625 120.40625 C 174.351562 120.574219 173.769531 120.945312 173.152344 121.234375 C 171.867188 121.828125 172.132812 121.238281 170.917969 122.53125 C 170.917969 122.53125 169.03125 124.34375 169.03125 124.34375 C 169.03125 124.34375 163.675781 124.621094 162.445312 124.734375 C 158.699219 127.054688 159.777344 126.214844 157.542969 128.210938 C 157.070312 128.757812 156.363281 129.074219 156.03125 129.738281 C 154.433594 132.871094 154.9375 131.996094 154.03125 132.328125 C 153.800781 132.316406 153.550781 132.289062 153.34375 132.414062 C 153.285156 132.417969 150.714844 132.765625 150.625 132.800781 C 146.300781 135.734375 143.511719 137.386719 141.710938 141.460938 C 141.886719 141.558594 142.0625 141.65625 142.238281 141.753906 C 138.054688 148.257812 133.613281 147.679688 133.007812 152.316406 C 132.859375 152.566406 132.851562 152.867188 133.007812 153.113281 C 133.089844 153.5 133.195312 153.882812 133.332031 154.253906 C 133.332031 154.253906 137.277344 154.769531 137.277344 154.769531 C 137.433594 153.726562 137.511719 153.949219 137.546875 153.414062 C 137.652344 153.117188 137.683594 152.785156 137.886719 152.535156 C 138.1875 152.179688 139.71875 149.617188 139.996094 149.300781 C 140.015625 149.28125 142.613281 147.199219 142.695312 147.148438 C 143.035156 147 143.417969 146.96875 143.777344 146.855469 C 143.96875 146.855469 144.164062 146.855469 144.351562 146.851562 C 144.566406 146.089844 144.410156 144.308594 144.9375 143.210938 C 145.390625 142.785156 145.878906 141.875 146.96875 140.492188 C 148.351562 139.410156 150.109375 137.644531 151.027344 137.074219 C 151.085938 137.046875 155.820312 134.796875 156.351562 134.617188 C 152.601562 137.707031 147.296875 139.90625 146.410156 144.664062 L 146.417969 144.597656 C 146.347656 145.089844 146.390625 145.589844 146.292969 146.082031 L 146.371094 146.085938 C 146.722656 146.269531 146.582031 146.128906 149.984375 146.65625 L 149.914062 146.65625 C 150.351562 146.703125 150.789062 146.738281 151.226562 146.738281 C 152.125 145.613281 152.75 145.082031 152.832031 141.71875 C 153.042969 142.664062 153.007812 142.941406 153.203125 143.484375 C 153.277344 145.035156 153.671875 142.96875 153.144531 147.464844 C 157.347656 150.429688 151.578125 148.003906 161.75 148.085938 C 161.75 148.085938 163.15625 148.335938 166.25 148.6875 C 167.738281 145.644531 167.320312 145.707031 167.800781 144.578125 C 167.8125 144.636719 167.804688 147.515625 167.804688 147.574219 C 167.796875 148.742188 169.511719 151.953125 169.695312 152.675781 C 169.757812 153.179688 169.761719 153.707031 169.945312 154.1875 C 170.230469 158.78125 173 161.890625 173.261719 162.296875 C 168.371094 159.542969 169.722656 152.035156 166.085938 150.632812 C 163.855469 149.878906 166.378906 149.96875 157.8125 149.984375 C 157.152344 149.96875 156.671875 150.566406 155.179688 151.449219 C 154.773438 151.667969 153.078125 156.1875 153.066406 156.320312 C 152.53125 160.609375 152.457031 159.714844 152.773438 160.445312 C 153.027344 160.914062 153.109375 161.480469 153.460938 161.902344 C 153.320312 162.035156 153.5625 162.28125 153.699219 162.144531 C 154.757812 163.246094 159.730469 164.503906 162.160156 167.503906 C 158.574219 166.605469 153.671875 164.285156 153.605469 164.21875 C 151.175781 161.921875 152.253906 163.511719 151.167969 161.574219 C 151.117188 161.238281 150.550781 159.757812 150.371094 159.40625 C 150.363281 159.300781 150.355469 159.199219 150.351562 159.09375 C 148.699219 159.066406 146.457031 159.082031 146.457031 159.082031 C 146.839844 158.875 149.523438 157.898438 150.28125 157.714844 C 150.28125 157.714844 151.808594 152.941406 151.808594 152.941406 C 151.9375 152.769531 151.992188 152.554688 152.003906 152.34375 C 152.027344 152.285156 152.851562 150.808594 153.054688 150.53125 C 152.085938 149.398438 152.035156 149.09375 151.710938 149.003906 C 148.636719 148.085938 148.464844 147.441406 145.738281 148.128906 C 145.394531 148.121094 144.191406 148.265625 143.761719 148.46875 C 142.324219 149.792969 140.355469 151.449219 140.253906 151.777344 C 139.761719 153.347656 138.621094 155.996094 138.277344 157.34375 C 138.078125 157.671875 138.128906 161.488281 138.265625 161.765625 C 138.4375 162.734375 138.761719 163.667969 139.011719 164.617188 C 139.101562 165.078125 139.546875 165.296875 139.898438 165.535156 C 140.464844 165.886719 140.960938 166.335938 141.515625 166.710938 C 143.222656 166.914062 143.933594 166.605469 145.625 166.101562 C 148.414062 174.59375 147.578125 171.648438 149.980469 175.511719 C 153.671875 177.820312 160.921875 179.132812 162.714844 175.132812 C 162.761719 174.789062 162.828125 174.351562 162.542969 174.097656 C 161.03125 172.558594 161.269531 172.144531 156.195312 171.007812 C 155.824219 170.886719 155.851562 170.953125 153.621094 170.929688 C 153.28125 170.914062 153.175781 171.015625 152.066406 171.28125 C 151.578125 171.394531 151.078125 171.433594 150.589844 171.519531 C 151.089844 171.25 151.445312 170.761719 151.964844 170.527344 C 155.652344 169.527344 156.519531 170.128906 158.632812 170.121094 C 160.933594 170.171875 165.722656 174.515625 166.480469 174.582031 C 166.902344 174.761719 168.339844 174.84375 168.398438 174.84375 C 168.527344 174.890625 168.671875 174.90625 168.804688 174.835938 C 170.578125 174.679688 170.238281 174.597656 170.757812 173.566406 C 170.898438 173.339844 170.773438 173.074219 170.714844 172.84375 C 170.765625 172.039062 169.828125 171.480469 169.425781 170.90625 C 163.789062 164.488281 165.519531 166.597656 164.757812 165.132812 C 159.328125 154.347656 162.292969 159.46875 161.140625 156.660156 C 161.082031 156.542969 161.019531 156.457031 159.035156 155.5625 C 159.882812 155.589844 160.644531 156.03125 161.476562 156.117188 C 162.097656 155.351562 162.539062 153.660156 163.164062 153.011719 C 162.871094 155.742188 162.363281 157.160156 164.113281 160.988281 C 164.164062 161.3125 164.277344 161.628906 164.453125 161.917969 C 164.785156 163.800781 165.601562 164.292969 167.414062 167 C 167.582031 167.238281 171.238281 170.183594 171.289062 170.210938 C 176.171875 170.730469 173.105469 170.558594 175.679688 170.03125 C 175.886719 169.96875 176.132812 169.976562 176.289062 169.8125 C 177.246094 168.890625 177.113281 168.941406 177.109375 167.988281 C 176.90625 166.015625 177.523438 167.496094 176.21875 162.792969 C 176.15625 162.359375 176.652344 160.511719 176.792969 159.269531 C 177.148438 158.742188 179.65625 154.828125 179.910156 154.359375 C 181.039062 150.625 181.9375 147.113281 178.574219 145.183594 C 176.0625 144.007812 177.0625 144.050781 173.09375 144.101562 C 171.964844 142.144531 169.699219 139.457031 169.644531 139.398438 C 169.386719 139.332031 166.566406 138.84375 165.984375 139.226562 C 163.335938 141.058594 163.941406 139.9375 163.171875 142.417969 C 163.03125 142.851562 162.882812 143.277344 162.777344 143.714844 C 162.65625 143.007812 163.03125 140.910156 162.992188 140.324219 C 163.058594 140.136719 163.078125 139.910156 163.242188 139.769531 C 163.90625 139.199219 165.277344 138.269531 165.679688 137.761719 C 166.375 137.585938 167.90625 138.113281 168.96875 138.132812 C 169.355469 138.253906 169.765625 138.222656 170.15625 138.320312 C 170.675781 138.628906 171.09375 139.074219 171.550781 139.464844 C 174.308594 141.511719 171.40625 141.132812 180.71875 143.945312 C 181.285156 144.128906 181.265625 144.503906 182.152344 145.167969 C 183.449219 143.601562 185.4375 140.757812 189.023438 140.722656 C 188.839844 140.371094 189.09375 139.984375 189.097656 139.613281 C 189.261719 139.152344 189.351562 138.671875 189.421875 138.1875 C 189.566406 137.863281 189.667969 137.523438 189.820312 137.207031 C 192.574219 132.25 190.535156 134.859375 192.667969 132.484375 C 193.550781 131.625 194.386719 130.699219 195.316406 129.882812 C 191.847656 134.972656 191.933594 136.0625 190.742188 140.632812 C 191.125 140.585938 191.503906 140.609375 191.882812 140.597656 C 191.476562 140.714844 191.074219 140.847656 190.664062 140.9375 C 190.652344 141.027344 190.632812 141.117188 190.621094 141.207031 C 190.503906 141.191406 190.386719 141.167969 190.273438 141.160156 C 190.273438 140.992188 189.875 140.976562 189.851562 141.132812 C 189.695312 141.125 189.542969 141.15625 189.402344 141.210938 C 188.886719 141.25 187.207031 141.699219 186.769531 141.886719 C 184.441406 143.789062 184.429688 144.761719 182.878906 147.109375 C 182.789062 147.238281 182.816406 147.117188 182.820312 150.292969 C 182.835938 150.703125 181.941406 153.117188 181.832031 153.394531 C 181.035156 155.355469 182.507812 152.820312 179.242188 157.464844 C 179.007812 157.808594 178.667969 158.082031 178.53125 158.484375 C 178.296875 159.085938 177.890625 159.625 177.785156 160.269531 C 177.78125 160.328125 177.691406 163.082031 177.890625 163.464844 C 178.265625 165.863281 178.550781 165.964844 178.921875 166.488281 C 179.179688 166.773438 179.347656 167.152344 179.671875 167.375 C 181.523438 167.507812 181.5625 167.316406 181.769531 167.082031 C 182.035156 166.769531 182.355469 166.507812 182.597656 166.179688 C 183.078125 165.558594 183.785156 164.222656 184.066406 163.949219 C 184.125 163.894531 186.140625 162.375 186.503906 162.195312 C 190.09375 160.398438 189.296875 159.378906 191.402344 154.929688 C 193.144531 151.65625 193.160156 149.917969 197.742188 145.164062 C 197.46875 145.859375 196.945312 146.414062 196.628906 147.085938 C 196.261719 147.484375 194.078125 151.296875 193.707031 151.726562 C 192.714844 154.011719 191.449219 159.96875 188.699219 162.757812 C 187.675781 163.226562 186.65625 163.703125 185.667969 164.238281 C 185.667969 164.238281 184.761719 165.714844 184.761719 165.714844 L 184.761719 165.640625 C 184.710938 166.1875 184.722656 166.742188 184.753906 167.289062 L 184.753906 167.21875 C 184.910156 167.402344 185.085938 167.5625 185.246094 167.734375 C 188.339844 167.527344 184.1875 168.320312 191.835938 165.980469 C 192.800781 165.703125 196.109375 163.691406 197.054688 163.3125 C 197.066406 163.300781 198.992188 161.167969 199.070312 161.050781 C 199.152344 160.933594 200.960938 157.582031 201.246094 157.332031 C 200.878906 158.527344 199.140625 163.316406 199.140625 163.316406 L 199.113281 163.242188 C 199.125 163.820312 198.460938 163.558594 202.523438 164.125 C 202.59375 164.089844 202.660156 164.042969 202.722656 163.996094 C 203.699219 162.738281 205.589844 161.929688 206.207031 160.46875 C 208.546875 156.753906 210.195312 151.691406 210.925781 147.40625 C 210.980469 147.246094 212.664062 145.246094 213.050781 144.863281 C 214.402344 144.144531 221.425781 140.359375 222.417969 139.195312 C 224.308594 136.109375 223.613281 134.0625 223.957031 133.101562 C 223.941406 133.074219 223.910156 133.015625 223.898438 132.988281 C 223.722656 131.867188 223.753906 130.886719 223.613281 130.433594 C 223.625 130.363281 223.644531 130.230469 223.652344 130.15625 C 223.878906 130.671875 224.851562 135.882812 224.867188 135.941406 C 224.992188 135.902344 230.757812 135.335938 231.941406 135.617188 C 231.941406 135.617188 236.859375 136.039062 236.859375 136.039062 C 236.855469 136.203125 237.171875 136.171875 237.289062 136.121094 C 237.425781 136.199219 240.832031 137.054688 240.886719 137.0625 L 240.878906 137.128906 C 240.917969 137.128906 240.992188 137.121094 241.027344 137.121094 C 241.0625 133.050781 239.882812 131.859375 239.742188 130.488281 C 239.753906 130.507812 241.34375 132.992188 242.082031 134.019531 C 242.132812 134.847656 242.632812 136.882812 242.738281 137.132812 C 244.484375 138.890625 246.015625 140.09375 246.21875 140.457031 C 246.167969 140.539062 246.25 140.652344 246.308594 140.710938 C 246.394531 140.714844 246.449219 140.570312 246.417969 140.5 L 246.476562 140.515625 C 246.714844 139.972656 247.132812 139.496094 247.257812 138.914062 C 247.4375 138.894531 247.371094 138.546875 247.34375 138.40625 C 247.476562 138.027344 247.523438 137.605469 247.589844 137.207031 L 247.683594 137.207031 C 247.675781 136.542969 247.691406 135.886719 247.675781 135.226562 L 247.691406 135.171875 C 247.714844 135.28125 248.765625 138.003906 248.886719 138.292969 C 248.945312 138.324219 251.21875 139.046875 251.46875 139 C 251.445312 139.152344 251.726562 139.15625 251.816406 139.078125 C 251.816406 139.078125 252.230469 139.199219 253.976562 140.113281 C 254.15625 140.203125 254.332031 140.332031 254.542969 140.3125 C 250.949219 135.355469 250.480469 135.101562 242.957031 130.65625 C 240.863281 130.296875 241.976562 129.617188 235.40625 129.378906 C 235.527344 129.324219 235.660156 129.285156 235.785156 129.234375 C 236.160156 129.214844 238.648438 128.960938 239.585938 128.699219 C 239.726562 128.746094 240.074219 128.8125 240.113281 128.636719 C 240.757812 128.8125 241 129.074219 241.820312 129.300781 C 241.820312 129.300781 240.550781 128.25 239.808594 127.5625 C 239.09375 127.0625 238.894531 126.34375 237.09375 126.335938 L 237.089844 126.269531 C 236.597656 126.25 236.121094 126.101562 235.628906 126.066406 C 235.464844 125.980469 235.28125 126.003906 235.105469 126.015625 C 235.097656 125.855469 234.792969 125.890625 234.679688 125.9375 C 234.65625 125.914062 234.597656 125.871094 234.574219 125.84375 C 234.425781 125.847656 234.28125 125.851562 234.136719 125.847656 L 234.136719 125.773438 C 232.980469 125.699219 231.859375 125.277344 230.695312 125.355469 C 230.121094 125.5 226.835938 126.0625 226.089844 126.097656 L 226.089844 126.175781 C 225.917969 126.179688 225.742188 126.15625 225.585938 126.234375 C 224.960938 126.273438 223.152344 126.59375 223.136719 126.59375 L 223.136719 126.675781 C 223.078125 126.675781 218.496094 128.539062 214.34375 131.507812 C 214.285156 131.558594 212.941406 134.570312 212.730469 135.160156 C 212.601562 135.578125 212.097656 135.683594 211.914062 136.050781 C 211.566406 136.230469 209.933594 137.527344 209.679688 137.886719 C 209.03125 138.238281 205.464844 140.550781 205.464844 140.550781 C 205.40625 140.578125 200.859375 142.964844 200.660156 143.136719 C 200.488281 143.183594 200.3125 143.242188 200.136719 143.289062 C 200.769531 142.730469 205.816406 139.003906 206.535156 138.496094 C 209.015625 136.574219 206.609375 138.808594 211.753906 133.6875 C 211.890625 133.546875 212.027344 133.398438 212.085938 133.203125 C 213.164062 130.3125 213.230469 131.929688 213.589844 127.960938 C 213.757812 128.671875 213.855469 129.398438 213.980469 130.117188 C 214.757812 129.722656 217.210938 127.675781 219.214844 126.125 C 219.582031 126.070312 221.011719 125.644531 221.085938 125.613281 C 221.320312 125.59375 221.554688 125.542969 221.769531 125.433594 C 221.980469 125.40625 222.195312 125.363281 222.402344 125.285156 C 222.632812 125.265625 222.867188 125.210938 223.082031 125.113281 C 223.269531 125.082031 223.453125 125.039062 223.628906 124.960938 C 223.863281 124.9375 224.097656 124.886719 224.3125 124.78125 C 225.359375 124.585938 226.375 124.261719 227.390625 123.957031 C 227.628906 124.113281 227.496094 123.640625 227.339844 123.839844 C 227.230469 123.589844 227.003906 123.414062 226.808594 123.234375 C 221.210938 118.667969 228.859375 122.996094 210.863281 118.320312 C 209.921875 118.144531 209.011719 117.828125 208.0625 117.683594 C 207.78125 117.558594 206.386719 117.21875 205.90625 117.175781 C 205.71875 117.101562 201.824219 117.296875 201.539062 117.335938 C 196.292969 118.003906 196.664062 116.671875 193.921875 116.046875 C 193.441406 115.785156 189.386719 115.371094 189.328125 115.367188 C 189.035156 115.238281 188.710938 115.324219 188.414062 115.378906 M 182.527344 119.515625 C 182.550781 119.777344 182.785156 119.386719 182.527344 119.515625 M 182.757812 119.597656 C 182.765625 119.867188 182.996094 119.46875 182.757812 119.597656 M 241.871094 129.316406 C 241.917969 129.371094 241.917969 129.371094 241.871094 129.316406 M 149.082031 131.167969 C 147.585938 131.886719 146.136719 132.699219 144.617188 133.351562 C 144.488281 133.40625 136.683594 140.246094 136.625 140.304688 C 136.453125 140.382812 136.320312 140.507812 136.207031 140.65625 C 134.941406 141.507812 135.097656 141.507812 134.730469 142.296875 C 134.242188 143.558594 133.921875 143.207031 134.125 145.191406 C 140.238281 143.277344 139.226562 143.867188 140.429688 141.339844 C 141.53125 138.601562 144.613281 134.945312 144.671875 134.894531 C 148.269531 132.449219 149.109375 132.265625 151.835938 130.980469 C 149.636719 130.867188 149.457031 131.011719 149.082031 131.167969 M 231 136.605469 C 230.105469 136.6875 229.226562 136.839844 228.328125 136.894531 C 228.015625 137 227.660156 136.878906 227.367188 137.035156 C 225.933594 137.035156 226.046875 137.125 223.996094 139.628906 C 219.953125 142.570312 222.953125 141 217.773438 143.257812 C 216.160156 143.878906 217.460938 143.277344 214.300781 145.707031 C 212.882812 147.074219 213.859375 145.566406 212.003906 149.164062 C 211.8125 149.507812 211.734375 149.902344 211.542969 150.242188 L 211.558594 150.171875 C 210.765625 152.1875 210.726562 156.265625 206.628906 164.039062 C 206.996094 164.074219 210.964844 163.394531 212.714844 162.386719 C 212.832031 162.328125 216.039062 160.726562 216.140625 160.640625 C 216.601562 160.273438 217.902344 159.378906 218.074219 159.300781 C 217.992188 159.511719 215.703125 161.984375 215.542969 162.1875 C 215.152344 162.46875 213.402344 163.09375 212.945312 163.476562 C 212.84375 163.40625 212.722656 163.539062 212.671875 163.613281 C 212.597656 163.730469 212.804688 163.757812 212.859375 163.6875 L 212.835938 163.742188 C 214.800781 164.195312 214.40625 164.519531 215.609375 164.425781 C 215.636719 164.582031 215.945312 164.578125 216.058594 164.492188 C 216.773438 164.777344 227.164062 165.96875 229.550781 165.128906 C 230.382812 165.019531 233.015625 164.289062 233.273438 164.246094 C 234.039062 163.785156 234.695312 163.175781 235.464844 162.734375 C 235.773438 162.457031 236.4375 161.382812 236.753906 161.1875 C 236.726562 161.359375 236.683594 161.527344 236.671875 161.699219 C 236.578125 161.945312 236.539062 162.210938 236.5 162.464844 C 236.410156 162.636719 236.34375 162.824219 236.339844 163.019531 C 236.230469 163.230469 236.171875 163.453125 236.179688 163.6875 C 236.0625 163.757812 232.773438 166.832031 230.90625 167.78125 C 240.429688 171.609375 242.433594 174.878906 244.59375 177.113281 C 244.5 177.085938 244.40625 177.058594 244.3125 177.03125 C 244.261719 176.898438 239.199219 172.675781 238.933594 172.683594 C 231.988281 168.757812 223.601562 166.722656 222.445312 166.214844 C 221.554688 166.105469 217.265625 165.160156 216.171875 165.011719 C 216.070312 164.988281 207.9375 164.621094 207.863281 164.652344 C 207.753906 164.554688 207.675781 164.574219 207.628906 164.707031 C 207.167969 164.65625 205.714844 164.894531 205.648438 164.921875 C 205.417969 164.925781 203.808594 165.101562 203.648438 165.179688 C 203.378906 165.175781 199.296875 165.628906 199.214844 165.683594 C 197.34375 165.734375 188.738281 167.761719 186.167969 168.363281 C 170.589844 173.449219 168.8125 176.089844 161.972656 181.378906 C 160.410156 182.46875 160.75 182.144531 157.441406 187.460938 C 157.039062 188.042969 156.414062 190.886719 156.363281 191.148438 C 156.222656 192.207031 156.566406 193.238281 156.609375 194.289062 C 156.613281 194.292969 157.625 195.902344 157.628906 195.90625 C 159.460938 197.164062 159.417969 196.523438 161.625 196.742188 C 161.222656 197.042969 160.359375 198.511719 159.84375 198.851562 C 160.066406 199.152344 160.1875 199.523438 160.433594 199.808594 C 161.667969 202.320312 164.96875 204.613281 167.441406 205.898438 C 178.019531 208.558594 176.027344 208.300781 180.5625 207.132812 C 176.5625 203.875 176.226562 203.796875 175.84375 203.289062 C 178.359375 204.636719 178.316406 205.53125 184.300781 206.125 C 184.761719 206.246094 188.566406 205.425781 188.621094 205.390625 C 193.40625 203.796875 191.941406 204.394531 193.027344 204.609375 C 193.8125 204.933594 194.675781 205.050781 195.523438 205.023438 C 195.769531 205.195312 196.085938 205.089844 196.371094 205.128906 C 196.585938 205.226562 196.835938 205.226562 197.050781 205.132812 C 197.277344 205.109375 197.527344 205.160156 197.730469 205.03125 C 199.730469 205.105469 199.71875 204.742188 203.386719 202.339844 C 204.285156 202.597656 205.675781 203.199219 205.945312 203.214844 C 206.128906 203.34375 209.78125 203.570312 209.910156 203.566406 C 210.765625 203.253906 211.253906 203.234375 214.679688 201.894531 C 215.019531 201.742188 216.183594 201.785156 216.5 201.671875 C 219.757812 201.507812 219.234375 201.503906 222.382812 200.566406 C 225.863281 199.464844 223.714844 200.988281 227.695312 196.40625 C 227.699219 196.453125 227.710938 196.542969 227.71875 196.585938 C 227.699219 196.628906 227.484375 198.195312 227.410156 199.910156 C 227.898438 199.90625 228.367188 200.058594 228.847656 200.109375 C 229.847656 200.382812 230.570312 199.980469 231.902344 199.902344 C 235.730469 198.535156 236.457031 197.664062 237.398438 196.613281 C 239.410156 194.28125 237.976562 197.070312 241.414062 191.585938 C 246.210938 183.945312 244.300781 186.230469 246.054688 182.421875 C 245.992188 182.414062 240.34375 181.65625 239.730469 181.554688 C 239.390625 181.476562 226.242188 180.488281 225.066406 181.328125 C 223.464844 181.324219 218.117188 182.328125 217.050781 182.421875 C 216.765625 182.394531 216.488281 182.292969 216.203125 182.304688 C 215.996094 182.171875 215.742188 182.226562 215.515625 182.207031 C 212.363281 181.519531 214.726562 182.527344 210.335938 180.335938 C 210.109375 180.175781 201.792969 181.035156 201.59375 181.15625 C 201.414062 181.15625 201.222656 181.148438 201.046875 181.214844 C 200.714844 181.269531 200.339844 181.140625 200.035156 181.324219 C 199.15625 181.261719 193.945312 181.71875 191.34375 182.539062 C 183.027344 182.617188 176.484375 184.28125 169.792969 187.492188 C 167.144531 188.992188 170.269531 186.359375 165.3125 191.8125 C 165.015625 192.992188 164.726562 194.183594 164.398438 195.359375 C 164.335938 194.207031 164.390625 193.054688 164.355469 191.902344 C 164.128906 192.242188 162.433594 194.550781 162.054688 194.691406 C 162.554688 194.042969 164.242188 191.386719 164.324219 191.214844 C 162.859375 191.085938 164.160156 191.601562 161.152344 189.984375 C 161.027344 189.558594 160.925781 189.089844 160.929688 188.632812 C 161.769531 188.84375 162.617188 189.035156 163.457031 189.246094 C 164.003906 189.203125 164.554688 189.121094 165.082031 188.972656 C 165.214844 189.019531 165.570312 189.066406 165.578125 188.878906 C 165.839844 188.832031 166.019531 188.59375 166.238281 188.457031 C 171.449219 184.742188 166.617188 187.394531 175.9375 183.617188 C 176.332031 183.53125 184.039062 181.5 185.160156 181.128906 C 184.460938 179.734375 184.277344 179.722656 183.679688 176.558594 C 183.855469 175.996094 184.773438 174.203125 184.945312 173.957031 C 185.035156 175.03125 184.949219 176.113281 184.996094 177.1875 C 185.261719 177.730469 185.308594 178.355469 185.589844 178.894531 C 185.613281 178.917969 187.71875 180.328125 187.988281 180.4375 C 188.519531 180.628906 191.234375 180.84375 191.480469 180.769531 C 193.070312 180.40625 194.664062 180.046875 196.238281 179.613281 C 196.882812 179.492188 202.59375 180.160156 203.476562 179.507812 C 203.996094 179.519531 209.449219 178.964844 209.824219 178.914062 C 210.039062 178.445312 210.757812 175.632812 210.773438 175.574219 C 211.65625 175.269531 212.488281 174.828125 213.375 174.546875 C 212.941406 175.328125 212.347656 176.011719 211.84375 176.75 C 211.78125 177.480469 211.679688 178.207031 211.484375 178.917969 C 214.558594 181.5625 215.789062 180.980469 221.335938 180.332031 C 232.851562 179.125 239.457031 180.167969 240.007812 180.164062 C 240.074219 180.207031 244.121094 180.691406 244.800781 180.648438 L 244.796875 180.75 C 245.070312 180.75 245.34375 180.746094 245.617188 180.761719 C 245.746094 180.820312 245.882812 180.820312 246.019531 180.828125 C 246 180.769531 245.433594 179.148438 245.390625 178.898438 C 246.015625 179.429688 246.34375 179.617188 247.027344 180.191406 C 249.121094 178.113281 254.386719 176.59375 255.429688 175.765625 C 255.429688 175.765625 257.554688 170.984375 257.617188 170.863281 C 257.9375 170.859375 258.257812 170.855469 258.582031 170.863281 C 258.582031 170.863281 257.046875 176.132812 257 176.253906 C 256.066406 176.785156 255.050781 177.140625 254.109375 177.648438 C 248.394531 180.449219 249.726562 179.722656 249.085938 180.675781 C 244.925781 187.308594 246.214844 184.980469 244.6875 190.667969 C 244.5 191.574219 244.53125 190.886719 245.011719 192.476562 C 245.226562 192.859375 244.617188 192.773438 248.648438 192.769531 C 248.6875 192.8125 254.390625 197.894531 254.535156 197.984375 C 258.941406 198.75 256.9375 198.949219 258.464844 198.238281 C 259.417969 197.773438 264.105469 192.367188 264.019531 185.550781 C 264.503906 184.488281 263.445312 181.984375 263.238281 181.230469 C 261.789062 182.039062 260.398438 182.945312 258.898438 183.640625 C 263.550781 179.800781 261.765625 181.984375 263.78125 179.109375 C 263.996094 178.667969 263.9375 178.175781 263.941406 177.707031 C 263.984375 177.554688 264.023438 177.398438 264.03125 177.238281 C 264.152344 176.882812 264.097656 176.5 264.097656 176.132812 L 263.984375 176.140625 C 263.53125 173.351562 263.71875 176.265625 263.265625 171.609375 C 263.222656 171.015625 263.398438 170.429688 263.351562 169.832031 C 263.507812 169.539062 263.433594 169.203125 263.4375 168.886719 C 263.582031 168.292969 263.605469 168.457031 262.945312 167.789062 C 262.746094 167.445312 262.128906 166.90625 261.851562 166.921875 C 261.953125 166.710938 261.476562 166.703125 261.582031 166.910156 L 261.523438 166.90625 C 261.3125 167.234375 261.074219 167.546875 260.789062 167.816406 C 259.210938 167.824219 257.625 167.816406 256.046875 167.820312 L 256.058594 167.910156 L 255.988281 167.910156 C 255.570312 169.007812 254.109375 171.738281 253.933594 172.117188 C 253.875 172.160156 249.949219 174.589844 249.785156 174.667969 C 249.867188 174.511719 252.433594 171.71875 252.492188 171.664062 C 252.71875 171.289062 253.160156 171.0625 253.28125 170.625 C 253.632812 169.699219 254.515625 167.925781 254.480469 167.5625 C 254.644531 167.5625 254.613281 167.25 254.566406 167.132812 C 254.703125 166.945312 254.566406 167.109375 254.8125 165.683594 C 254.539062 165.199219 252.953125 163.367188 252.570312 163.09375 L 252.640625 163.109375 C 252.535156 163.078125 251.523438 162.796875 251.238281 162.78125 C 250.78125 162.621094 250.292969 162.574219 249.824219 162.460938 C 249.832031 161.980469 250.105469 161.542969 250.0625 160.914062 C 250.101562 160.890625 250.179688 160.839844 250.222656 160.816406 C 253.84375 162.910156 253.847656 161.679688 256.5 165.582031 C 256.875 165.648438 257.242188 165.738281 257.609375 165.820312 C 257.917969 165.757812 260.226562 164.972656 260.507812 164.472656 C 260.730469 164.128906 261.261719 164.011719 261.328125 163.570312 C 261.425781 163.308594 261.476562 161.230469 261.484375 161.171875 C 261.59375 160.902344 261.542969 160.601562 261.550781 160.3125 C 261.699219 160.300781 261.699219 159.875 261.554688 159.855469 C 261.550781 159.820312 261.546875 159.746094 261.546875 159.707031 C 259.707031 154.734375 259.675781 155.152344 259.167969 154.816406 C 258.167969 154.175781 257.289062 153.371094 256.285156 152.734375 C 254.828125 154.171875 250.613281 159.484375 250.484375 159.6875 C 250.078125 159.851562 249.640625 159.976562 249.234375 160.144531 C 249.023438 160.164062 248.824219 160.222656 248.636719 160.316406 C 248.28125 160.386719 247.960938 160.5625 247.621094 160.679688 C 247.511719 161.179688 247.28125 161.636719 247.054688 162.09375 C 246.988281 162.398438 247.011719 162.722656 247.039062 163.03125 C 247.171875 163.367188 247.289062 163.710938 247.363281 164.066406 C 247.351562 164.0625 245.171875 163.101562 245.144531 163.09375 C 245.109375 162.460938 245.140625 161.820312 245.128906 161.183594 C 245.191406 161.132812 246.527344 159.910156 246.710938 159.605469 C 246.84375 159.589844 246.984375 159.59375 247.113281 159.53125 C 249.796875 159.207031 249.660156 158.832031 251.433594 157.105469 C 251.953125 156.59375 252.1875 155.882812 252.574219 155.285156 C 253.953125 153.074219 253.808594 152.550781 254.488281 150.871094 C 254.375 150.625 254.3125 150.367188 254.308594 150.09375 L 254.269531 150.039062 C 253.761719 147.554688 254.257812 148.535156 251.011719 145.878906 C 246.570312 144.214844 249.429688 143.511719 245.011719 144.808594 C 240.40625 148.042969 244.570312 145.332031 240.277344 150.277344 C 236.84375 155.328125 239.414062 151.011719 237.085938 156.628906 C 236.957031 156.941406 237.457031 158.140625 237.484375 158.199219 C 237.496094 158.464844 237.554688 158.726562 237.65625 158.96875 C 237.65625 159.011719 237.660156 159.089844 237.660156 159.132812 C 237.398438 158.902344 236.125 157.214844 236.046875 157.015625 C 236 156.261719 235.71875 155.523438 235.785156 154.765625 C 235.945312 154.542969 238.210938 150.207031 240.390625 148.082031 C 240.441406 147.960938 240.929688 146.382812 240.96875 146.101562 C 241.148438 145.75 241.183594 145.351562 241.332031 144.996094 C 241.386719 144.734375 243.785156 143.667969 244.734375 143.03125 C 244.613281 142.835938 242.117188 139.335938 241.746094 139.203125 C 241.6875 139.175781 238.507812 137.746094 238.320312 137.617188 C 238.246094 137.566406 238.167969 137.539062 238.078125 137.546875 L 238.078125 137.445312 C 237.808594 137.445312 237.535156 137.453125 237.269531 137.433594 C 237.222656 137.414062 234.527344 136.992188 233.894531 136.957031 L 233.894531 136.882812 C 233.152344 136.847656 232.425781 136.664062 231.691406 136.605469 C 231.472656 136.507812 231.214844 136.511719 231 136.605469 M 247.945312 140.601562 C 247.585938 140.984375 247.175781 141.324219 246.839844 141.734375 C 247.003906 142.132812 247.1875 142.53125 247.441406 142.878906 C 248.167969 142.855469 248.890625 142.964844 249.609375 143.078125 C 251.09375 144.074219 254.207031 145.882812 254.207031 145.882812 C 254.460938 146.199219 255.816406 148.503906 256.03125 148.902344 C 256.199219 149.730469 256.28125 150.578125 256.398438 151.417969 C 256.4375 151.429688 256.507812 151.453125 256.539062 151.460938 L 256.550781 151.507812 C 257.335938 151.8125 258.015625 152.328125 258.804688 152.632812 C 259.367188 153.085938 259.957031 153.503906 260.527344 153.949219 C 260.695312 153.445312 260.730469 152.898438 260.976562 152.421875 C 256.488281 143.390625 258.714844 147.339844 257.269531 145.445312 C 257.027344 145.097656 256.679688 144.835938 256.464844 144.46875 C 256.355469 144.378906 256.234375 144.296875 256.109375 144.238281 C 256.351562 145.027344 256.894531 146.695312 257.007812 147.535156 C 256.699219 147.160156 254.242188 142.558594 254.214844 142.5 C 251.726562 140.234375 250.945312 140.484375 248.914062 139.660156 C 248.558594 139.9375 248.273438 140.292969 247.945312 140.601562 M 254.507812 140.347656 C 254.558594 140.398438 254.558594 140.398438 254.507812 140.347656 M 136.257812 145.746094 C 135.980469 145.730469 134.058594 146.289062 133.875 146.371094 C 130.894531 147.71875 131.816406 147.222656 129.753906 149.648438 C 129.398438 150.066406 129.292969 149.894531 128.34375 151.691406 C 127.554688 153.164062 127.636719 152.640625 127.617188 153.496094 C 127.636719 154.199219 127.371094 156.125 128.210938 157.34375 C 132.265625 157.199219 130.539062 155.800781 131.917969 155.003906 C 131.300781 153.75 131.570312 153.714844 131.289062 152.519531 C 131.253906 152.332031 131.171875 152.117188 131.316406 151.953125 C 132.851562 149.566406 132.261719 149.511719 134.289062 147.941406 C 134.410156 147.851562 136.21875 146.164062 136.503906 145.816406 C 136.804688 145.738281 136.277344 145.511719 136.257812 145.746094 M 259.640625 147.203125 C 261.996094 152.175781 263.585938 152.296875 261.800781 155.632812 C 263.222656 159.40625 262.699219 159.792969 263.257812 161.414062 C 263.269531 161.648438 263.253906 161.890625 263.328125 162.117188 L 263.34375 162.035156 C 263.320312 162.203125 263.367188 161.917969 262.96875 163.875 C 263.035156 164.21875 263.785156 165.863281 264.203125 167.089844 L 264.25 167.078125 C 264.304688 167.285156 264.378906 167.496094 264.472656 167.695312 C 264.511719 167.453125 264.554688 167.210938 264.578125 166.964844 C 264.699219 166.832031 265.3125 164.398438 265.410156 163.046875 L 265.320312 163.046875 C 265.355469 161.996094 264.8125 158.199219 264.648438 156.195312 L 264.609375 156.121094 C 264.402344 152.894531 263.816406 151.859375 262.304688 149.039062 C 261.679688 148.515625 260.175781 147.503906 259.898438 147.390625 C 259.917969 147.261719 259.714844 147.269531 259.640625 147.203125 M 133.410156 156.03125 C 131.730469 156.6875 132.414062 156.484375 132.007812 158.332031 C 131.992188 158.390625 131.800781 162.929688 131.015625 164.167969 C 130.140625 165.585938 129.34375 167.722656 129.582031 169.449219 C 129.929688 171.625 129.492188 170.421875 130.730469 172.09375 C 130.957031 172.425781 133.320312 174.257812 133.839844 174.410156 C 135.890625 175.136719 136.410156 175.476562 137.34375 175.753906 C 144.957031 177.976562 141.421875 177.683594 146.308594 177.683594 C 144.875 176.539062 145.242188 176.191406 143.578125 175.59375 C 138.828125 174.160156 139.070312 174.507812 135.359375 171.816406 C 134.957031 171.433594 134.75 170.898438 134.410156 170.464844 C 133.589844 169.203125 134.328125 170.941406 132.550781 166.910156 C 132.484375 166.027344 132.753906 165.171875 132.808594 164.304688 C 133.148438 163.960938 133.46875 163.605469 133.832031 163.292969 C 133.589844 165.660156 132.785156 167.261719 136.109375 171.226562 C 137.308594 172.835938 146.242188 175.027344 147.199219 176.074219 C 150.53125 179.585938 154.972656 180.800781 159.765625 181.03125 C 160.78125 181.085938 160.152344 180.980469 161.574219 179.832031 C 161.574219 179.832031 163.582031 178.386719 163.582031 178.386719 C 164.355469 177.398438 164.554688 175.480469 164.601562 175.246094 C 164.3125 175.070312 164.027344 174.890625 163.738281 174.71875 C 163.503906 175.484375 163.328125 177.023438 162.875 177.34375 C 160.953125 178.808594 161.542969 178.597656 160.726562 178.730469 C 160.371094 178.769531 157.609375 179.035156 156.988281 178.933594 C 152.214844 178.746094 153.316406 178.808594 151.503906 177.6875 C 148.859375 176.09375 149.597656 176.300781 148.523438 175.15625 C 148.289062 174.824219 147.949219 174.578125 147.722656 174.238281 C 147.488281 173.738281 147.292969 173.21875 147.046875 172.722656 C 146.972656 172.730469 146.898438 172.738281 146.824219 172.746094 C 146.816406 172.71875 144.988281 168.164062 144.988281 168.164062 C 142.199219 167.84375 137.917969 168.363281 136.570312 160.078125 C 136.664062 158.742188 136.734375 157.40625 136.867188 156.074219 C 135.988281 156.390625 134.523438 155.632812 133.410156 156.03125 M 129.886719 158.488281 C 129.21875 158.867188 128.449219 159.035156 127.816406 159.472656 C 127.816406 159.472656 126.371094 162.0625 126.371094 162.0625 C 125.121094 164.609375 125.636719 164.117188 124.886719 165.90625 C 124.746094 166.230469 124.753906 169.421875 124.867188 169.824219 C 125.183594 171.941406 124.816406 171.457031 126.125 173.722656 C 126.074219 173.804688 126.167969 173.960938 126.269531 173.941406 C 126.339844 173.902344 126.414062 173.800781 126.367188 173.722656 C 126.710938 173.195312 126.746094 172.605469 127.871094 171.546875 C 127.890625 166.59375 127.753906 168.8125 128.527344 166.28125 C 128.730469 165.46875 129.992188 163.238281 130.070312 163.132812 C 130.554688 162.417969 130.15625 163.089844 130.507812 158.421875 C 130.300781 158.417969 130.085938 158.421875 129.886719 158.488281 M 266.566406 160.683594 C 266.53125 160.90625 266.539062 161.140625 266.679688 161.320312 C 266.585938 161.917969 266.660156 162.53125 266.636719 163.132812 L 266.722656 163.136719 C 266.769531 164.054688 266.375 166.238281 265.738281 167.578125 C 265.199219 168.886719 264.726562 169.457031 264.769531 169.785156 C 265.785156 178.886719 265.660156 173.230469 264.945312 180.359375 C 264.894531 181.011719 264.589844 181.007812 265.472656 183.382812 C 265.558594 186.152344 265.328125 187.550781 265.328125 187.550781 C 266.515625 185.703125 267.128906 180.910156 266.894531 180.328125 C 266.851562 179.800781 266.988281 179.246094 266.808594 178.738281 C 266.785156 178.339844 266.84375 177.921875 266.730469 177.53125 C 266.722656 177.246094 266.78125 176.941406 266.632812 176.679688 C 266.675781 174.691406 267.269531 167.484375 267.1875 166.09375 C 267.25 165.992188 267.253906 165.839844 267.203125 165.730469 C 267.222656 165.710938 267.265625 165.660156 267.285156 165.636719 C 267.246094 165.523438 266.960938 162.113281 266.910156 162.046875 C 266.859375 161.828125 266.839844 161.585938 266.726562 161.386719 C 266.722656 161.144531 266.648438 160.914062 266.566406 160.683594 M 268.789062 166.644531 C 267.617188 171.1875 268.898438 180.441406 268.347656 182.210938 C 267.6875 185.746094 268.652344 185.71875 260.652344 198.449219 C 260.121094 199.285156 260.347656 199.277344 258.933594 199.953125 C 258.914062 200.488281 258.964844 201.023438 258.898438 201.554688 C 258.34375 204.140625 258.539062 204.667969 258.242188 205 C 256.03125 207.390625 258.015625 206.472656 253.445312 207.4375 C 253.125 207.511719 252.796875 207.5 252.472656 207.503906 C 251.84375 207.171875 249.53125 207.640625 248.308594 206.78125 C 248.035156 206.582031 245.667969 204.871094 244.84375 204.417969 C 244.277344 204.296875 243.695312 204.21875 243.113281 204.203125 C 242.824219 204.0625 242.492188 204.121094 242.183594 204.109375 C 236.128906 201.746094 241.363281 204.496094 235.542969 200.25 C 234.5625 200.832031 233.503906 201.28125 232.5 201.820312 C 233.449219 203.582031 231.878906 202.121094 235.195312 204.789062 C 235.675781 205.09375 236.207031 205.308594 236.707031 205.574219 C 238.078125 206.195312 237.761719 206.503906 239.441406 206.519531 C 239.839844 206.660156 241.804688 206.621094 242.21875 206.714844 C 242.542969 206.765625 246.304688 207.886719 248.636719 209.414062 C 248.84375 209.5625 252.066406 210.144531 252.328125 210.140625 C 252.632812 210.261719 252.984375 210.269531 253.289062 210.136719 C 259.292969 208.511719 256.660156 209.871094 260.792969 206.90625 C 261.328125 206.535156 261.820312 206.085938 262.398438 205.773438 C 261.992188 206.476562 261.394531 207.039062 260.910156 207.679688 C 260.125 208.605469 260.4375 209.078125 255.695312 211.097656 C 256.84375 211.117188 258 211.125 259.148438 211.097656 C 263.113281 209.074219 263.941406 207.289062 264.890625 206.40625 C 264.945312 206.359375 267.742188 202.480469 267.863281 202.253906 C 268.03125 202.082031 268.257812 201.867188 268.175781 201.597656 C 268.394531 200.246094 268.480469 198.871094 268.773438 197.53125 C 266.71875 200.234375 264.761719 202.425781 264.761719 202.425781 C 265.183594 201.609375 267.578125 197.410156 268.339844 195.632812 L 268.445312 195.648438 C 268.445312 195.613281 268.445312 189.574219 268.453125 189.535156 C 268.996094 190.265625 269.207031 191.195312 269.789062 191.894531 C 269.964844 191.160156 271.0625 185.980469 271.078125 185.273438 C 271.058594 178.835938 271.121094 179.144531 271 178.820312 C 270.976562 177.472656 270.617188 175.027344 270.574219 174.949219 C 270.433594 170.660156 269.492188 168.640625 268.789062 166.644531 M 129.175781 173.507812 C 128.90625 174.167969 128.804688 174.886719 128.597656 175.570312 C 128.464844 175.863281 129.242188 177.917969 129.464844 178.300781 C 134.832031 181.746094 132.320312 178.148438 146.074219 182.066406 C 148.222656 182.867188 152.121094 186.074219 152.121094 186.074219 C 152.292969 186.269531 152.574219 186.191406 152.800781 186.199219 C 152.980469 186.242188 153.164062 186.253906 153.34375 186.265625 C 154.332031 186.652344 155.445312 186.308594 156.402344 185.847656 C 156.328125 185.722656 154.203125 182.289062 153.761719 182.089844 C 153.726562 182.070312 147.671875 179.078125 147.636719 179.085938 C 142.394531 179.832031 143.324219 179.582031 142.160156 179.425781 C 141.925781 179.296875 141.65625 179.25 141.390625 179.246094 C 140.910156 179.0625 140.394531 179.003906 139.902344 178.871094 C 135.550781 177.921875 135.65625 177.398438 133.183594 176.550781 C 131.1875 175.902344 131.101562 175.363281 130.746094 175.042969 C 130.222656 174.535156 129.726562 173.992188 129.175781 173.507812 M 126.980469 176.859375 C 126.96875 177.078125 126.902344 179.226562 127.035156 179.507812 C 128.128906 182.046875 127.496094 181.4375 128.589844 182.308594 C 130.273438 183.648438 130.382812 183.667969 130.554688 183.707031 C 132.632812 184.210938 133.332031 184.933594 135.960938 185.132812 C 146.121094 186.515625 144.539062 187.265625 153.398438 190.492188 C 153.929688 190.515625 154.449219 190.378906 154.972656 190.335938 C 155.101562 189.664062 155.339844 189.015625 155.421875 188.335938 C 153.613281 188.3125 154.527344 189.339844 149.988281 185.953125 C 145.871094 182.828125 146.898438 183.585938 143.164062 182.515625 C 141.445312 182.066406 137.457031 181.367188 136.878906 181.382812 C 136.761719 181.34375 136.640625 181.324219 136.515625 181.3125 L 136.441406 181.253906 C 135.835938 181.132812 132.398438 181.339844 131.988281 181.132812 C 131.929688 181.105469 129.351562 179.875 129.230469 179.769531 C 127.761719 178.464844 127.554688 178.515625 127.445312 178.195312 C 127.277344 177.753906 127.183594 177.285156 126.980469 176.859375 M 265.253906 187.597656 C 265.117188 187.84375 265.523438 187.617188 265.253906 187.597656 M 236.789062 199.328125 C 239.597656 202.300781 239.160156 201.765625 241.441406 202.472656 C 243.265625 202.882812 241.128906 202.699219 245.453125 202.09375 C 246.007812 202.914062 246.734375 203.605469 247.296875 204.421875 C 247.699219 205.039062 248.457031 205.214844 249.085938 205.507812 C 250.332031 205.980469 250.378906 206.449219 251.867188 206.429688 L 251.867188 206.335938 C 252.242188 206.359375 254.609375 206.136719 254.730469 206.085938 C 255.460938 205.769531 256.207031 205.476562 256.933594 205.152344 C 257.238281 204.066406 257.292969 202.921875 257.585938 201.828125 C 257.355469 201.109375 256.929688 200.464844 256.738281 199.726562 C 252.867188 198.625 253.976562 199.804688 252.535156 198.261719 C 252.386719 198.117188 249.621094 195.0625 249.445312 194.949219 C 248.335938 194.765625 247.75 194.382812 244.382812 193.933594 C 243.984375 193.882812 243.59375 193.800781 243.207031 193.707031 C 243.058594 193.207031 242.945312 192.691406 242.8125 192.183594 C 242.082031 193.59375 236.835938 199.265625 236.789062 199.328125 Z M 236.789062 199.328125 " fill-opacity="1" fill-rule="nonzero"/></g><g clip-path="url(#id7)"><path fill="#000000" d="M 214.96875 123.996094 C 214.402344 124.085938 213.851562 123.898438 213.292969 123.859375 C 208.242188 123.179688 210.804688 123.402344 206.5625 124.28125 C 206.144531 124.386719 206.320312 124.101562 204.328125 126.582031 C 204.277344 127.984375 204.410156 129.152344 204.226562 129.597656 C 203.472656 131.453125 203.8125 131.464844 203.097656 132.085938 C 202.65625 132.453125 202.261719 132.886719 201.746094 133.164062 C 201.902344 132.253906 203.21875 130.375 202.644531 128.613281 C 201.582031 126.382812 202.351562 126.886719 199.648438 125.28125 C 197.308594 123.835938 197.828125 124.496094 194.363281 124.070312 C 193.617188 123.925781 193.070312 124.539062 188.671875 126.574219 C 188.28125 126.253906 187.890625 125.921875 187.464844 125.660156 C 181.808594 124.671875 178.964844 126.851562 176.308594 128.59375 C 175.148438 129.441406 172.8125 130.035156 170.359375 131.164062 C 170.128906 131.222656 165.574219 131.90625 165.066406 131.816406 C 162.835938 131.175781 162.570312 131.234375 161.492188 130.898438 C 172.933594 130.621094 171.9375 129.054688 176.410156 126.886719 C 177.964844 126.039062 180.496094 124.574219 181.042969 124.484375 C 185.472656 123.671875 182.359375 123 188.222656 123.753906 C 188.816406 123.835938 189.425781 124.113281 190.015625 123.832031 C 190.894531 123.53125 191.792969 123.265625 192.609375 122.820312 C 194.265625 122.332031 199.980469 123.105469 201.699219 123.570312 C 204.128906 124.203125 203.652344 119.097656 214.96875 123.996094 Z M 214.96875 123.996094 " fill-opacity="1" fill-rule="nonzero"/></g><path fill="#000000" d="M 186.53125 129.285156 C 184.992188 136.632812 185.6875 136.480469 186.203125 138.761719 C 184.238281 137.121094 184.585938 137.121094 184.3125 134.488281 C 184.300781 134.394531 184.089844 131.53125 186.53125 129.285156 Z M 186.53125 129.285156 " fill-opacity="1" fill-rule="nonzero"/><g clip-path="url(#id8)"><path fill="#000000" d="M 197.023438 185.5625 C 197.023438 185.5625 201.507812 188.9375 201.507812 188.9375 C 207.746094 191.515625 206.125 190.660156 208.5625 191 C 210.175781 191.265625 210.742188 191.28125 213.695312 190.316406 C 214.25 190.296875 213.203125 188.734375 212.9375 187.316406 C 213.527344 187.683594 213.441406 187.761719 216.445312 190.179688 C 217.164062 190.464844 219.617188 190.65625 221.296875 191.066406 C 222.492188 191.289062 222.886719 190.949219 227.308594 190.765625 C 239.445312 187.347656 234.433594 188.371094 239.835938 186.492188 C 239.777344 186.554688 235.535156 190.003906 235.074219 190.25 C 235.019531 190.28125 232.457031 191.773438 232.316406 191.921875 C 231.992188 192.6875 231.105469 194.351562 231.105469 194.351562 C 231.039062 193.605469 230.777344 191.949219 230.769531 191.894531 C 230.710938 191.898438 223.632812 193.238281 219.371094 192.261719 C 219.3125 192.25 215.03125 191.28125 214.535156 191.246094 C 213.480469 191.726562 212.050781 192.542969 211.816406 192.519531 C 207 192.53125 207.210938 192.535156 206.957031 192.445312 C 206.40625 192.269531 202.800781 191.449219 200.570312 190.292969 C 195 193.34375 191.367188 192.851562 188.257812 192.847656 C 187.234375 192.632812 186.261719 192.222656 185.277344 191.882812 C 184.492188 191.34375 183.707031 190.800781 182.96875 190.203125 C 188.195312 191.667969 188.597656 192.578125 195.496094 191.050781 C 195.917969 190.933594 196.363281 190.886719 196.738281 190.652344 C 197.636719 190.046875 198.640625 189.632812 199.5 188.964844 C 198.710938 187.808594 197.816406 186.71875 197.023438 185.5625 Z M 197.023438 185.5625 " fill-opacity="1" fill-rule="nonzero"/></g><g clip-path="url(#id9)"><path fill="#000000" d="M 184.753906 194.253906 C 181.671875 196.425781 181.28125 196.265625 181.375 196.527344 C 181.8125 196.839844 183.730469 197.816406 184.035156 197.988281 C 185.75 198.378906 186.585938 199.210938 190.886719 199.261719 C 199.980469 199.230469 202.101562 197.644531 208.320312 195.847656 C 208.683594 195.773438 208.996094 195.511719 209.382812 195.558594 C 206.929688 196.746094 200.828125 199.378906 196.203125 200.566406 C 191.699219 200.9375 185.199219 201.300781 181.199219 199.183594 C 179.667969 198.414062 178.652344 197.042969 178.171875 197.136719 C 175.882812 197.558594 173.234375 197.664062 168.496094 201.09375 C 167.167969 201.914062 168.03125 201.414062 165.613281 201.882812 C 164.914062 201.742188 164.25 201.460938 163.597656 201.183594 C 167.925781 200.914062 165.507812 201.605469 167.679688 200.441406 C 169.894531 199.164062 168.988281 199.261719 172.136719 197.171875 C 172.195312 197.136719 174.335938 195.835938 174.601562 195.777344 C 180.652344 194.4375 178.113281 194.65625 182.078125 194.382812 C 182.214844 194.351562 183.921875 194.210938 184.753906 194.253906 Z M 184.753906 194.253906 " fill-opacity="1" fill-rule="nonzero"/></g><g clip-path="url(#id10)"><g clip-path="url(#id11)"><path fill="#ffec83" d="M 203.171875 212.179688 L 249.597656 200.210938 C 253.800781 199.128906 258.265625 199.765625 262.007812 201.980469 C 265.746094 204.199219 268.460938 207.8125 269.546875 212.035156 L 293.242188 303.976562 C 294.332031 308.191406 293.703125 312.671875 291.5 316.417969 C 289.292969 320.167969 285.695312 322.882812 281.492188 323.964844 L 235.066406 335.929688 C 230.867188 337.011719 226.398438 336.378906 222.660156 334.160156 C 218.917969 331.945312 216.203125 328.332031 215.117188 324.113281 L 191.421875 232.167969 C 190.332031 227.949219 190.960938 223.472656 193.164062 219.722656 C 195.371094 215.976562 198.96875 213.261719 203.171875 212.179688 " fill-opacity="1" fill-rule="nonzero"/></g></g><g clip-path="url(#id12)"><g clip-path="url(#id13)"><path fill="#ffec83" d="M 142.992188 220.90625 L 189.417969 208.941406 C 193.617188 207.859375 198.089844 208.507812 201.835938 210.746094 C 205.582031 212.988281 208.304688 216.636719 209.402344 220.886719 L 209.507812 221.316406 C 210.605469 225.566406 209.988281 230.078125 207.789062 233.847656 C 205.59375 237.621094 201.992188 240.351562 197.789062 241.433594 L 151.367188 253.398438 C 147.164062 254.484375 142.695312 253.832031 138.945312 251.589844 C 135.195312 249.351562 132.480469 245.703125 131.382812 241.449219 L 131.269531 241.023438 C 130.175781 236.769531 130.792969 232.265625 132.992188 228.488281 C 135.191406 224.71875 138.789062 221.988281 142.992188 220.90625 " fill-opacity="1" fill-rule="nonzero"/></g></g><g clip-path="url(#id14)"><path fill="#ffec83" d="M 213.410156 85.023438 L 261.347656 85.023438 C 265.691406 85.023438 269.855469 86.753906 272.925781 89.824219 C 275.996094 92.894531 277.722656 97.066406 277.722656 101.414062 L 277.722656 202.867188 C 277.722656 207.214844 275.996094 211.378906 272.925781 214.453125 C 269.855469 217.527344 265.691406 219.25 261.347656 219.25 L 213.410156 219.25 C 209.066406 219.25 204.902344 217.527344 201.832031 214.453125 C 198.761719 211.378906 197.039062 207.214844 197.039062 202.867188 L 197.039062 101.414062 C 197.039062 97.066406 198.761719 92.894531 201.832031 89.824219 C 204.902344 86.753906 209.066406 85.023438 213.410156 85.023438 " fill-opacity="1" fill-rule="nonzero"/></g><g clip-path="url(#id15)"><path stroke-linecap="butt" transform="matrix(0.218056, 0, 0, 0.218294, 117.47739, 55.126146)" fill="none" stroke-linejoin="round" d="M 254.625951 253.63109 C 117.153833 251.161652 -10.035643 466.110129 360.551496 688.98586 C 360.945604 688.252187 362.522037 688.252187 362.934059 688.98586 C 745.451929 458.916549 597.589685 237.347115 455.549494 254.579497 C 400.177287 261.307821 374.040746 292.050536 361.733821 318.480681 C 349.426895 292.050536 323.290354 261.307821 267.918147 254.579497 C 263.493386 254.060558 259.050711 253.720563 254.625951 253.63109 Z M 254.625951 253.63109 " stroke="#000000" stroke-width="3.8" stroke-opacity="1" stroke-miterlimit="4"/></g><g clip-path="url(#id16)"><path fill="#ffec83" d="M 209.65625 100.824219 C 209.65625 101.480469 209.625 102.128906 209.5625 102.78125 C 209.492188 103.433594 209.402344 104.082031 209.269531 104.722656 C 209.144531 105.363281 208.984375 106 208.792969 106.625 C 208.605469 107.253906 208.386719 107.867188 208.132812 108.472656 C 207.882812 109.078125 207.605469 109.667969 207.296875 110.246094 C 206.988281 110.824219 206.648438 111.386719 206.289062 111.929688 C 205.925781 112.476562 205.535156 113 205.117188 113.503906 C 204.703125 114.011719 204.265625 114.496094 203.800781 114.960938 C 203.339844 115.421875 202.851562 115.863281 202.347656 116.277344 C 201.839844 116.691406 201.316406 117.082031 200.769531 117.445312 C 200.226562 117.808594 199.664062 118.148438 199.089844 118.457031 C 198.511719 118.765625 197.921875 119.042969 197.316406 119.292969 C 196.707031 119.542969 196.09375 119.765625 195.464844 119.953125 C 194.84375 120.144531 194.207031 120.304688 193.5625 120.429688 C 192.921875 120.558594 192.277344 120.652344 191.625 120.71875 C 190.972656 120.78125 190.320312 120.816406 189.664062 120.816406 C 189.011719 120.816406 188.355469 120.78125 187.707031 120.71875 C 187.050781 120.652344 186.40625 120.558594 185.765625 120.429688 C 185.121094 120.304688 184.488281 120.144531 183.859375 119.953125 C 183.234375 119.765625 182.617188 119.542969 182.011719 119.292969 C 181.410156 119.042969 180.820312 118.765625 180.238281 118.457031 C 179.660156 118.148438 179.101562 117.808594 178.558594 117.445312 C 178.011719 117.082031 177.488281 116.691406 176.980469 116.277344 C 176.476562 115.863281 175.992188 115.421875 175.527344 114.960938 C 175.066406 114.496094 174.625 114.011719 174.210938 113.503906 C 173.792969 113 173.402344 112.476562 173.042969 111.929688 C 172.679688 111.386719 172.339844 110.824219 172.03125 110.246094 C 171.722656 109.667969 171.445312 109.078125 171.195312 108.472656 C 170.941406 107.867188 170.722656 107.253906 170.53125 106.625 C 170.34375 106 170.183594 105.363281 170.054688 104.722656 C 169.929688 104.082031 169.832031 103.433594 169.769531 102.78125 C 169.703125 102.128906 169.671875 101.480469 169.671875 100.824219 C 169.671875 100.167969 169.703125 99.515625 169.769531 98.863281 C 169.832031 98.210938 169.929688 97.5625 170.054688 96.921875 C 170.183594 96.28125 170.34375 95.644531 170.53125 95.019531 C 170.722656 94.390625 170.941406 93.777344 171.195312 93.171875 C 171.445312 92.570312 171.722656 91.976562 172.03125 91.398438 C 172.339844 90.820312 172.679688 90.257812 173.042969 89.714844 C 173.402344 89.171875 173.792969 88.644531 174.210938 88.140625 C 174.625 87.632812 175.066406 87.152344 175.527344 86.6875 C 175.992188 86.226562 176.476562 85.785156 176.980469 85.371094 C 177.488281 84.953125 178.011719 84.5625 178.558594 84.203125 C 179.101562 83.835938 179.660156 83.5 180.238281 83.191406 C 180.820312 82.882812 181.410156 82.601562 182.011719 82.355469 C 182.617188 82.101562 183.234375 81.882812 183.859375 81.691406 C 184.488281 81.5 185.121094 81.34375 185.765625 81.214844 C 186.40625 81.085938 187.050781 80.992188 187.707031 80.925781 C 188.355469 80.863281 189.011719 80.832031 189.664062 80.832031 C 190.320312 80.832031 190.972656 80.863281 191.625 80.925781 C 192.277344 80.992188 192.921875 81.085938 193.5625 81.214844 C 194.207031 81.34375 194.84375 81.5 195.464844 81.691406 C 196.09375 81.882812 196.707031 82.101562 197.316406 82.355469 C 197.921875 82.601562 198.511719 82.882812 199.089844 83.191406 C 199.664062 83.5 200.226562 83.835938 200.769531 84.203125 C 201.316406 84.5625 201.839844 84.953125 202.347656 85.371094 C 202.851562 85.785156 203.339844 86.226562 203.800781 86.6875 C 204.265625 87.152344 204.703125 87.632812 205.117188 88.140625 C 205.535156 88.644531 205.925781 89.171875 206.289062 89.714844 C 206.648438 90.257812 206.988281 90.820312 207.296875 91.398438 C 207.605469 91.976562 207.882812 92.570312 208.132812 93.171875 C 208.386719 93.777344 208.605469 94.390625 208.792969 95.019531 C 208.984375 95.644531 209.144531 96.28125 209.269531 96.921875 C 209.402344 97.5625 209.492188 98.210938 209.5625 98.863281 C 209.625 99.515625 209.65625 100.167969 209.65625 100.824219 Z M 209.65625 100.824219 " fill-opacity="1" fill-rule="nonzero"/></g></svg>